<svg width="33" height="32" viewBox="0 0 33 32" fill="none" xmlns="http://www.w3.org/2000/svg">
<path d="M18.83 16L14.63 13.6V18.4L18.83 16Z" fill="#202020"/>
<path fill-rule="evenodd" clip-rule="evenodd" d="M0.22998 0H32.23V32H0.22998V0ZM22.43 10.7C23.13 10.9 23.63 11.4 23.83 12.1C24.23 13.4 24.23 16 24.23 16C24.23 16 24.23 18.6 23.93 19.9C23.73 20.6 23.23 21.1 22.53 21.3C21.23 21.6 16.23 21.6 16.23 21.6C16.23 21.6 11.13 21.6 9.92998 21.3C9.22998 21.1 8.72998 20.6 8.52998 19.9C8.22998 18.6 8.22998 16 8.22998 16C8.22998 16 8.22998 13.4 8.42998 12.1C8.62998 11.4 9.12999 10.9 9.82999 10.7C11.13 10.4 16.13 10.4 16.13 10.4C16.13 10.4 21.23 10.4 22.43 10.7Z" fill="#202020"/>
</svg>
