<svg width="32" height="32" viewBox="0 0 32 32" fill="none" xmlns="http://www.w3.org/2000/svg">
<path fill-rule="evenodd" clip-rule="evenodd" d="M0 0H32V32H0V0Z" fill="black"/>
<path d="M8 17H24V15H8V17ZM16 23C12.134 23 9 19.866 9 16H7C7 20.9706 11.0294 25 16 25V23ZM9 16C9 12.134 12.134 9 16 9V7C11.0294 7 7 11.0294 7 16H9ZM16 9C19.866 9 23 12.134 23 16H25C25 11.0294 20.9706 7 16 7V9ZM23 16C23 19.866 19.866 23 16 23V25C20.9706 25 25 20.9706 25 16H23ZM16 23C15.8345 23 15.6015 22.9287 15.3054 22.6469C15.0042 22.3603 14.6874 21.8982 14.3997 21.2507C13.8252 19.9583 13.4444 18.1027 13.4444 16H11.4444C11.4444 18.3156 11.8596 20.46 12.572 22.063C12.9277 22.8632 13.3771 23.5727 13.9266 24.0957C14.4813 24.6236 15.1837 25 16 25V23ZM13.4444 16C13.4444 13.8973 13.8252 12.0417 14.3997 10.7493C14.6874 10.1018 15.0042 9.63974 15.3054 9.35307C15.6015 9.07132 15.8345 9 16 9V7C15.1837 7 14.4813 7.3764 13.9266 7.90428C13.3771 8.42727 12.9277 9.13677 12.572 9.93701C11.8596 11.54 11.4444 13.6844 11.4444 16H13.4444ZM16 9C16.1655 9 16.3985 9.07132 16.6946 9.35307C16.9958 9.63974 17.3126 10.1018 17.6003 10.7493C18.1748 12.0417 18.5556 13.8973 18.5556 16H20.5556C20.5556 13.6844 20.1404 11.54 19.428 9.93701C19.0723 9.13677 18.6229 8.42727 18.0734 7.90428C17.5187 7.3764 16.8163 7 16 7V9ZM18.5556 16C18.5556 18.1027 18.1748 19.9583 17.6003 21.2507C17.3126 21.8982 16.9958 22.3603 16.6946 22.6469C16.3985 22.9287 16.1655 23 16 23V25C16.8163 25 17.5187 24.6236 18.0734 24.0957C18.6229 23.5727 19.0723 22.8632 19.428 22.063C20.1404 20.46 20.5556 18.3156 20.5556 16H18.5556Z" fill="white"/>
</svg>
