<svg width="33" height="32" viewBox="0 0 33 32" fill="none" xmlns="http://www.w3.org/2000/svg">
<path fill-rule="evenodd" clip-rule="evenodd" d="M0.22998 0H32.23V32H0.22998V0ZM22.33 11.5C23.03 11.4 23.63 11.3 24.23 11C23.83 11.7 23.23 12.3 22.53 12.7C22.73 17.4 19.33 22.5 13.23 22.5C11.43 22.5 9.72998 21.9 8.22998 21C9.92998 21.2 11.73 20.7 12.93 19.8C11.43 19.8 10.23 18.8 9.82998 17.5C10.33 17.6 10.83 17.5 11.33 17.4C9.82998 17 8.72998 15.6 8.72998 14.1C9.22998 14.3 9.72998 14.5 10.23 14.5C8.82998 13.5 8.32998 11.6 9.22998 10.1C10.93 12.1 13.33 13.4 16.03 13.5C15.53 11.5 17.13 9.5 19.23 9.5C20.13 9.5 21.03 9.9 21.63 10.5C22.43 10.3 23.13 10.1 23.73 9.7C23.53 10.5 23.03 11.1 22.33 11.5Z" fill="#202020"/>
</svg>
