<svg width="33" height="32" viewBox="0 0 33 32" fill="none" xmlns="http://www.w3.org/2000/svg">
<path d="M16.23 18.8C14.73 18.8 13.43 17.6 13.43 16C13.43 14.5 14.63 13.2 16.23 13.2C17.73 13.2 19.03 14.4 19.03 16C19.03 17.5 17.73 18.8 16.23 18.8Z" fill="#202020"/>
<path fill-rule="evenodd" clip-rule="evenodd" d="M19.63 9.2H12.83C12.03 9.3 11.63 9.4 11.33 9.5C10.93 9.6 10.63 9.8 10.33 10.1C10.0926 10.3374 9.98043 10.5748 9.84487 10.8617C9.80914 10.9373 9.77168 11.0166 9.72998 11.1C9.71451 11.1464 9.69665 11.1952 9.6775 11.2475C9.57289 11.5333 9.42998 11.9238 9.42998 12.6V19.4C9.52998 20.2 9.62998 20.6 9.72998 20.9C9.82998 21.3 10.03 21.6 10.33 21.9C10.5674 22.1374 10.8048 22.2495 11.0917 22.3851C11.1674 22.4209 11.2465 22.4583 11.33 22.5C11.3764 22.5155 11.4252 22.5333 11.4775 22.5525C11.7633 22.6571 12.1537 22.8 12.83 22.8H19.63C20.43 22.7 20.83 22.6 21.13 22.5C21.53 22.4 21.83 22.2 22.13 21.9C22.3674 21.6626 22.4795 21.4252 22.6151 21.1383C22.6508 21.0626 22.6882 20.9835 22.73 20.9C22.7455 20.8536 22.7633 20.8048 22.7825 20.7525C22.8871 20.4667 23.03 20.0762 23.03 19.4V12.6C22.93 11.8 22.83 11.4 22.73 11.1C22.63 10.7 22.43 10.4 22.13 10.1C21.8926 9.86261 21.6552 9.75045 21.3683 9.61488C21.2927 9.57918 21.2133 9.54167 21.13 9.5C21.0836 9.48453 21.0348 9.46666 20.9825 9.44752C20.6966 9.3429 20.3062 9.2 19.63 9.2ZM16.23 11.7C13.83 11.7 11.93 13.6 11.93 16C11.93 18.4 13.83 20.3 16.23 20.3C18.63 20.3 20.53 18.4 20.53 16C20.53 13.6 18.63 11.7 16.23 11.7ZM21.63 11.6C21.63 12.1523 21.1823 12.6 20.63 12.6C20.0777 12.6 19.63 12.1523 19.63 11.6C19.63 11.0477 20.0777 10.6 20.63 10.6C21.1823 10.6 21.63 11.0477 21.63 11.6Z" fill="#202020"/>
<path fill-rule="evenodd" clip-rule="evenodd" d="M0.22998 0H32.23V32H0.22998V0ZM12.83 7.7H19.63C20.53 7.8 21.13 7.9 21.63 8.1C22.23 8.4 22.63 8.6 23.13 9.1C23.63 9.6 23.93 10.1 24.13 10.6C24.33 11.1 24.53 11.7 24.53 12.6V19.4C24.43 20.3 24.33 20.9 24.13 21.4C23.83 22 23.63 22.4 23.13 22.9C22.63 23.4 22.13 23.7 21.63 23.9C21.13 24.1 20.53 24.3 19.63 24.3H12.83C11.93 24.2 11.33 24.1 10.83 23.9C10.23 23.6 9.82998 23.4 9.32998 22.9C8.82998 22.4 8.52998 21.9 8.32998 21.4C8.12998 20.9 7.92998 20.3 7.92998 19.4V12.6C8.02998 11.7 8.12998 11.1 8.32998 10.6C8.62998 10 8.82998 9.6 9.32998 9.1C9.82998 8.6 10.33 8.3 10.83 8.1C11.33 7.9 11.93 7.7 12.83 7.7Z" fill="#202020"/>
</svg>
