<svg width="55" height="16" viewBox="0 0 55 16" fill="none" xmlns="http://www.w3.org/2000/svg">
<path d="M29.6882 15.5427H25.7121C25.7121 9.31304 20.6435 4.2444 14.4139 4.2444C10.2327 4.2444 6.41096 6.53617 4.44044 10.2243L0.933594 8.35084C3.59753 3.3665 8.76316 0.268387 14.4139 0.268387C22.8351 0.268387 29.6882 7.11987 29.6882 15.5427Z" fill="#0E0E10"/>
<path d="M29.6882 15.5427H25.7122C25.7122 7.11987 32.5636 0.268387 40.9864 0.268387C46.6356 0.268387 51.8012 3.3665 54.4667 8.35084L50.9599 10.2259C48.9878 6.53618 45.166 4.2444 40.9864 4.2444C34.7568 4.2444 29.6882 9.31304 29.6882 15.5427Z" fill="#0E0E10"/>
</svg>
