<svg width="495" height="206" viewBox="0 0 495 206" fill="none" xmlns="http://www.w3.org/2000/svg">
<g clip-path="url(#clip0_229_2916)">
<path d="M672.584 217.969H668.608V56.2942H639.359V70.883H630.852V91.5424H622.747V110.587H601.348V104.105H588.383V51.4323H557.108V120.833H538.952V99.8522H528.417V95.5947H510.107V101.455H498.918V218.443H494.942V97.4794H506.131V91.6187H532.393V95.8762H542.928V116.857H553.132V47.4563H592.359V100.129H605.324V106.611H618.771V87.5663H626.876V66.907H635.383V52.3182H672.584V217.969Z" fill="#0E0E10"/>
<path d="M253.256 171.979C217.362 171.979 183.385 150.677 155.001 110.378C133.689 80.1232 122.828 49.4379 122.72 49.1326L126.473 47.8189C126.895 49.0197 169.532 168.003 253.256 168.003V171.979Z" fill="#0E0E10"/>
<path d="M292.809 171.979C219.531 171.979 177.185 85.079 165.951 58.446L169.615 56.9001C180.608 82.9637 221.981 168.003 292.809 168.003V171.979Z" fill="#0E0E10"/>
<path d="M496.93 178.302H-2.03455V182.278H496.93V178.302Z" fill="#0E0E10"/>
<path d="M42.7958 157.487C26.8202 157.487 11.2819 154.685 -3.39117 149.158L-1.99006 145.436C12.2329 150.795 27.3021 153.511 42.7958 153.511C72.7145 153.511 101.308 143.188 123.309 124.445L125.887 127.471C103.168 146.826 73.6592 157.487 42.7958 157.487Z" fill="#0E0E10"/>
<path d="M4.09483 152.802C1.79511 152.802 -0.520532 152.743 -2.78845 152.627L-2.58489 148.655C-0.385362 148.768 1.86349 148.826 4.09483 148.826C34.1535 148.826 62.8445 138.42 84.8843 119.524C106.764 100.767 120.164 75.3456 122.617 47.9445L126.577 48.2976C124.031 76.7388 110.143 103.106 87.4735 122.543C64.7116 142.055 35.1014 152.802 4.09483 152.802Z" fill="#0E0E10"/>
<path d="M133.223 71.0293H158.846V46.2444H133.223V71.0293ZM160.834 75.0053H131.235C130.138 75.0053 129.247 74.1163 129.247 73.0173V44.2564C129.247 43.159 130.138 42.2684 131.235 42.2684H160.834C161.932 42.2684 162.822 43.159 162.822 44.2564V73.0173C162.822 74.1163 161.932 75.0053 160.834 75.0053ZM133.223 105.597H158.846V80.8119H133.223V105.597ZM160.834 109.573H131.235C130.138 109.573 129.247 108.682 129.247 107.585V78.8239C129.247 77.7249 130.138 76.8359 131.235 76.8359H160.834C161.932 76.8359 162.822 77.7249 162.822 78.8239V107.585C162.822 108.682 161.932 109.573 160.834 109.573ZM133.223 140.163H158.846V115.379H133.223V140.163ZM160.834 144.139H131.235C130.138 144.139 129.247 143.248 129.247 142.151V113.391C129.247 112.294 130.138 111.403 131.235 111.403H160.834C161.932 111.403 162.822 112.294 162.822 113.391V142.151C162.822 143.248 161.932 144.139 160.834 144.139ZM126.585 227.684H122.609V27.4887C122.609 26.3914 123.499 25.5007 124.597 25.5007H131.235C132.334 25.5007 133.223 26.3914 133.223 27.4887V36.4618H158.846V27.4887C158.846 26.3914 159.735 25.5007 160.834 25.5007H167.471C168.568 25.5007 169.459 26.3914 169.459 27.4887V227.377H165.483V29.4767H162.822V38.4498C162.822 39.5472 161.932 40.4378 160.834 40.4378H131.235C130.138 40.4378 129.247 39.5472 129.247 38.4498V29.4767H126.585V227.684ZM133.223 234.149H129.247V147.959C129.247 146.861 130.138 145.971 131.235 145.971H160.834C161.932 145.971 162.822 146.861 162.822 147.959V221.337H158.846V149.947H133.223V234.149Z" fill="#0E0E10"/>
<path d="M287.011 171.979V168.003C370.77 168.003 413.372 49.0197 413.792 47.8189L417.545 49.131C417.438 49.4379 406.576 80.1232 385.268 110.378C356.882 150.677 322.906 171.979 287.011 171.979Z" fill="#0E0E10"/>
<path d="M247.459 171.979V168.003C318.288 168.003 359.66 82.9637 370.653 56.9001L374.316 58.446C363.083 85.079 320.735 171.979 247.459 171.979Z" fill="#0E0E10"/>
<path d="M497.472 157.487C466.609 157.487 437.101 146.826 414.38 127.471L416.958 124.445C438.96 143.188 467.554 153.511 497.472 153.511V157.487Z" fill="#0E0E10"/>
<path d="M496.326 146.674C450.164 131.999 417.726 93.384 413.688 48.2976L417.65 47.9445C421.543 91.4294 452.898 128.696 497.531 142.884L496.326 146.674Z" fill="#0E0E10"/>
<path d="M381.422 71.0293H407.045V46.2444H381.422V71.0293ZM409.033 75.0053H379.434C378.337 75.0053 377.446 74.1163 377.446 73.0173V44.2564C377.446 43.159 378.337 42.2684 379.434 42.2684H409.033C410.13 42.2684 411.021 43.159 411.021 44.2564V73.0173C411.021 74.1163 410.13 75.0053 409.033 75.0053ZM381.422 105.597H407.045V80.8119H381.422V105.597ZM409.033 109.573H379.434C378.337 109.573 377.446 108.682 377.446 107.585V78.8239C377.446 77.7249 378.337 76.8359 379.434 76.8359H409.033C410.13 76.8359 411.021 77.7249 411.021 78.8239V107.585C411.021 108.682 410.13 109.573 409.033 109.573ZM381.422 140.163H407.045V115.379H381.422V140.163ZM409.033 144.139H379.434C378.337 144.139 377.446 143.248 377.446 142.151V113.391C377.446 112.294 378.337 111.403 379.434 111.403H409.033C410.13 111.403 411.021 112.294 411.021 113.391V142.151C411.021 143.248 410.13 144.139 409.033 144.139ZM374.785 228.095H370.809V27.4887C370.809 26.3914 371.698 25.5007 372.797 25.5007H379.434C380.533 25.5007 381.422 26.3914 381.422 27.4887V36.4618H407.045V27.4887C407.045 26.3914 407.934 25.5007 409.033 25.5007H415.668C416.767 25.5007 417.656 26.3914 417.656 27.4887V228.037H413.68V29.4767H411.021V38.4498C411.021 39.5472 410.13 40.4378 409.033 40.4378H379.434C378.337 40.4378 377.446 39.5472 377.446 38.4498V29.4767H374.785V228.095ZM411.021 233.055H407.045V149.947H381.422V221.646H377.446V147.959C377.446 146.861 378.337 145.971 379.434 145.971H409.033C410.13 145.971 411.021 146.861 411.021 147.959V233.055Z" fill="#0E0E10"/>
</g>
<defs>
<clipPath id="clip0_229_2916">
<rect width="495" height="206" fill="white"/>
</clipPath>
</defs>
</svg>
