<svg width="543" height="206" viewBox="0 0 543 206" fill="none" xmlns="http://www.w3.org/2000/svg">
<g clip-path="url(#clip0_228_2881)">
<path d="M474.62 214.322H470.644V155.236C465.968 154.572 452.154 153.501 447.381 163.125L443.818 161.358C450.951 146.981 472.156 151.419 473.055 151.615L474.62 151.957V214.322Z" fill="#0E0E10"/>
<path d="M474.62 134.836H470.644V153.559H474.62V134.836Z" fill="#0E0E10"/>
<path d="M497.883 163.125C492.128 151.528 473.244 155.459 473.053 155.5L472.209 151.615C473.107 151.418 494.312 146.982 501.443 161.358L497.883 163.125Z" fill="#0E0E10"/>
<path d="M460.872 166.401L457.359 164.54C460.747 158.144 469.02 153.274 471.199 152.072C473.063 149.023 482.844 134.94 500.451 142.547L498.875 146.197C482.715 139.218 474.723 153.859 474.391 154.486L474.1 155.033L473.546 155.322C473.452 155.372 464.123 160.265 460.872 166.401Z" fill="#0E0E10"/>
<path d="M484.391 166.401C481.129 160.246 471.811 155.372 471.717 155.324L471.162 155.036L470.871 154.481C470.54 153.859 462.548 139.216 446.388 146.197L444.811 142.547C462.42 134.938 472.202 149.024 474.065 152.072C476.245 153.274 484.515 158.144 487.904 164.539L484.391 166.401Z" fill="#0E0E10"/>
<path d="M331.566 214.322H327.59V147.076C322.003 146.22 303.05 144.393 296.561 157.471L293 155.702C296.758 148.127 304.419 143.619 315.153 142.667C323.016 141.971 329.721 143.402 330.001 143.464L331.566 143.806V214.322Z" fill="#0E0E10"/>
<path d="M64.5658 224.322H60.5898V157.076C55.0027 156.22 36.0498 154.393 29.5609 167.471L26 165.702C29.7581 158.127 37.4191 153.619 48.1528 152.667C56.0157 151.971 62.7209 153.402 63.0008 153.464L64.5658 153.806V224.322Z" fill="#0E0E10"/>
<path d="M331.566 121.305H327.59V145.408H331.566V121.305Z" fill="#0E0E10"/>
<path d="M64.5658 131.305H60.5898V155.408H64.5658V131.305Z" fill="#0E0E10"/>
<path d="M362.598 157.471C354.991 142.138 330.249 147.297 329.999 147.35L329.155 143.464C329.436 143.402 336.141 141.969 344.004 142.667C354.74 143.618 362.399 148.127 366.159 155.702L362.598 157.471Z" fill="#0E0E10"/>
<path d="M95.5978 167.471C87.9909 152.138 63.2489 157.297 62.9992 157.35L62.1547 153.464C62.4362 153.402 69.1414 151.969 77.0044 152.667C87.7396 153.618 95.399 158.127 99.1587 165.702L95.5978 167.471Z" fill="#0E0E10"/>
<path d="M313.936 161.673L310.423 159.81C314.787 151.575 325.6 145.311 328.142 143.921C330.251 140.411 342.63 122.024 365.166 131.757L363.59 135.406C342.287 126.204 331.774 145.508 331.337 146.333L331.047 146.882L330.492 147.171C330.37 147.235 318.206 153.614 313.936 161.673Z" fill="#0E0E10"/>
<path d="M46.9361 171.673L43.4229 169.81C47.787 161.575 58.6002 155.311 61.1416 153.921C63.2505 150.411 75.6302 132.024 98.1663 141.757L96.5902 145.406C75.2867 136.204 64.7741 155.508 64.3367 156.333L64.0473 156.882L63.4923 157.171C63.3698 157.235 51.2064 163.614 46.9361 171.673Z" fill="#0E0E10"/>
<path d="M345.223 161.673C340.951 153.614 328.786 147.235 328.663 147.171L328.108 146.884L327.817 146.33C327.38 145.508 316.874 126.202 295.569 135.406L293.992 131.757C316.527 122.024 328.907 140.409 331.016 143.921C333.557 145.311 344.372 151.575 348.736 159.81L345.223 161.673Z" fill="#0E0E10"/>
<path d="M78.2226 171.673C73.9508 163.614 61.7857 157.235 61.6633 157.171L61.1082 156.884L60.8172 156.33C60.3798 155.508 49.8736 136.202 28.5685 145.406L26.9924 141.757C49.5269 132.024 61.9066 150.409 64.0155 153.921C66.557 155.311 77.3717 161.575 81.7358 169.81L78.2226 171.673Z" fill="#0E0E10"/>
<path d="M543.301 244.918H539.325V85.0072H523.294V51.7152H466.847V111.594H421.11V127.51H405.192V144.958H371.676V221.969H367.7V140.982H401.216V123.534H417.134V107.618H462.871V47.7392H527.269V81.0312H543.301V244.918Z" fill="#0E0E10"/>
<path d="M102 280.512H105.976V118.838H135.225V133.427H143.732V154.086H151.837V173.131H173.236V166.649H186.201V113.976H217.476V183.377H235.632V162.396H246.167V158.138H264.478V163.999H275.666V280.987H279.642V160.023H268.454V154.162H242.191V158.42H231.656V179.401H221.452V110H182.225V162.673H169.26V169.155H155.813V150.11H147.708V129.451H139.201V114.862H102V280.512Z" fill="#0E0E10"/>
</g>
<defs>
<clipPath id="clip0_228_2881">
<rect width="543" height="206" fill="white"/>
</clipPath>
</defs>
</svg>
