<svg width="495" height="179" viewBox="0 0 495 179" fill="none" xmlns="http://www.w3.org/2000/svg">
<g clip-path="url(#clip0_228_2863)">
<path d="M84.1508 189.322H80.1748V129.004C75.0553 128.245 58.8363 126.828 53.2603 138.069L49.6995 136.302C57.7008 120.169 81.5743 125.168 82.5874 125.389L84.1508 125.729V189.322Z" fill="#0E0E10"/>
<path d="M84.1509 106.078H80.1749V127.331H84.1509V106.078Z" fill="#0E0E10"/>
<path d="M111.065 138.071C104.425 124.683 82.8039 129.223 82.5876 129.273L81.74 125.389C82.7531 125.169 106.625 120.169 114.628 136.304L111.065 138.071Z" fill="#0E0E10"/>
<path d="M68.5777 141.781L65.0645 139.919C68.9116 132.66 78.3746 127.137 80.7284 125.844C82.71 122.572 93.7125 106.473 113.636 115.077L112.059 118.727C93.4803 110.705 84.3036 127.536 83.9219 128.258L83.6325 128.807L83.0775 129.096C82.9709 129.152 72.3088 134.742 68.5777 141.781Z" fill="#0E0E10"/>
<path d="M95.7481 141.781C92.0075 134.723 81.3565 129.152 81.25 129.096L80.6934 128.808L80.4023 128.255C80.0238 127.536 70.8472 110.708 52.268 118.725L50.6919 115.075C70.6133 106.471 81.6174 122.572 83.5991 125.845C85.9529 127.137 95.4141 132.66 99.2613 139.919L95.7481 141.781Z" fill="#0E0E10"/>
<path d="M222.368 188.969H218.392V138.123C214.196 137.555 202.763 136.816 198.79 144.827L195.228 143.06C201.486 130.445 220.017 134.324 220.803 134.494L222.368 134.836V188.969Z" fill="#0E0E10"/>
<path d="M222.368 120.249H218.392V136.437H222.368V120.249Z" fill="#0E0E10"/>
<path d="M241.97 144.827C237.073 134.958 220.967 138.344 220.803 138.379L219.957 134.494C220.742 134.324 239.271 130.443 245.531 143.06L241.97 144.827Z" fill="#0E0E10"/>
<path d="M210.451 147.667L206.938 145.805C209.869 140.272 216.956 136.056 218.948 134.95C220.684 132.142 229.242 120.059 244.538 126.668L242.962 130.318C229.153 124.355 222.42 136.826 222.14 137.36L221.851 137.913L221.294 138.203C221.215 138.244 213.222 142.438 210.451 147.667Z" fill="#0E0E10"/>
<path d="M230.309 147.667C227.537 142.438 219.545 138.242 219.465 138.203L218.91 137.913L218.619 137.36C218.339 136.832 211.534 124.387 197.796 130.317L196.22 126.667C211.518 120.061 220.076 132.142 221.811 134.95C223.802 136.056 230.889 140.272 233.822 145.805L230.309 147.667Z" fill="#0E0E10"/>
<path d="M452.368 188.969H448.392V138.123C444.196 137.555 432.763 136.816 428.79 144.827L425.228 143.06C431.486 130.445 450.017 134.324 450.803 134.494L452.368 134.836V188.969Z" fill="#0E0E10"/>
<path d="M452.368 120.249H448.392V136.437H452.368V120.249Z" fill="#0E0E10"/>
<path d="M471.97 144.827C467.073 134.958 450.967 138.344 450.803 138.379L449.957 134.494C450.742 134.324 469.271 130.443 475.531 143.06L471.97 144.827Z" fill="#0E0E10"/>
<path d="M440.451 147.667L436.938 145.805C439.869 140.272 446.956 136.056 448.948 134.95C450.684 132.142 459.242 120.059 474.538 126.668L472.962 130.318C459.153 124.355 452.42 136.826 452.14 137.36L451.851 137.913L451.294 138.203C451.215 138.244 443.222 142.438 440.451 147.667Z" fill="#0E0E10"/>
<path d="M460.309 147.667C457.537 142.438 449.545 138.242 449.465 138.203L448.91 137.913L448.619 137.36C448.339 136.832 441.534 124.387 427.796 130.317L426.22 126.667C441.518 120.061 450.076 132.142 451.811 134.95C453.802 136.056 460.889 140.272 463.822 145.805L460.309 147.667Z" fill="#0E0E10"/>
<path d="M400.602 288.179H396.626V88.268H380.594V54.976H324.148V154.855H278.411V170.77H262.492V188.219H228.976V265.229H225V184.243H258.516V166.794H274.435V150.879H320.172V51H384.569V84.292H400.602V288.179Z" fill="#0E0E10"/>
<path d="M177.584 188.969H173.608V27.2942H144.359V41.883H135.852V62.5424H127.747V81.5875H106.348V75.105H93.3833V22.4323H62.108V91.8329H43.9519V70.8522H33.417V66.5947H15.1066V72.4554H3.91816V189.443H-0.0578613V68.4794H11.1306V62.6187H37.393V66.8762H47.9279V87.8569H58.132V18.4563H97.3593V71.129H110.324V77.6115H123.771V58.5663H131.876V37.907H140.383V23.3182H177.584V188.969Z" fill="#0E0E10"/>
</g>
<defs>
<clipPath id="clip0_228_2863">
<rect width="495" height="179" fill="white"/>
</clipPath>
</defs>
</svg>
