<svg width="291" height="291" viewBox="0 0 291 291" fill="none" xmlns="http://www.w3.org/2000/svg">
<path fill-rule="evenodd" clip-rule="evenodd" d="M288.381 145.5C288.381 224.411 224.411 288.381 145.501 288.381C66.5893 288.381 2.61917 224.411 2.61917 145.5C2.61917 66.5887 66.5893 2.61926 145.501 2.61926C224.411 2.61926 288.381 66.5887 288.381 145.5Z" fill="white"/>
<path fill-rule="evenodd" clip-rule="evenodd" d="M288.381 145.5C288.381 224.411 224.411 288.381 145.501 288.381C66.5893 288.381 2.61917 224.411 2.61917 145.5C2.61917 66.5887 66.5893 2.61926 145.501 2.61926C224.411 2.61926 288.381 66.5887 288.381 145.5Z" stroke="#0E0E10" stroke-width="5"/>
<path fill-rule="evenodd" clip-rule="evenodd" d="M282.742 145.5C282.742 221.297 221.297 282.742 145.5 282.742C69.7035 282.742 8.25823 221.297 8.25823 145.5C8.25823 69.703 69.7035 8.25836 145.5 8.25836C221.297 8.25836 282.742 69.703 282.742 145.5Z" fill="#93FFB7"/>
<mask id="mask0_203_5" style="mask-type:alpha" maskUnits="userSpaceOnUse" x="8" y="8" width="275" height="275">
<path d="M8.25835 145.5C8.25835 221.296 69.7036 282.742 145.5 282.742C221.296 282.742 282.742 221.296 282.742 145.5C282.742 69.7037 221.296 8.25842 145.5 8.25842C69.7036 8.25842 8.25835 69.7037 8.25835 145.5Z" fill="white"/>
</mask>
<g mask="url(#mask0_203_5)">
<path fill-rule="evenodd" clip-rule="evenodd" d="M99.7782 101.79V131.998C99.7782 132.846 100.55 133.534 101.398 133.534C102.245 133.534 103.017 132.846 103.017 131.998V105.185C104.312 106.377 105.277 107.527 106.551 108.624C107.547 109.482 108.846 110.291 109.494 111.077V131.998C109.494 132.846 110.266 133.534 111.113 133.534C111.961 133.534 112.733 132.846 112.733 131.998V113.249C114.676 114.672 117.267 115.947 119.21 117.073V131.998C119.21 132.846 119.981 133.534 120.829 133.534C121.677 133.534 122.449 132.846 122.449 131.998V118.46C125.04 119.376 126.983 120.159 129.574 120.808V131.998C129.574 132.846 130.021 133.534 130.869 133.534C131.717 133.534 132.165 132.846 132.165 131.998V121.597C134.755 122.1 136.699 122.465 139.29 122.713V131.998C139.29 132.846 139.737 133.534 140.585 133.534C141.433 133.534 141.88 132.846 141.88 131.998V122.972C143.176 123.033 144.27 123.02 145.343 123.02H145.526C146.643 123.02 147.71 123.036 149.005 122.974V131.998C149.005 132.846 149.776 133.534 150.625 133.534C151.473 133.534 152.244 132.846 152.244 131.998V122.719C154.187 122.473 156.13 122.11 158.721 121.61V131.998C158.721 132.846 159.492 133.534 160.341 133.534C161.189 133.534 161.96 132.846 161.96 131.998V120.821C163.903 120.174 166.494 119.4 168.437 118.486V131.998C168.437 132.846 169.208 133.534 170.057 133.534C170.905 133.534 171.676 132.846 171.676 131.998V117.096C173.619 115.973 176.21 114.7 178.153 113.28V131.998C178.153 132.846 178.924 133.534 179.772 133.534C180.621 133.534 181.392 132.846 181.392 131.998V111.119C182.039 110.394 183.185 109.649 184.109 108.862C185.463 107.712 186.574 106.505 187.869 105.247V131.998C187.869 132.846 188.64 133.534 189.488 133.534C190.337 133.534 191.108 132.846 191.108 131.998V101.858C194.346 98.1218 196.937 94.0203 198.88 89.6488V134.679H92.0055V89.5374C93.9487 93.9245 96.5396 98.0395 99.7782 101.79ZM92.0055 147.633H198.88V141.804H92.0055V147.633ZM284.863 147.633H220.255V141.804H284.863C286.983 141.804 288.702 140.361 288.702 138.241C288.702 136.121 286.983 134.679 284.863 134.679H220.255V89.5355C222.198 93.4536 224.789 97.156 227.38 100.575V131.998C227.38 132.846 228.151 133.534 229 133.534C229.848 133.534 230.619 132.846 230.619 131.998V104.127C231.914 105.7 233.508 107.208 235.152 108.623C235.831 109.208 236.448 109.775 237.096 110.327V131.998C237.096 132.846 237.867 133.534 238.716 133.534C239.564 133.534 240.335 132.846 240.335 131.998V112.566C242.278 114.05 244.869 115.386 246.812 116.568V131.998C246.812 132.846 247.583 133.534 248.431 133.534C249.28 133.534 250.051 132.846 250.051 131.998V118.024C251.994 118.986 254.585 119.814 256.528 120.507V131.998C256.528 132.846 257.299 133.534 258.147 133.534C258.996 133.534 259.767 132.846 259.767 131.998V121.348C262.358 121.89 264.301 122.309 266.892 122.595V131.998C266.892 132.846 267.339 133.534 268.187 133.534C269.036 133.534 269.483 132.846 269.483 131.998V122.898C270.778 123.002 272.452 123.02 273.859 123.02H274.03C274.817 123.02 275.312 123.05 276.608 123.019V131.998C276.608 132.846 277.054 133.534 277.903 133.534C278.751 133.534 279.198 132.846 279.198 131.998V122.827C281.142 122.655 283.152 122.395 285.02 122.04C285.854 121.882 286.466 121.078 286.308 120.245C286.149 119.412 285.379 118.866 284.545 119.023C281.068 119.683 277.469 120.034 273.851 120.003C260.367 119.963 247.245 115.095 237.025 106.296C229.29 99.6368 223.494 91.0369 220.255 81.4719V62.0091C220.255 61.9961 220.332 61.9844 220.332 61.9715C220.334 59.1267 219.266 56.3544 217.254 54.3413C215.244 52.3294 212.606 51.1221 209.762 51.1221H209.759C206.915 51.1221 204.126 52.3275 202.115 54.3374C200.103 56.3492 198.88 59.1208 198.88 61.9657V81.6391C195.642 91.25 189.904 99.8752 182.085 106.523C173.104 114.161 162.032 118.778 150.365 119.793C150.357 119.793 150.38 119.791 150.373 119.791C150.338 119.791 150.32 119.685 150.286 119.688C148.703 119.822 147.125 119.781 145.526 119.781H145.353C131.866 119.781 118.869 114.983 108.648 106.183C100.916 99.5267 95.2441 91.0415 92.0055 81.4784V62.0207C92.0055 62.0039 91.9478 61.9877 91.9478 61.9708C91.9491 59.126 90.813 56.3544 88.8018 54.3413C86.7913 52.3294 84.087 51.1221 81.2422 51.1221H81.239C78.3954 51.1221 75.7216 52.3275 73.7104 54.3374C71.6986 56.3492 70.5903 59.0723 70.5903 61.9171C70.5903 62.0265 70.6175 62.158 70.6273 62.2656C70.6175 62.3724 70.6305 62.5039 70.6305 62.6134V81.641C67.3919 91.252 61.5209 99.8777 53.7028 106.525C43.4286 115.262 30.3231 120.066 16.8439 120.003C13.3294 119.993 9.82323 119.656 6.43173 119.003C5.59811 118.841 4.79169 119.387 4.63105 120.22C4.47107 121.053 5.08705 121.858 5.92003 122.018C7.79131 122.378 9.74421 122.642 11.6874 122.819V131.998C11.6874 132.846 12.4588 133.534 13.3067 133.534C14.1546 133.534 14.926 132.846 14.926 131.998V123.016C15.5737 123.045 16.0867 123.02 16.8245 123.02H17.0234C18.4697 123.02 20.1078 123.008 21.4033 122.904V131.998C21.4033 132.846 22.1747 133.534 23.0226 133.534C23.8705 133.534 24.6419 132.846 24.6419 131.998V122.605C26.5851 122.32 29.176 121.902 31.1192 121.362V131.998C31.1192 132.846 31.8906 133.534 32.7385 133.534C33.5864 133.534 34.3578 132.846 34.3578 131.998V120.526C36.301 119.835 38.8919 119.009 40.8351 118.049V131.998C40.8351 132.846 41.6065 133.534 42.4544 133.534C43.3023 133.534 44.0737 132.846 44.0737 131.998V116.6C46.6646 115.421 48.6078 114.089 50.551 112.609V131.998C50.551 132.846 51.3224 133.534 52.1703 133.534C53.0182 133.534 53.7896 132.846 53.7896 131.998V110.366C54.4373 109.877 54.9043 109.38 55.51 108.865C57.2355 107.397 58.9714 105.829 60.2669 104.189V131.998C60.2669 132.846 61.0383 133.534 61.8862 133.534C62.7341 133.534 63.5055 132.846 63.5055 131.998V100.642C66.0964 97.2383 68.6873 93.5533 70.6305 89.6521V134.679H6.13637C4.01636 134.679 2.29794 136.121 2.29794 138.241C2.29794 140.361 4.01636 141.804 6.13637 141.804H70.6305V147.633H6.13637C4.01636 147.633 2.29794 149.4 2.29794 151.52C2.29794 153.64 4.01636 155.406 6.13637 155.406H74.4275C76.5475 155.406 78.2659 153.573 78.2659 151.453C78.2659 151.422 78.33 151.334 78.3287 151.302C78.3307 151.259 78.4032 151.159 78.4032 151.114V62.6134C78.4032 62.5039 78.3281 62.3964 78.319 62.2895C78.3281 62.1827 78.3015 62.0751 78.3015 61.9657C78.3015 61.1722 78.5936 60.3761 79.1552 59.8146C79.7162 59.2536 80.4455 58.8948 81.239 58.8948H81.2403C82.0337 58.8948 82.7799 59.2536 83.3415 59.8152C83.8985 60.3729 84.2172 61.1379 84.2211 61.9249C84.2211 61.93 84.2328 61.9605 84.2328 61.9657V138.237C84.2328 138.247 84.2315 138.257 84.2315 138.268C84.2315 138.279 84.2328 138.289 84.2328 138.3V151.023C84.2328 151.071 84.2263 151.117 84.2276 151.165C84.225 151.222 84.2127 151.395 84.2127 151.453C84.2127 153.573 85.9253 155.406 88.0453 155.406H202.944C205.064 155.406 206.783 153.573 206.783 151.453C206.783 151.302 206.705 151.097 206.688 150.951C206.707 150.796 206.653 150.581 206.653 150.42V61.9657C206.653 61.1722 207.029 60.4254 207.591 59.8638C208.152 59.3029 208.932 58.9939 209.725 58.9939H209.743C210.537 58.9939 211.168 59.3035 211.729 59.8651C212.288 60.4234 212.483 61.1651 212.483 61.9534V61.9657V138.168C212.483 138.201 212.477 138.234 212.477 138.268C212.477 138.302 212.483 138.335 212.483 138.368V150.42C212.483 150.571 212.616 150.718 212.633 150.863C212.613 151.019 212.662 151.292 212.662 151.453C212.662 153.573 214.442 155.406 216.562 155.406H284.863C286.983 155.406 288.702 153.64 288.702 151.52C288.702 149.4 286.983 147.633 284.863 147.633Z" fill="#0E0E10"/>
</g>
<path fill-rule="evenodd" clip-rule="evenodd" d="M99.5332 177.342H110.055V180.536H103.178V182.772H109.397V185.796H103.178V190.494H99.5332V177.342Z" fill="#0E0E10"/>
<path fill-rule="evenodd" clip-rule="evenodd" d="M117.755 183.654C118.996 183.654 119.709 183.053 119.709 182.095V182.058C119.709 181.024 118.957 180.498 117.736 180.498H115.35V183.654H117.755ZM111.705 177.342H117.924C119.935 177.342 121.325 177.868 122.208 178.769C122.978 179.521 123.373 180.536 123.373 181.832V181.869C123.373 183.88 122.302 185.214 120.667 185.909L123.805 190.494H119.597L116.947 186.51H115.35V190.494H111.705V177.342Z" fill="#0E0E10"/>
<path fill-rule="evenodd" clip-rule="evenodd" d="M135.206 183.956V183.917C135.206 182.02 133.835 180.367 131.824 180.367C129.833 180.367 128.499 181.982 128.499 183.88V183.917C128.499 185.815 129.87 187.469 131.862 187.469C133.872 187.469 135.206 185.853 135.206 183.956ZM124.76 183.956V183.917C124.76 180.141 127.803 177.079 131.862 177.079C135.921 177.079 138.927 180.104 138.927 183.88V183.917C138.927 187.694 135.882 190.757 131.824 190.757C127.766 190.757 124.76 187.732 124.76 183.956Z" fill="#0E0E10"/>
<path fill-rule="evenodd" clip-rule="evenodd" d="M140.82 177.342H144.221L149.632 184.293V177.342H153.24V190.494H150.046L144.427 183.279V190.494H140.82V177.342Z" fill="#0E0E10"/>
<path fill-rule="evenodd" clip-rule="evenodd" d="M158.778 180.536H154.832V177.341H166.369V180.536H162.423V190.494H158.778V180.536Z" fill="#0E0E10"/>
<path fill-rule="evenodd" clip-rule="evenodd" d="M175.402 177.342H179.046L175.514 190.494H171.87L175.402 177.342Z" fill="#0E0E10"/>
<path fill-rule="evenodd" clip-rule="evenodd" d="M181.413 177.342H184.813L188.214 184.65L190.187 177.342H193.813L190.281 190.494H187.087L183.535 182.922L181.507 190.494H177.881L181.413 177.342Z" fill="#0E0E10"/>
<path fill-rule="evenodd" clip-rule="evenodd" d="M54.4245 203.51H76.8209V211.154H63.3676V214.556H75.8655V221.511H63.3676V230.264H54.4245V203.51Z" fill="#0E0E10"/>
<path fill-rule="evenodd" clip-rule="evenodd" d="M81.7864 203.51H90.7296V222.62H103.304V230.264H81.7864V203.51Z" fill="#0E0E10"/>
<path fill-rule="evenodd" clip-rule="evenodd" d="M126.158 216.963V216.887C126.158 213.714 123.979 210.848 120.539 210.848C117.138 210.848 114.997 213.676 114.997 216.81V216.887C114.997 220.058 117.176 222.925 120.616 222.925C124.017 222.925 126.158 220.097 126.158 216.963ZM105.978 216.963V216.887C105.978 209.128 112.36 202.937 120.616 202.937C128.871 202.937 135.177 209.052 135.177 216.81V216.887C135.177 224.645 128.795 230.837 120.539 230.837C112.284 230.837 105.978 224.722 105.978 216.963Z" fill="#0E0E10"/>
<path fill-rule="evenodd" clip-rule="evenodd" d="M153.29 216.237C155.431 216.237 156.73 215.281 156.73 213.638V213.562C156.73 211.842 155.392 211.001 153.328 211.001H149.429V216.237H153.29ZM140.486 203.51H153.557C158.296 203.51 161.316 204.695 163.188 206.568C164.794 208.173 165.635 210.16 165.635 212.911V212.988C165.635 216.887 163.609 219.6 160.36 221.167L166.59 230.263H156.385L151.34 222.62H149.429V230.263H140.486V203.51Z" fill="#0E0E10"/>
<mask id="mask1_203_5" style="mask-type:alpha" maskUnits="userSpaceOnUse" x="1" y="1" width="289" height="289">
<path d="M1 290H290V1H1V290Z" fill="white"/>
</mask>
<g mask="url(#mask1_203_5)">
<path fill-rule="evenodd" clip-rule="evenodd" d="M170.753 230.264H179.696V203.51H170.753V230.264Z" fill="#0E0E10"/>
<path fill-rule="evenodd" clip-rule="evenodd" d="M197.046 216.619C199.339 216.619 200.868 215.587 200.868 213.676V213.6C200.868 211.651 199.454 210.657 197.085 210.657H194.638V216.619H197.046ZM185.695 203.51H197.734C204.843 203.51 209.697 206.682 209.697 213.027V213.103C209.697 219.562 204.766 223.002 197.544 223.002H194.638V230.263H185.695V203.51Z" fill="#0E0E10"/>
<path fill-rule="evenodd" clip-rule="evenodd" d="M227.925 220.326L225.479 213.83L223.033 220.326H227.925ZM221.122 203.319H229.989L241.264 230.264H231.556L230.142 226.671H220.778L219.402 230.264H209.847L221.122 203.319Z" fill="#0E0E10"/>
<path fill-rule="evenodd" clip-rule="evenodd" d="M215.271 187.417C211.384 187.417 207.962 184.956 206.729 181.259C206.461 180.454 206.896 179.585 207.7 179.316C208.506 179.047 209.374 179.483 209.643 180.287C210.454 182.725 210.983 184.347 215.272 184.347C215.3 184.347 215.328 184.347 215.356 184.347C217.952 184.311 220.202 182.618 220.955 180.133C221.201 179.321 222.058 178.862 222.87 179.108C223.682 179.355 224.14 180.212 223.894 181.023C222.752 184.794 219.337 187.363 215.398 187.417C215.356 187.417 215.313 187.417 215.271 187.417Z" fill="white"/>
<path fill-rule="evenodd" clip-rule="evenodd" d="M229.51 187.417C225.623 187.417 222.201 184.956 220.968 181.259C220.7 180.454 221.135 179.585 221.94 179.316C222.747 179.047 223.613 179.483 223.882 180.287C224.694 182.725 226.95 184.347 229.511 184.347C229.539 184.347 229.567 184.347 229.596 184.347C232.192 184.311 234.441 182.618 235.195 180.133C235.441 179.321 236.297 178.862 237.109 179.108C237.921 179.355 238.379 180.212 238.133 181.023C236.998 184.77 231.842 187.386 229.637 187.417C229.595 187.417 229.552 187.417 229.51 187.417Z" fill="white"/>
<path fill-rule="evenodd" clip-rule="evenodd" d="M63.5081 187.418C59.6211 187.418 56.1992 184.956 54.9659 181.259C54.6984 180.454 55.133 179.585 55.9375 179.316C56.74 179.047 57.6112 179.483 57.8794 180.287C58.6916 182.725 60.9477 184.347 63.5094 184.347C63.5373 184.347 63.5651 184.347 63.593 184.347C66.1897 184.311 68.4399 182.618 69.1932 180.133C69.4387 179.321 70.2976 178.864 71.1079 179.108C71.9195 179.355 72.3781 180.212 72.1319 181.023C70.9894 184.794 67.5745 187.363 63.6351 187.417C63.593 187.418 63.5502 187.418 63.5081 187.418Z" fill="white"/>
<path fill-rule="evenodd" clip-rule="evenodd" d="M77.7477 187.418C73.8607 187.418 70.4381 184.956 69.2055 181.258C68.938 180.454 69.3726 179.585 70.1771 179.316C70.9803 179.048 71.8508 179.483 72.1196 180.288C72.9403 182.751 75.2138 184.386 77.8326 184.347C80.4293 184.311 82.6795 182.618 83.4322 180.133C83.6777 179.321 84.5365 178.864 85.3468 179.108C86.1584 179.355 86.617 180.212 86.3709 181.023C85.2283 184.794 81.8141 187.363 77.8747 187.417C77.8326 187.418 77.7898 187.418 77.7477 187.418Z" fill="white"/>
</g>
</svg>
