<svg width="1955" height="1083" viewBox="0 0 1955 1083" fill="none" xmlns="http://www.w3.org/2000/svg">
<g opacity="0.5">
<path fill-rule="evenodd" clip-rule="evenodd" d="M359.78 477.352H251.068L138.011 593.558H253.919L354.427 694.065H462.517L563.024 593.558H661.069L761.576 694.065H869.667L970.174 593.558H1068.14L1168.65 694.065H1276.74L1377.24 593.558H1475.21L1575.72 694.065H1632.35V681.167H1581.06L1480.55 580.659H1390.14H1389.84L1477.8 490.25H1575.71L1678.45 593.558H1766.07L1680.72 678.914L1693.68 684.188L1797.21 580.659H1683.82L1581.07 477.352H1472.36L1371.85 580.659H1276.75L1174 477.352H1065.29L964.779 580.659H869.677L766.929 477.352H658.217L557.71 580.659H462.527L359.78 477.352ZM575.922 580.659H575.705L663.664 490.25H761.566L864.314 593.558H951.933L864.324 681.167H766.919L666.412 580.659H575.922Z" fill="white"/>
<path fill-rule="evenodd" clip-rule="evenodd" d="M327.737 863.469L138.011 784.792V725.761L327.737 647.084V725.894L240.812 755.398L327.737 784.426V863.469ZM213.368 759.991L200.796 755.554L213.368 750.932L314.687 716.543V666.623L151.061 734.477V776.077L314.687 843.931V793.826L213.368 759.991Z" fill="white"/>
<path fill-rule="evenodd" clip-rule="evenodd" d="M1626.71 863.469L1816.44 784.792V725.761L1626.71 647.084V725.894L1713.64 755.398L1626.71 784.425V863.469ZM1741.08 759.991L1753.65 755.554L1741.08 750.932L1639.76 716.542V666.623L1803.39 734.477V776.076L1639.76 843.93V793.826L1741.08 759.991Z" fill="white"/>
</g>
<path d="M527.369 801.857C527.369 804.691 526.632 807.298 525.159 809.678C523.798 812.058 521.702 814.155 518.868 815.969C515.921 817.782 512.124 819.256 507.477 820.389C502.943 821.409 497.616 821.919 491.495 821.919C486.395 821.919 481.408 821.409 476.534 820.389C471.774 819.369 467.523 817.726 463.783 815.459C460.043 813.305 456.982 810.472 454.602 806.958C452.222 803.331 450.862 799.024 450.522 794.037H405.468C405.468 801.517 407.281 808.998 410.908 816.479C414.648 823.846 420.089 830.42 427.23 836.201C434.37 842.094 443.211 846.855 453.752 850.482C464.406 854.109 476.647 855.922 490.475 855.922C503.057 855.922 514.448 854.562 524.649 851.842C534.849 849.008 543.577 845.098 550.831 840.111C557.972 835.124 563.469 829.23 567.322 822.429C571.29 815.515 573.273 807.978 573.273 799.817C573.273 790.976 571.29 783.382 567.322 777.035C563.469 770.574 558.085 765.077 551.171 760.544C544.257 756.123 536.04 752.496 526.519 749.663C516.998 746.829 506.684 744.505 495.576 742.692C487.868 741.558 481.521 740.255 476.534 738.782C471.547 737.195 467.637 735.438 464.803 733.511C461.856 731.698 459.816 729.657 458.682 727.39C457.549 725.01 456.982 722.46 456.982 719.74C456.982 717.02 457.606 714.469 458.852 712.089C460.213 709.596 462.139 707.442 464.633 705.628C467.353 703.588 470.867 702.001 475.174 700.868C479.481 699.735 484.525 699.168 490.305 699.168C497.106 699.168 502.887 700.018 507.647 701.718C512.521 703.418 516.374 705.685 519.208 708.519C521.248 710.672 522.778 713.109 523.798 715.829C524.819 718.436 525.329 721.27 525.329 724.33H572.593C572.593 715.829 570.723 707.952 566.982 700.698C563.242 693.444 557.858 687.153 550.831 681.826C543.69 676.612 535.019 672.532 524.819 669.585C514.618 666.525 503.113 664.995 490.305 664.995C478.064 664.995 467.07 666.525 457.322 669.585C447.575 672.645 439.301 676.782 432.5 681.996C425.699 687.21 420.486 693.274 416.859 700.188C413.232 707.102 411.418 714.356 411.418 721.95C411.418 729.771 413.175 736.685 416.689 742.692C420.316 748.699 425.303 753.97 431.65 758.503C437.997 763.15 445.591 767.118 454.432 770.404C463.386 773.578 473.247 776.242 484.015 778.395C492.516 779.982 499.543 781.569 505.097 783.156C510.651 784.742 515.128 786.443 518.528 788.256C521.815 790.183 524.082 792.223 525.329 794.377C526.689 796.53 527.369 799.024 527.369 801.857ZM767.567 852.352H815.511V849.462C813.131 844.815 811.318 839.261 810.071 832.8C808.824 826.34 808.201 818.179 808.201 808.318V729.431C808.201 718.776 806.217 709.426 802.25 701.378C798.283 693.217 792.786 686.473 785.759 681.146C778.731 675.819 770.401 671.795 760.766 669.075C751.245 666.355 740.931 664.995 729.824 664.995C717.469 664.995 706.475 666.582 696.84 669.755C687.32 672.815 679.272 677.009 672.698 682.336C666.011 687.663 660.91 693.841 657.397 700.868C653.996 707.895 652.296 715.319 652.296 723.14H699.561C699.561 719.853 700.014 716.85 700.921 714.129C701.941 711.409 703.471 709.085 705.511 707.159C707.778 705.005 710.725 703.362 714.352 702.228C717.979 700.981 722.286 700.358 727.273 700.358C732.94 700.358 737.871 701.095 742.065 702.568C746.372 703.928 749.942 705.912 752.776 708.519C755.496 711.012 757.536 714.016 758.896 717.53C760.256 720.93 760.936 724.784 760.936 729.091V739.972H734.584C720.983 739.972 708.912 741.218 698.371 743.712C687.943 746.092 679.159 749.606 672.018 754.253C664.084 759.353 658.134 765.871 654.167 773.805C650.199 781.626 648.216 790.636 648.216 800.837C648.216 808.771 649.803 816.139 652.976 822.939C656.15 829.627 660.57 835.407 666.238 840.281C671.905 845.155 678.649 848.952 686.469 851.672C694.404 854.392 703.074 855.752 712.482 855.752C718.262 855.752 723.646 855.186 728.633 854.052C733.621 853.032 738.211 851.559 742.405 849.632C746.485 847.818 750.225 845.665 753.626 843.171C757.026 840.678 760.03 838.014 762.637 835.18C763.203 838.467 763.883 841.584 764.677 844.531C765.47 847.478 766.434 850.085 767.567 852.352ZM722.513 819.199C718.092 819.199 714.182 818.689 710.782 817.669C707.495 816.535 704.718 815.062 702.451 813.248C700.184 811.322 698.427 808.998 697.18 806.278C696.047 803.444 695.48 800.384 695.48 797.097C695.48 792.903 696.274 789.05 697.861 785.536C699.447 781.909 701.884 778.792 705.171 776.185C708.458 773.691 712.709 771.765 717.922 770.404C723.136 768.931 729.427 768.194 736.794 768.194H760.936V799.817C759.576 802.197 757.706 804.578 755.326 806.958C752.946 809.225 750.112 811.265 746.825 813.078C743.538 814.892 739.854 816.365 735.774 817.499C731.694 818.632 727.273 819.199 722.513 819.199ZM925.988 668.395H885.354V852.352H928.368V714.639C928.935 713.166 929.558 711.806 930.238 710.559C930.918 709.312 931.712 708.235 932.618 707.329C933.865 706.082 935.282 705.118 936.869 704.438C938.455 703.758 940.269 703.418 942.309 703.418C944.123 703.418 945.823 703.702 947.41 704.268C948.996 704.722 950.413 705.572 951.66 706.819C952.793 708.065 953.7 709.822 954.38 712.089C955.06 714.356 955.4 717.246 955.4 720.76V852.352H997.054V716.68C997.054 715.319 997.054 714.243 997.054 713.449C997.054 712.656 997.054 712.146 997.054 711.919C997.621 710.672 998.301 709.596 999.094 708.689C999.888 707.669 1000.79 706.762 1001.81 705.969C1003.06 705.175 1004.36 704.552 1005.73 704.098C1007.2 703.645 1008.84 703.418 1010.66 703.418C1012.36 703.418 1014 703.702 1015.59 704.268C1017.29 704.722 1018.76 705.572 1020.01 706.819C1021.25 708.179 1022.22 709.992 1022.9 712.259C1023.69 714.526 1024.09 717.416 1024.09 720.93V852.352H1067.1V721.1C1067.1 710.899 1066.08 702.285 1064.04 695.258C1062.11 688.117 1059.39 682.28 1055.88 677.746C1052.25 673.325 1048 670.095 1043.13 668.055C1038.37 666.015 1033.21 664.995 1027.66 664.995C1023.24 664.995 1019.16 665.561 1015.42 666.695C1011.68 667.828 1008.33 669.415 1005.39 671.455C1003 673.042 1000.79 674.969 998.754 677.236C996.828 679.389 995.071 681.826 993.484 684.547C992.464 681.713 991.217 679.219 989.744 677.066C988.383 674.799 986.74 672.872 984.813 671.285C982.32 669.132 979.373 667.545 975.972 666.525C972.572 665.505 968.718 664.995 964.411 664.995C955.57 664.995 948.033 667.318 941.799 671.965C935.679 676.499 930.861 682.733 927.348 690.667L925.988 668.395ZM1141.19 923.079H1188.46V836.371C1190.61 838.751 1192.88 840.904 1195.26 842.831C1197.64 844.758 1200.13 846.515 1202.74 848.102C1207.16 850.595 1211.92 852.465 1217.02 853.712C1222.23 855.072 1227.9 855.752 1234.02 855.752C1245.58 855.752 1255.84 853.372 1264.79 848.612C1273.75 843.851 1281.29 837.277 1287.41 828.89C1293.41 820.616 1297.95 810.755 1301.01 799.307C1304.18 787.859 1305.77 775.448 1305.77 762.074V758.503C1305.77 744.562 1304.18 731.868 1301.01 720.42C1297.95 708.859 1293.36 698.941 1287.24 690.667C1281.12 682.506 1273.58 676.216 1264.62 671.795C1255.67 667.262 1245.36 664.995 1233.68 664.995C1228.01 664.995 1222.69 665.618 1217.7 666.865C1212.83 667.998 1208.35 669.642 1204.27 671.795C1200.87 673.609 1197.7 675.762 1194.75 678.256C1191.8 680.636 1189.08 683.356 1186.59 686.417L1184.89 668.395H1141.19V923.079ZM1258.5 758.503V762.074C1258.5 769.668 1257.82 776.865 1256.46 783.666C1255.1 790.353 1252.95 796.247 1250 801.347C1247.06 806.448 1243.2 810.472 1238.44 813.418C1233.8 816.365 1228.13 817.839 1221.44 817.839C1217.25 817.839 1213.45 817.442 1210.05 816.649C1206.65 815.742 1203.65 814.495 1201.04 812.908C1198.32 811.208 1195.88 809.168 1193.73 806.788C1191.69 804.408 1189.93 801.744 1188.46 798.797V721.95C1190.04 718.776 1191.91 715.999 1194.07 713.619C1196.34 711.239 1198.94 709.255 1201.89 707.669C1204.5 706.309 1207.39 705.288 1210.56 704.608C1213.73 703.815 1217.25 703.418 1221.1 703.418C1227.79 703.418 1233.46 704.835 1238.1 707.669C1242.86 710.502 1246.77 714.356 1249.83 719.23C1252.78 724.217 1254.93 730.111 1256.29 736.911C1257.77 743.599 1258.5 750.796 1258.5 758.503ZM1499.38 852.352H1547.33V849.462C1544.95 844.815 1543.13 839.261 1541.89 832.8C1540.64 826.34 1540.02 818.179 1540.02 808.318V729.431C1540.02 718.776 1538.03 709.426 1534.07 701.378C1530.1 693.217 1524.6 686.473 1517.57 681.146C1510.55 675.819 1502.22 671.795 1492.58 669.075C1483.06 666.355 1472.75 664.995 1461.64 664.995C1449.28 664.995 1438.29 666.582 1428.66 669.755C1419.14 672.815 1411.09 677.009 1404.51 682.336C1397.83 687.663 1392.73 693.841 1389.21 700.868C1385.81 707.895 1384.11 715.319 1384.11 723.14H1431.38C1431.38 719.853 1431.83 716.85 1432.74 714.129C1433.76 711.409 1435.29 709.085 1437.33 707.159C1439.59 705.005 1442.54 703.362 1446.17 702.228C1449.79 700.981 1454.1 700.358 1459.09 700.358C1464.76 700.358 1469.69 701.095 1473.88 702.568C1478.19 703.928 1481.76 705.912 1484.59 708.519C1487.31 711.012 1489.35 714.016 1490.71 717.53C1492.07 720.93 1492.75 724.784 1492.75 729.091V739.972H1466.4C1452.8 739.972 1440.73 741.218 1430.19 743.712C1419.76 746.092 1410.97 749.606 1403.83 754.253C1395.9 759.353 1389.95 765.871 1385.98 773.805C1382.02 781.626 1380.03 790.636 1380.03 800.837C1380.03 808.771 1381.62 816.139 1384.79 822.939C1387.97 829.627 1392.39 835.407 1398.05 840.281C1403.72 845.155 1410.46 848.952 1418.29 851.672C1426.22 854.392 1434.89 855.752 1444.3 855.752C1450.08 855.752 1455.46 855.186 1460.45 854.052C1465.44 853.032 1470.03 851.559 1474.22 849.632C1478.3 847.818 1482.04 845.665 1485.44 843.171C1488.84 840.678 1491.85 838.014 1494.45 835.18C1495.02 838.467 1495.7 841.584 1496.49 844.531C1497.29 847.478 1498.25 850.085 1499.38 852.352ZM1454.33 819.199C1449.91 819.199 1446 818.689 1442.6 817.669C1439.31 816.535 1436.53 815.062 1434.27 813.248C1432 811.322 1430.24 808.998 1429 806.278C1427.86 803.444 1427.3 800.384 1427.3 797.097C1427.3 792.903 1428.09 789.05 1429.68 785.536C1431.26 781.909 1433.7 778.792 1436.99 776.185C1440.27 773.691 1444.52 771.765 1449.74 770.404C1454.95 768.931 1461.24 768.194 1468.61 768.194H1492.75V799.817C1491.39 802.197 1489.52 804.578 1487.14 806.958C1484.76 809.225 1481.93 811.265 1478.64 813.078C1475.35 814.892 1471.67 816.365 1467.59 817.499C1463.51 818.632 1459.09 819.199 1454.33 819.199Z" fill="white"/>
<path d="M161.849 504.035V472.048L187.912 466.802V295.023L161.849 289.776V257.62H361.215V327.517H320.089L318.397 299.254H242.069V362.042H327.028V403.506H242.069V466.802L267.963 472.048V504.035H161.849ZM383.378 504.035V472.048L409.442 466.802V295.023L383.378 289.776V257.451H502.355C521.535 257.451 538.065 260.497 551.942 266.59C565.933 272.57 576.651 281.201 584.098 292.484C591.657 303.654 595.437 316.967 595.437 332.425C595.437 346.867 591.657 360.067 584.098 372.027C576.651 383.874 566.271 393.295 552.958 400.29C539.757 407.286 524.582 410.783 507.432 410.783L463.599 410.445V466.802L489.492 472.048V504.035H383.378ZM540.772 504.035L503.201 402.49L551.265 388.443L584.267 466.802L606.438 472.048V504.035H540.772ZM463.599 368.812H502.186C515.161 368.812 524.977 365.991 531.633 360.35C538.29 354.595 541.619 346.303 541.619 335.471C541.619 324.414 538.234 315.614 531.464 309.07C524.807 302.413 515.104 299.084 502.355 299.084H463.599V368.812ZM746.562 507.589C729.751 507.589 714.35 504.486 700.36 498.281C686.482 492.075 674.466 483.331 664.311 472.048C654.157 460.766 646.315 447.565 640.787 432.446C635.371 417.214 632.663 400.629 632.663 382.689V378.797C632.663 360.97 635.371 344.497 640.787 329.378C646.315 314.26 654.101 301.059 664.142 289.776C674.297 278.493 686.313 269.749 700.19 263.544C714.181 257.225 729.582 254.066 746.393 254.066C763.092 254.066 778.436 257.225 792.427 263.544C806.417 269.749 818.603 278.493 828.983 289.776C839.363 301.059 847.373 314.26 853.015 329.378C858.656 344.497 861.477 360.97 861.477 378.797V382.689C861.477 400.629 858.656 417.214 853.015 432.446C847.373 447.565 839.363 460.766 828.983 472.048C818.715 483.331 806.586 492.075 792.596 498.281C778.605 504.486 763.261 507.589 746.562 507.589ZM746.562 466.125C759.763 466.125 770.877 462.627 779.903 455.632C789.042 448.637 795.924 438.934 800.55 426.523C805.176 413.999 807.489 399.388 807.489 382.689V378.458C807.489 362.098 805.12 347.713 800.381 335.302C795.755 322.891 788.873 313.188 779.734 306.192C770.707 299.197 759.594 295.7 746.393 295.7C732.854 295.7 721.684 299.197 712.883 306.192C704.083 313.075 697.539 322.722 693.252 335.133C688.964 347.431 686.82 361.873 686.82 378.458V382.689C686.82 399.388 688.964 413.999 693.252 426.523C697.652 439.046 704.252 448.806 713.053 455.801C721.966 462.684 733.136 466.125 746.562 466.125ZM886.348 504.035V472.048L912.073 466.802V295.023L886.348 289.776V257.62H912.073H967.246L1070.48 422.292L1071.5 422.122V295.023L1039.51 289.776V257.62H1119.73H1145.63V289.776L1119.73 295.023V504.035H1066.76L961.322 341.902H960.307V466.802L992.462 472.048V504.035H886.348ZM1221.1 504.035V472.048L1247.16 466.802V299.423H1205.53L1203.33 327.517H1162.54V257.62H1386.62V327.517H1345.32L1343.29 299.423H1301.32V466.802L1327.38 472.048V504.035H1221.1ZM1406.58 504.035V472.048L1432.64 466.802V295.023L1406.58 289.776V257.62H1512.53V289.776L1486.63 295.023V466.802L1512.53 472.048V504.035H1406.58ZM1536.04 504.035V472.048L1561.77 466.802V295.023L1536.04 289.776V257.62H1561.77H1616.94L1720.18 422.292L1721.19 422.122V295.023L1689.21 289.776V257.62H1769.43H1795.32V289.776L1769.43 295.023V504.035H1716.45L1611.02 341.902H1610V466.802L1642.16 472.048V504.035H1536.04Z" fill="white"/>
<path d="M162.924 199.048V193.893L170.171 193.009V163.964H162.836V159.044L178.743 156.157V193.009L185.99 193.893V199.048H162.924ZM192.983 199.048V193.422L206.887 178.487C208.301 176.896 209.411 175.511 210.216 174.333C211.021 173.155 211.591 172.084 211.924 171.122C212.278 170.14 212.455 169.168 212.455 168.206C212.455 166.537 211.974 165.123 211.011 163.964C210.069 162.805 208.674 162.226 206.828 162.226C204.845 162.226 203.342 162.874 202.321 164.17C201.3 165.447 200.789 167.214 200.789 169.472H192.423L192.364 169.296C192.305 166.703 192.855 164.376 194.014 162.314C195.192 160.233 196.881 158.583 199.081 157.365C201.3 156.148 203.912 155.539 206.917 155.539C209.862 155.539 212.386 156.069 214.487 157.13C216.608 158.17 218.238 159.634 219.377 161.519C220.516 163.404 221.086 165.584 221.086 168.059C221.086 169.767 220.782 171.377 220.173 172.89C219.564 174.382 218.611 175.963 217.315 177.632C216.019 179.302 214.35 181.216 212.307 183.377L203.971 192.332L204.03 192.479H215.135L215.577 188.385H222.235V199.048H192.983ZM230.996 199.048V191.507H239.568V199.048H230.996ZM247.239 199.048V193.893L251.805 193.009V162.226L247.239 161.342V156.157H280.526V167.734H273.928L273.545 162.786H260.406V173.567H274.929V180.195H260.406V192.45H274.252L274.635 187.324H281.174V199.048H247.239ZM288.786 199.048V193.893L293.411 192.921V162.344L288.786 161.342V156.157H293.411H307.61C311.44 156.157 314.817 157.061 317.744 158.868C320.67 160.655 322.948 163.139 324.578 166.32C326.227 169.482 327.052 173.115 327.052 177.22V178.015C327.052 182.081 326.237 185.704 324.607 188.885C322.997 192.047 320.738 194.531 317.832 196.338C314.925 198.145 311.557 199.048 307.728 199.048H288.786ZM302.013 192.479H307.286C309.662 192.479 311.675 191.861 313.325 190.623C314.975 189.366 316.231 187.648 317.095 185.468C317.979 183.288 318.421 180.804 318.421 178.015V177.19C318.421 174.363 317.979 171.868 317.095 169.708C316.231 167.528 314.975 165.83 313.325 164.612C311.675 163.375 309.662 162.756 307.286 162.756H302.013V192.479ZM333.81 199.048V193.893L338.376 193.009V162.226L333.81 161.342V156.157H351.544V161.342L346.978 162.226V193.009L351.544 193.893V199.048H333.81ZM378.274 199.667C374.11 199.667 370.487 198.803 367.404 197.075C364.321 195.327 361.934 192.862 360.246 189.681C358.576 186.48 357.742 182.699 357.742 178.339V176.896C357.742 172.733 358.547 169.05 360.157 165.849C361.787 162.628 364.105 160.105 367.109 158.278C370.114 156.452 373.688 155.539 377.832 155.539C380.739 155.539 383.458 155.951 385.992 156.776C388.545 157.601 390.823 158.858 392.826 160.547V170.916H386.434L385.55 164.406C384.902 163.934 384.195 163.532 383.429 163.198C382.663 162.864 381.828 162.609 380.925 162.432C380.041 162.255 379.079 162.167 378.038 162.167C375.603 162.167 373.511 162.766 371.764 163.964C370.016 165.162 368.671 166.861 367.728 169.06C366.805 171.24 366.343 173.832 366.343 176.837V178.339C366.343 181.344 366.834 183.946 367.816 186.146C368.798 188.345 370.193 190.054 371.999 191.271C373.806 192.469 375.947 193.068 378.421 193.068C379.658 193.068 380.896 192.931 382.133 192.656C383.39 192.361 384.529 191.988 385.55 191.537L386.434 185.498H392.826V195.749C391.157 196.849 389.075 197.782 386.581 198.548C384.087 199.294 381.318 199.667 378.274 199.667ZM373.885 212.57L373.678 207.856C374.857 207.856 375.79 207.66 376.477 207.267C377.184 206.894 377.537 206.315 377.537 205.529C377.537 204.685 377.194 204.095 376.506 203.762C375.819 203.447 374.729 203.251 373.237 203.172L374.238 198.518H380.572L380.189 200.698C381.504 200.914 382.604 201.405 383.488 202.171C384.372 202.956 384.814 204.115 384.814 205.647C384.814 207.748 383.861 209.427 381.956 210.684C380.051 211.941 377.361 212.57 373.885 212.57ZM399.378 199.048V193.893L402.441 193.451L416.08 156.157H424.888L438.439 193.451L441.503 193.893V199.048H426.891V193.893L429.867 193.363L427.981 187.471H412.899L411.014 193.363L413.989 193.893V199.048H399.378ZM414.931 181.138H425.949L420.941 166.438L420.528 165.142H420.352L419.91 166.527L414.931 181.138ZM413.9 152.947L409.452 151.768C409.452 150.452 409.757 149.235 410.365 148.115C410.994 146.996 411.819 146.093 412.84 145.405C413.861 144.718 414.971 144.374 416.169 144.374C417.111 144.374 418.093 144.61 419.114 145.081C420.136 145.553 421.108 146.034 422.031 146.525C422.973 146.996 423.769 147.232 424.417 147.232C425.222 147.212 425.86 146.908 426.332 146.319C426.823 145.71 427.068 144.944 427.068 144.021L431.516 145.258C431.516 146.613 431.202 147.85 430.574 148.97C429.965 150.069 429.15 150.953 428.129 151.621C427.107 152.269 425.988 152.593 424.77 152.593C423.749 152.593 422.728 152.357 421.707 151.886C420.686 151.415 419.733 150.943 418.849 150.472C417.966 149.981 417.19 149.736 416.522 149.736C415.717 149.736 415.079 150.05 414.607 150.678C414.136 151.307 413.9 152.063 413.9 152.947ZM465.257 199.667C462.371 199.667 459.739 199.127 457.363 198.047C454.986 196.967 452.934 195.454 451.206 193.51C449.497 191.546 448.182 189.249 447.259 186.617C446.336 183.966 445.874 181.069 445.874 177.927V177.279C445.874 174.156 446.336 171.279 447.259 168.648C448.182 165.996 449.497 163.689 451.206 161.725C452.915 159.761 454.957 158.239 457.333 157.159C459.71 156.079 462.341 155.539 465.228 155.539C468.135 155.539 470.786 156.079 473.182 157.159C475.578 158.239 477.64 159.761 479.368 161.725C481.096 163.689 482.422 165.996 483.345 168.648C484.287 171.279 484.759 174.156 484.759 177.279V177.927C484.759 181.069 484.287 183.966 483.345 186.617C482.422 189.249 481.096 191.546 479.368 193.51C477.64 195.454 475.578 196.967 473.182 198.047C470.805 199.127 468.164 199.667 465.257 199.667ZM465.257 192.98C467.693 192.98 469.715 192.352 471.326 191.095C472.936 189.838 474.144 188.08 474.949 185.822C475.774 183.563 476.186 180.932 476.186 177.927V177.22C476.186 174.255 475.774 171.652 474.949 169.414C474.124 167.155 472.897 165.397 471.267 164.141C469.657 162.884 467.644 162.255 465.228 162.255C462.832 162.255 460.839 162.884 459.248 164.141C457.657 165.378 456.459 167.116 455.654 169.355C454.869 171.593 454.476 174.215 454.476 177.22V177.927C454.476 180.932 454.869 183.563 455.654 185.822C456.459 188.08 457.657 189.838 459.248 191.095C460.858 192.352 462.862 192.98 465.257 192.98Z" fill="white"/>
<path d="M1383.29 199.048V193.422L1397.19 178.487C1398.6 176.896 1399.71 175.511 1400.52 174.333C1401.32 173.155 1401.89 172.084 1402.23 171.122C1402.58 170.14 1402.76 169.168 1402.76 168.206C1402.76 166.537 1402.28 165.123 1401.31 163.964C1400.37 162.805 1398.98 162.226 1397.13 162.226C1395.15 162.226 1393.65 162.874 1392.62 164.17C1391.6 165.447 1391.09 167.214 1391.09 169.472H1382.73L1382.67 169.296C1382.61 166.703 1383.16 164.376 1384.32 162.314C1385.5 160.233 1387.18 158.583 1389.38 157.365C1391.6 156.148 1394.21 155.539 1397.22 155.539C1400.17 155.539 1402.69 156.069 1404.79 157.13C1406.91 158.17 1408.54 159.634 1409.68 161.519C1410.82 163.404 1411.39 165.584 1411.39 168.059C1411.39 169.767 1411.08 171.377 1410.48 172.89C1409.87 174.382 1408.91 175.963 1407.62 177.632C1406.32 179.302 1404.65 181.216 1402.61 183.377L1394.27 192.332L1394.33 192.479H1405.44L1405.88 188.385H1412.54V199.048H1383.29ZM1432.26 199.667C1430.76 199.667 1429.22 199.51 1427.63 199.196C1426.06 198.901 1424.61 198.459 1423.27 197.87L1424.24 191.654C1425.48 192.106 1426.75 192.46 1428.04 192.715C1429.36 192.951 1430.65 193.068 1431.9 193.068C1434.4 193.068 1436.36 192.214 1437.79 190.506C1439.23 188.797 1439.97 186.136 1440 182.522L1439.95 181.874C1438.98 183.112 1437.82 184.054 1436.47 184.702C1435.13 185.331 1433.66 185.645 1432.05 185.645C1429.52 185.645 1427.29 185.056 1425.36 183.877C1423.46 182.68 1421.98 180.981 1420.92 178.781C1419.87 176.582 1419.35 173.94 1419.35 170.857C1419.35 167.97 1419.97 165.368 1421.21 163.051C1422.47 160.733 1424.18 158.907 1426.34 157.571C1428.52 156.216 1430.99 155.539 1433.76 155.539C1436.69 155.539 1439.26 156.216 1441.48 157.571C1443.7 158.927 1445.42 160.89 1446.66 163.463C1447.9 166.036 1448.52 169.139 1448.52 172.772V182.081C1448.52 185.773 1447.82 188.934 1446.43 191.566C1445.05 194.198 1443.14 196.211 1440.68 197.605C1438.25 198.98 1435.44 199.667 1432.26 199.667ZM1433.91 179.341C1435.22 179.341 1436.4 179.076 1437.44 178.546C1438.48 177.996 1439.32 177.269 1439.95 176.366V171.77C1439.95 168.608 1439.4 166.222 1438.3 164.612C1437.2 162.982 1435.7 162.167 1433.82 162.167C1432.66 162.167 1431.64 162.56 1430.75 163.345C1429.89 164.111 1429.2 165.162 1428.69 166.497C1428.2 167.813 1427.96 169.266 1427.96 170.857C1427.96 172.585 1428.17 174.088 1428.6 175.364C1429.06 176.641 1429.72 177.623 1430.61 178.31C1431.49 178.997 1432.59 179.341 1433.91 179.341ZM1473.61 199.048V193.893L1478.23 192.921V162.344L1473.61 161.342V156.157H1478.23H1492.43C1496.26 156.157 1499.64 157.061 1502.57 158.868C1505.49 160.655 1507.77 163.139 1509.4 166.32C1511.05 169.482 1511.88 173.115 1511.88 177.22V178.015C1511.88 182.081 1511.06 185.704 1509.43 188.885C1507.82 192.047 1505.56 194.531 1502.66 196.338C1499.75 198.145 1496.38 199.048 1492.55 199.048H1473.61ZM1486.84 192.479H1492.11C1494.49 192.479 1496.5 191.861 1498.15 190.623C1499.8 189.366 1501.06 187.648 1501.92 185.468C1502.8 183.288 1503.24 180.804 1503.24 178.015V177.19C1503.24 174.363 1502.8 171.868 1501.92 169.708C1501.06 167.528 1499.8 165.83 1498.15 164.612C1496.5 163.375 1494.49 162.756 1492.11 162.756H1486.84V192.479ZM1518.63 199.048V193.893L1523.2 193.009V162.226L1518.63 161.342V156.157H1551.92V167.734H1545.32L1544.94 162.786H1531.8V173.567H1546.32V180.195H1531.8V192.45H1545.65L1546.03 187.324H1552.57V199.048H1518.63ZM1592.63 199.667C1589.64 199.667 1587.02 199.166 1584.76 198.165C1582.52 197.143 1580.75 195.592 1579.46 193.51C1578.18 191.429 1577.48 188.787 1577.37 185.586L1577.43 185.409H1585.5C1585.65 188.218 1586.28 190.181 1587.38 191.301C1588.48 192.401 1589.95 192.951 1591.77 192.951C1592.95 192.951 1593.98 192.695 1594.87 192.185C1595.77 191.674 1596.48 190.918 1596.99 189.916C1597.52 188.895 1597.78 187.648 1597.78 186.175V162.226L1592.01 161.342V156.157H1610.95V161.342L1606.35 162.226V186.175C1606.35 188.925 1605.82 191.311 1604.76 193.333C1603.7 195.356 1602.15 196.918 1600.11 198.017C1598.07 199.117 1595.57 199.667 1592.63 199.667ZM1637.62 199.667C1634.22 199.667 1631.23 199.078 1628.64 197.899C1626.06 196.721 1624.06 195.013 1622.63 192.774C1621.19 190.535 1620.48 187.815 1620.48 184.614V162.226L1615.91 161.342V156.157H1633.67V161.342L1629.08 162.226V184.614C1629.08 186.499 1629.42 188.07 1630.11 189.327C1630.8 190.584 1631.78 191.527 1633.05 192.155C1634.33 192.764 1635.85 193.068 1637.62 193.068C1639.43 193.068 1640.97 192.764 1642.25 192.155C1643.54 191.527 1644.53 190.584 1645.22 189.327C1645.91 188.07 1646.25 186.499 1646.25 184.614V162.226L1641.69 161.342V156.157H1659.45V161.342L1654.85 162.226V184.614C1654.85 187.815 1654.13 190.545 1652.67 192.803C1651.24 195.042 1649.23 196.751 1646.63 197.929C1644.06 199.088 1641.06 199.667 1637.62 199.667ZM1665.26 199.048V193.893L1669.83 193.009V162.226L1665.26 161.342V156.157H1669.83H1678.43H1683.62V161.342L1678.43 162.226V192.45H1690.54L1690.95 186.175H1697.52V199.048H1665.26ZM1703.63 199.048V193.893L1708.2 193.009V162.226L1703.63 161.342V156.157H1721.39V161.342L1716.8 162.226V174.598H1734.3V162.226L1729.7 161.342V156.157H1734.3H1742.87H1747.46V161.342L1742.87 162.226V193.009L1747.46 193.893V199.048H1729.7V193.893L1734.3 193.009V181.226H1716.8V193.009L1721.39 193.893V199.048H1703.63ZM1773.43 199.667C1770.54 199.667 1767.91 199.127 1765.53 198.047C1763.16 196.967 1761.1 195.454 1759.38 193.51C1757.67 191.546 1756.35 189.249 1755.43 186.617C1754.51 183.966 1754.04 181.069 1754.04 177.927V177.279C1754.04 174.156 1754.51 171.279 1755.43 168.648C1756.35 165.996 1757.67 163.689 1759.38 161.725C1761.08 159.761 1763.13 158.239 1765.5 157.159C1767.88 156.079 1770.51 155.539 1773.4 155.539C1776.3 155.539 1778.96 156.079 1781.35 157.159C1783.75 158.239 1785.81 159.761 1787.54 161.725C1789.27 163.689 1790.59 165.996 1791.51 168.648C1792.46 171.279 1792.93 174.156 1792.93 177.279V177.927C1792.93 181.069 1792.46 183.966 1791.51 186.617C1790.59 189.249 1789.27 191.546 1787.54 193.51C1785.81 195.454 1783.75 196.967 1781.35 198.047C1778.98 199.127 1776.33 199.667 1773.43 199.667ZM1773.43 192.98C1775.86 192.98 1777.89 192.352 1779.5 191.095C1781.11 189.838 1782.31 188.08 1783.12 185.822C1783.94 183.563 1784.36 180.932 1784.36 177.927V177.22C1784.36 174.255 1783.94 171.652 1783.12 169.414C1782.29 167.155 1781.07 165.397 1779.44 164.141C1777.83 162.884 1775.81 162.255 1773.4 162.255C1771 162.255 1769.01 162.884 1767.42 164.141C1765.83 165.378 1764.63 167.116 1763.82 169.355C1763.04 171.593 1762.65 174.215 1762.65 177.22V177.927C1762.65 180.932 1763.04 183.563 1763.82 185.822C1764.63 188.08 1765.83 189.838 1767.42 191.095C1769.03 192.352 1771.03 192.98 1773.43 192.98Z" fill="white"/>
</svg>
