<?xml version="1.0" encoding="UTF-8"?>
<svg id="Camada_1" data-name="Camada 1" xmlns="http://www.w3.org/2000/svg" viewBox="0 0 1678.43 669.01">
  <defs>
    <style>
      .cls-1 {
        fill: #ff685c;
        fill-rule: evenodd;
      }

      .cls-1, .cls-2 {
        stroke-width: 0px;
      }

      .cls-2 {
        fill: #fff;
      }
    </style>
  </defs>
  <path class="cls-1" d="M221.77,223.29h-108.71L0,339.49h115.91l100.51,100.51h108.09l100.51-100.51h98.04l100.51,100.51h108.09l100.51-100.51h97.97l100.51,100.51h108.09l100.5-100.51h97.97l100.51,100.51h56.63v-12.9h-51.29l-100.51-100.51h-90.71l87.96-90.41h97.91l102.74,103.31h87.62l-85.35,85.36,12.96,5.27,103.53-103.53h-113.39l-102.75-103.31h-108.71l-100.51,103.31h-95.1l-102.75-103.31h-108.71l-100.51,103.31h-95.1l-102.75-103.31h-108.71l-100.51,103.31h-95.18l-102.75-103.31ZM437.91,326.59h-.22l87.96-90.41h97.9l102.75,103.31h87.62l-87.61,87.61h-97.4l-100.51-100.51h-90.49Z"/>
  <path class="cls-1" d="M189.73,609.4L0,530.73v-59.03l189.73-78.68v78.81l-86.93,29.5,86.93,29.03v79.04ZM75.36,505.92l-12.57-4.44,12.57-4.62,101.32-34.39v-49.92L13.05,480.41v41.6l163.63,67.85v-50.1l-101.32-33.83Z"/>
  <path class="cls-1" d="M1488.7,609.4l189.73-78.68v-59.03l-189.73-78.68v78.81l86.93,29.5-86.93,29.03v79.04ZM1603.07,505.92l12.57-4.44-12.57-4.62-101.32-34.39v-49.92l163.63,67.85v41.6l-163.63,67.85v-50.1l101.32-33.83Z"/>
  <path class="cls-2" d="M389.36,547.79c0,2.83-.74,5.44-2.21,7.82-1.36,2.38-3.46,4.48-6.29,6.29-2.95,1.81-6.74,3.29-11.39,4.42-4.53,1.02-9.86,1.53-15.98,1.53-5.1,0-10.09-.51-14.96-1.53-4.76-1.02-9.01-2.66-12.75-4.93-3.74-2.15-6.8-4.99-9.18-8.5-2.38-3.63-3.74-7.93-4.08-12.92h-45.05c0,7.48,1.81,14.96,5.44,22.44,3.74,7.37,9.18,13.94,16.32,19.72,7.14,5.89,15.98,10.65,26.52,14.28,10.65,3.63,22.89,5.44,36.72,5.44,12.58,0,23.97-1.36,34.17-4.08,10.2-2.83,18.93-6.74,26.18-11.73,7.14-4.99,12.64-10.88,16.49-17.68,3.97-6.91,5.95-14.45,5.95-22.61,0-8.84-1.98-16.43-5.95-22.78-3.85-6.46-9.24-11.96-16.15-16.49-6.91-4.42-15.13-8.05-24.65-10.88s-19.83-5.16-30.94-6.97c-7.71-1.13-14.05-2.44-19.04-3.91-4.99-1.59-8.9-3.34-11.73-5.27-2.95-1.81-4.99-3.85-6.12-6.12-1.13-2.38-1.7-4.93-1.7-7.65s.62-5.27,1.87-7.65c1.36-2.49,3.29-4.65,5.78-6.46,2.72-2.04,6.23-3.63,10.54-4.76,4.31-1.13,9.35-1.7,15.13-1.7,6.8,0,12.58.85,17.34,2.55,4.87,1.7,8.73,3.97,11.56,6.8,2.04,2.15,3.57,4.59,4.59,7.31,1.02,2.61,1.53,5.44,1.53,8.5h47.26c0-8.5-1.87-16.38-5.61-23.63-3.74-7.25-9.12-13.54-16.15-18.87-7.14-5.21-15.81-9.29-26.01-12.24-10.2-3.06-21.71-4.59-34.51-4.59s-23.23,1.53-32.98,4.59c-9.75,3.06-18.02,7.2-24.82,12.41s-12.01,11.28-15.64,18.19c-3.63,6.91-5.44,14.17-5.44,21.76s1.76,14.73,5.27,20.74c3.63,6.01,8.61,11.28,14.96,15.81,6.35,4.65,13.94,8.61,22.78,11.9,8.95,3.17,18.82,5.84,29.58,7.99,8.5,1.59,15.53,3.17,21.08,4.76,5.55,1.59,10.03,3.29,13.43,5.1,3.29,1.93,5.55,3.97,6.8,6.12,1.36,2.15,2.04,4.65,2.04,7.48ZM629.56,598.29h47.94v-2.89c-2.38-4.65-4.19-10.2-5.44-16.66-1.25-6.46-1.87-14.62-1.87-24.48v-78.89c0-10.65-1.98-20.01-5.95-28.05-3.97-8.16-9.46-14.91-16.49-20.23-7.03-5.33-15.36-9.35-24.99-12.07-9.52-2.72-19.83-4.08-30.94-4.08-12.35,0-23.35,1.59-32.98,4.76-9.52,3.06-17.57,7.25-24.14,12.58-6.69,5.33-11.79,11.5-15.3,18.53-3.4,7.03-5.1,14.45-5.1,22.27h47.26c0-3.29.45-6.29,1.36-9.01,1.02-2.72,2.55-5.04,4.59-6.97,2.27-2.15,5.21-3.8,8.84-4.93,3.63-1.25,7.93-1.87,12.92-1.87,5.67,0,10.6.74,14.79,2.21,4.31,1.36,7.88,3.34,10.71,5.95,2.72,2.49,4.76,5.5,6.12,9.01,1.36,3.4,2.04,7.25,2.04,11.56v10.88h-26.35c-13.6,0-25.67,1.25-36.21,3.74-10.43,2.38-19.21,5.89-26.35,10.54-7.93,5.1-13.88,11.62-17.85,19.55-3.97,7.82-5.95,16.83-5.95,27.03,0,7.93,1.59,15.3,4.76,22.1,3.17,6.69,7.59,12.47,13.26,17.34,5.67,4.87,12.41,8.67,20.23,11.39,7.93,2.72,16.6,4.08,26.01,4.08,5.78,0,11.16-.57,16.15-1.7,4.99-1.02,9.58-2.49,13.77-4.42,4.08-1.81,7.82-3.97,11.22-6.46,3.4-2.49,6.4-5.16,9.01-7.99.57,3.29,1.25,6.4,2.04,9.35.79,2.95,1.76,5.55,2.89,7.82ZM584.5,565.13c-4.42,0-8.33-.51-11.73-1.53-3.29-1.13-6.06-2.61-8.33-4.42-2.27-1.93-4.02-4.25-5.27-6.97-1.13-2.83-1.7-5.89-1.7-9.18,0-4.19.79-8.05,2.38-11.56,1.59-3.63,4.02-6.74,7.31-9.35,3.29-2.49,7.54-4.42,12.75-5.78,5.21-1.47,11.51-2.21,18.87-2.21h24.14v31.62c-1.36,2.38-3.23,4.76-5.61,7.14-2.38,2.27-5.21,4.31-8.5,6.12-3.29,1.81-6.97,3.29-11.05,4.42-4.08,1.13-8.5,1.7-13.26,1.7ZM787.98,414.33h-40.63v183.96h43.01v-137.71c.57-1.47,1.19-2.83,1.87-4.08.68-1.25,1.47-2.32,2.38-3.23,1.25-1.25,2.66-2.21,4.25-2.89,1.59-.68,3.4-1.02,5.44-1.02,1.81,0,3.51.28,5.1.85,1.59.45,3,1.3,4.25,2.55,1.13,1.25,2.04,3,2.72,5.27.68,2.27,1.02,5.16,1.02,8.67v131.59h41.65v-140.43c.57-1.25,1.25-2.32,2.04-3.23.79-1.02,1.7-1.93,2.72-2.72,1.25-.79,2.55-1.42,3.92-1.87,1.47-.45,3.11-.68,4.93-.68,1.7,0,3.34.28,4.93.85,1.7.45,3.17,1.3,4.42,2.55,1.24,1.36,2.21,3.17,2.89,5.44.79,2.27,1.19,5.16,1.19,8.67v131.42h43.01v-131.25c0-10.2-1.02-18.82-3.06-25.84-1.93-7.14-4.65-12.98-8.16-17.51-3.63-4.42-7.88-7.65-12.75-9.69-4.76-2.04-9.92-3.06-15.47-3.06-4.42,0-8.5.57-12.24,1.7-3.74,1.13-7.09,2.72-10.03,4.76-2.39,1.59-4.6,3.51-6.64,5.78-1.93,2.15-3.68,4.59-5.27,7.31-1.02-2.83-2.27-5.33-3.74-7.48-1.36-2.27-3-4.19-4.93-5.78-2.49-2.15-5.44-3.74-8.84-4.76-3.4-1.02-7.25-1.53-11.56-1.53-8.84,0-16.38,2.32-22.61,6.97-6.12,4.53-10.94,10.77-14.45,18.7l-1.36-22.27ZM1003.18,669.01h47.27v-86.71c2.15,2.38,4.42,4.53,6.8,6.46,2.38,1.93,4.87,3.68,7.48,5.27,4.42,2.49,9.18,4.36,14.28,5.61,5.21,1.36,10.88,2.04,17,2.04,11.56,0,21.82-2.38,30.77-7.14,8.96-4.76,16.5-11.33,22.62-19.72,6-8.27,10.54-18.14,13.6-29.58,3.17-11.45,4.76-23.86,4.76-37.23v-3.57c0-13.94-1.59-26.64-4.76-38.08-3.06-11.56-7.65-21.48-13.77-29.75-6.12-8.16-13.66-14.45-22.62-18.87-8.95-4.53-19.26-6.8-30.94-6.8-5.67,0-10.99.62-15.98,1.87-4.87,1.13-9.35,2.78-13.43,4.93-3.4,1.81-6.57,3.97-9.52,6.46-2.95,2.38-5.67,5.1-8.16,8.16l-1.7-18.02h-43.7v254.68ZM1120.49,504.44v3.57c0,7.59-.68,14.79-2.04,21.59-1.36,6.69-3.51,12.58-6.46,17.68-2.94,5.1-6.8,9.12-11.56,12.07-4.64,2.95-10.31,4.42-17,4.42-4.19,0-7.99-.4-11.39-1.19-3.4-.91-6.4-2.15-9.01-3.74-2.72-1.7-5.16-3.74-7.31-6.12-2.04-2.38-3.8-5.04-5.27-7.99v-76.85c1.58-3.17,3.45-5.95,5.61-8.33,2.27-2.38,4.87-4.36,7.82-5.95,2.61-1.36,5.5-2.38,8.67-3.06,3.17-.79,6.69-1.19,10.54-1.19,6.69,0,12.36,1.42,17,4.25,4.76,2.83,8.67,6.69,11.73,11.56,2.95,4.99,5.1,10.88,6.46,17.68,1.48,6.69,2.21,13.88,2.21,21.59ZM1361.37,598.29h47.95v-2.89c-2.38-4.65-4.2-10.2-5.44-16.66-1.25-6.46-1.87-14.62-1.87-24.48v-78.89c0-10.65-1.99-20.01-5.95-28.05-3.97-8.16-9.47-14.91-16.5-20.23-7.02-5.33-15.35-9.35-24.99-12.07-9.52-2.72-19.83-4.08-30.94-4.08-12.36,0-23.35,1.59-32.98,4.76-9.52,3.06-17.57,7.25-24.15,12.58-6.68,5.33-11.78,11.5-15.3,18.53-3.4,7.03-5.1,14.45-5.1,22.27h47.27c0-3.29.45-6.29,1.36-9.01,1.02-2.72,2.55-5.04,4.59-6.97,2.26-2.15,5.21-3.8,8.84-4.93,3.62-1.25,7.93-1.87,12.92-1.87,5.67,0,10.6.74,14.79,2.21,4.31,1.36,7.88,3.34,10.71,5.95,2.72,2.49,4.76,5.5,6.12,9.01,1.36,3.4,2.04,7.25,2.04,11.56v10.88h-26.35c-13.6,0-25.67,1.25-36.21,3.74-10.43,2.38-19.22,5.89-26.36,10.54-7.93,5.1-13.88,11.62-17.85,19.55-3.96,7.82-5.95,16.83-5.95,27.03,0,7.93,1.59,15.3,4.76,22.1,3.18,6.69,7.6,12.47,13.26,17.34,5.67,4.87,12.41,8.67,20.24,11.39,7.93,2.72,16.6,4.08,26.01,4.08,5.78,0,11.16-.57,16.15-1.7,4.99-1.02,9.58-2.49,13.77-4.42,4.08-1.81,7.82-3.97,11.22-6.46,3.4-2.49,6.41-5.16,9.01-7.99.57,3.29,1.25,6.4,2.04,9.35.8,2.95,1.76,5.55,2.89,7.82ZM1316.32,565.13c-4.42,0-8.33-.51-11.73-1.53-3.29-1.13-6.07-2.61-8.33-4.42-2.27-1.93-4.03-4.25-5.27-6.97-1.14-2.83-1.7-5.89-1.7-9.18,0-4.19.79-8.05,2.38-11.56,1.58-3.63,4.02-6.74,7.31-9.35,3.28-2.49,7.53-4.42,12.75-5.78,5.21-1.47,11.5-2.21,18.87-2.21h24.14v31.62c-1.36,2.38-3.23,4.76-5.61,7.14-2.38,2.27-5.21,4.31-8.5,6.12-3.29,1.81-6.97,3.29-11.05,4.42-4.08,1.13-8.5,1.7-13.26,1.7Z"/>
  <path class="cls-2" d="M23.84,249.97v-31.99l26.06-5.25V40.96l-26.06-5.25V3.55h199.37v69.9h-41.13l-1.69-28.26h-76.33v62.79h84.96v41.46h-84.96v63.3l25.89,5.25v31.99H23.84ZM245.37,249.97v-31.99l26.06-5.25V40.96l-26.06-5.25V3.39h118.98c19.18,0,35.71,3.05,49.59,9.14,13.99,5.98,24.71,14.61,32.16,25.89,7.56,11.17,11.34,24.48,11.34,39.94,0,14.44-3.78,27.64-11.34,39.6-7.45,11.85-17.83,21.27-31.14,28.26-13.2,6.99-28.38,10.49-45.53,10.49l-43.83-.34v56.36l25.89,5.25v31.99h-106.11ZM402.76,249.97l-37.57-101.54,48.06-14.05,33,78.36,22.17,5.25v31.99h-65.67ZM325.59,114.74h38.59c12.98,0,22.79-2.82,29.45-8.46,6.66-5.75,9.99-14.05,9.99-24.88s-3.39-19.86-10.16-26.4c-6.66-6.66-16.36-9.98-29.11-9.98h-38.76v69.73ZM608.55,253.52c-16.81,0-32.21-3.1-46.2-9.31-13.88-6.2-25.89-14.95-36.05-26.23-10.15-11.28-18-24.48-23.52-39.6-5.42-15.23-8.12-31.82-8.12-49.76v-3.89c0-17.83,2.71-34.3,8.12-49.42,5.53-15.12,13.31-28.32,23.36-39.6,10.15-11.28,22.17-20.03,36.05-26.23,13.99-6.32,29.39-9.48,46.2-9.48s32.04,3.16,46.03,9.48c13.99,6.21,26.18,14.95,36.56,26.23,10.38,11.28,18.39,24.48,24.03,39.6,5.64,15.12,8.46,31.59,8.46,49.42v3.89c0,17.94-2.82,34.52-8.46,49.76-5.64,15.12-13.65,28.32-24.03,39.6-10.27,11.28-22.4,20.03-36.39,26.23-13.99,6.21-29.34,9.31-46.03,9.31ZM608.55,212.06c13.2,0,24.32-3.5,33.34-10.49,9.14-7,16.02-16.7,20.65-29.11,4.63-12.52,6.94-27.13,6.94-43.83v-4.23c0-16.36-2.37-30.75-7.11-43.16-4.63-12.41-11.51-22.11-20.65-29.11-9.03-6.99-20.14-10.49-33.34-10.49s-24.71,3.5-33.51,10.49c-8.8,6.88-15.34,16.53-19.63,28.94-4.29,12.3-6.43,26.74-6.43,43.33v4.23c0,16.7,2.14,31.31,6.43,43.83,4.4,12.52,11,22.28,19.8,29.28,8.91,6.88,20.08,10.32,33.51,10.32ZM748.34,249.97v-31.99l25.72-5.25V40.96l-25.72-5.25V3.55h80.9l103.23,164.67,1.02-.17V40.96l-31.99-5.25V3.55h106.12v32.16l-25.9,5.25v209.01h-52.97l-105.44-162.13h-1.02v124.9l32.15,5.25v31.99h-106.11ZM1083.09,249.97v-31.99l26.06-5.25V45.36h-41.63l-2.2,28.09h-40.79V3.55h224.08v69.9h-41.3l-2.03-28.09h-41.97v167.38l26.06,5.25v31.99h-106.28ZM1268.57,249.97v-31.99l26.06-5.25V40.96l-26.06-5.25V3.55h105.95v32.16l-25.9,5.25v171.78l25.9,5.25v31.99h-105.95ZM1398.03,249.97v-31.99l25.73-5.25V40.96l-25.73-5.25V3.55h80.9l103.24,164.67,1.01-.17V40.96l-31.98-5.25V3.55h106.11v32.16l-25.89,5.25v209.01h-52.98l-105.43-162.13h-1.02v124.9l32.16,5.25v31.99h-106.12Z"/>
</svg>