<svg width="1955" height="1083" viewBox="0 0 1955 1083" fill="none" xmlns="http://www.w3.org/2000/svg">
<path fill-rule="evenodd" clip-rule="evenodd" d="M359.78 477.708H251.068L138.011 593.913H253.919L354.427 694.421H462.517L563.024 593.913H661.069L761.576 694.421H869.667L970.174 593.913H1068.14L1168.65 694.421H1276.74L1377.24 593.913H1475.21L1575.72 694.421H1632.35V681.522H1581.06L1480.55 581.015H1390.14H1389.84L1477.8 490.606H1575.71L1678.45 593.913H1766.07L1680.72 679.27L1693.68 684.543L1797.21 581.015H1683.82L1581.07 477.708H1472.36L1371.85 581.015H1276.75L1174 477.708H1065.29L964.779 581.015H869.677L766.929 477.708H658.217L557.71 581.015H462.527L359.78 477.708ZM575.922 581.015H575.705L663.664 490.606H761.566L864.314 593.913H951.933L864.324 681.522H766.919L666.412 581.015H575.922Z" fill="#FF685C"/>
<path fill-rule="evenodd" clip-rule="evenodd" d="M327.737 863.825L138.011 785.148V726.117L327.737 647.439V726.25L240.812 755.753L327.737 784.781V863.825ZM213.368 760.347L200.796 755.909L213.368 751.287L314.687 716.898V666.978L151.061 734.832V776.432L314.687 844.286V794.181L213.368 760.347Z" fill="#FF685C"/>
<path fill-rule="evenodd" clip-rule="evenodd" d="M1626.71 863.825L1816.44 785.148V726.116L1626.71 647.439V726.25L1713.64 755.753L1626.71 784.781V863.825ZM1741.08 760.347L1753.65 755.909L1741.08 751.287L1639.76 716.898V666.978L1803.39 734.832V776.432L1639.76 844.286V794.181L1741.08 760.347Z" fill="#FF685C"/>
<path d="M527.369 802.213C527.369 805.046 526.632 807.653 525.159 810.034C523.798 812.414 521.702 814.511 518.868 816.324C515.921 818.138 512.124 819.611 507.477 820.745C502.943 821.765 497.616 822.275 491.495 822.275C486.395 822.275 481.408 821.765 476.534 820.745C471.774 819.724 467.523 818.081 463.783 815.814C460.043 813.661 456.982 810.827 454.602 807.313C452.222 803.686 450.862 799.379 450.522 794.392H405.468C405.468 801.873 407.281 809.354 410.908 816.834C414.648 824.202 420.089 830.775 427.23 836.556C434.37 842.45 443.211 847.21 453.752 850.837C464.406 854.464 476.647 856.278 490.475 856.278C503.057 856.278 514.448 854.918 524.649 852.197C534.849 849.364 543.577 845.454 550.831 840.466C557.972 835.479 563.469 829.585 567.322 822.785C571.29 815.871 573.273 808.333 573.273 800.173C573.273 791.332 571.29 783.738 567.322 777.391C563.469 770.93 558.085 765.433 551.171 760.899C544.257 756.479 536.04 752.852 526.519 750.018C516.998 747.184 506.684 744.861 495.576 743.047C487.868 741.914 481.521 740.61 476.534 739.137C471.547 737.55 467.637 735.793 464.803 733.867C461.856 732.053 459.816 730.013 458.682 727.746C457.549 725.366 456.982 722.816 456.982 720.095C456.982 717.375 457.606 714.825 458.852 712.445C460.213 709.951 462.139 707.797 464.633 705.984C467.353 703.944 470.867 702.357 475.174 701.224C479.481 700.09 484.525 699.523 490.305 699.523C497.106 699.523 502.887 700.373 507.647 702.074C512.521 703.774 516.374 706.041 519.208 708.874C521.248 711.028 522.778 713.465 523.798 716.185C524.819 718.792 525.329 721.625 525.329 724.686H572.593C572.593 716.185 570.723 708.307 566.982 701.053C563.242 693.799 557.858 687.509 550.831 682.182C543.69 676.968 535.019 672.888 524.819 669.941C514.618 666.88 503.113 665.35 490.305 665.35C478.064 665.35 467.07 666.88 457.322 669.941C447.575 673.001 439.301 677.138 432.5 682.352C425.699 687.566 420.486 693.629 416.859 700.543C413.232 707.457 411.418 714.711 411.418 722.305C411.418 730.126 413.175 737.04 416.689 743.047C420.316 749.055 425.303 754.325 431.65 758.859C437.997 763.506 445.591 767.473 454.432 770.76C463.386 773.934 473.247 776.597 484.015 778.751C492.516 780.337 499.543 781.924 505.097 783.511C510.651 785.098 515.128 786.798 518.528 788.612C521.815 790.538 524.082 792.579 525.329 794.732C526.689 796.886 527.369 799.379 527.369 802.213ZM767.567 852.708H815.511V849.817C813.131 845.17 811.318 839.616 810.071 833.156C808.824 826.695 808.201 818.534 808.201 808.673V729.786C808.201 719.132 806.217 709.781 802.25 701.734C798.283 693.573 792.786 686.829 785.759 681.502C778.731 676.175 770.401 672.151 760.766 669.431C751.245 666.71 740.931 665.35 729.824 665.35C717.469 665.35 706.475 666.937 696.84 670.111C687.32 673.171 679.272 677.365 672.698 682.692C666.011 688.019 660.91 694.196 657.397 701.224C653.996 708.251 652.296 715.675 652.296 723.496H699.561C699.561 720.209 700.014 717.205 700.921 714.485C701.941 711.764 703.471 709.441 705.511 707.514C707.778 705.361 710.725 703.717 714.352 702.584C717.979 701.337 722.286 700.713 727.273 700.713C732.94 700.713 737.871 701.45 742.065 702.924C746.372 704.284 749.942 706.267 752.776 708.874C755.496 711.368 757.536 714.371 758.896 717.885C760.256 721.285 760.936 725.139 760.936 729.446V740.327H734.584C720.983 740.327 708.912 741.574 698.371 744.067C687.943 746.448 679.159 749.961 672.018 754.608C664.084 759.709 658.134 766.226 654.167 774.16C650.199 781.981 648.216 790.992 648.216 801.193C648.216 809.127 649.803 816.494 652.976 823.295C656.15 829.982 660.57 835.763 666.238 840.636C671.905 845.51 678.649 849.307 686.469 852.027C694.404 854.748 703.074 856.108 712.482 856.108C718.262 856.108 723.646 855.541 728.633 854.408C733.621 853.388 738.211 851.914 742.405 849.987C746.485 848.174 750.225 846.02 753.626 843.527C757.026 841.033 760.03 838.37 762.637 835.536C763.203 838.823 763.883 841.94 764.677 844.887C765.47 847.834 766.434 850.441 767.567 852.708ZM722.513 819.554C718.092 819.554 714.182 819.044 710.782 818.024C707.495 816.891 704.718 815.417 702.451 813.604C700.184 811.677 698.427 809.354 697.18 806.633C696.047 803.8 695.48 800.739 695.48 797.452C695.48 793.259 696.274 789.405 697.861 785.891C699.447 782.264 701.884 779.147 705.171 776.54C708.458 774.047 712.709 772.12 717.922 770.76C723.136 769.286 729.427 768.55 736.794 768.55H760.936V800.173C759.576 802.553 757.706 804.933 755.326 807.313C752.946 809.58 750.112 811.62 746.825 813.434C743.538 815.247 739.854 816.721 735.774 817.854C731.694 818.988 727.273 819.554 722.513 819.554ZM925.988 668.751H885.354V852.708H928.368V714.995C928.935 713.521 929.558 712.161 930.238 710.914C930.918 709.668 931.712 708.591 932.618 707.684C933.865 706.437 935.282 705.474 936.869 704.794C938.455 704.114 940.269 703.774 942.309 703.774C944.123 703.774 945.823 704.057 947.41 704.624C948.996 705.077 950.413 705.927 951.66 707.174C952.793 708.421 953.7 710.178 954.38 712.445C955.06 714.711 955.4 717.602 955.4 721.115V852.708H997.054V717.035C997.054 715.675 997.054 714.598 997.054 713.805C997.054 713.011 997.054 712.501 997.054 712.275C997.621 711.028 998.301 709.951 999.094 709.044C999.888 708.024 1000.79 707.117 1001.81 706.324C1003.06 705.531 1004.36 704.907 1005.73 704.454C1007.2 704 1008.84 703.774 1010.66 703.774C1012.36 703.774 1014 704.057 1015.59 704.624C1017.29 705.077 1018.76 705.927 1020.01 707.174C1021.25 708.534 1022.22 710.348 1022.9 712.615C1023.69 714.881 1024.09 717.772 1024.09 721.285V852.708H1067.1V721.455C1067.1 711.254 1066.08 702.64 1064.04 695.613C1062.11 688.472 1059.39 682.635 1055.88 678.101C1052.25 673.681 1048 670.451 1043.13 668.41C1038.37 666.37 1033.21 665.35 1027.66 665.35C1023.24 665.35 1019.16 665.917 1015.42 667.05C1011.68 668.184 1008.33 669.771 1005.39 671.811C1003 673.398 1000.79 675.324 998.754 677.591C996.828 679.745 995.071 682.182 993.484 684.902C992.464 682.068 991.217 679.575 989.744 677.421C988.383 675.154 986.74 673.228 984.813 671.641C982.32 669.487 979.373 667.9 975.972 666.88C972.572 665.86 968.718 665.35 964.411 665.35C955.57 665.35 948.033 667.674 941.799 672.321C935.679 676.855 930.861 683.089 927.348 691.023L925.988 668.751ZM1141.19 923.434H1188.46V836.726C1190.61 839.106 1192.88 841.26 1195.26 843.187C1197.64 845.113 1200.13 846.87 1202.74 848.457C1207.16 850.951 1211.92 852.821 1217.02 854.068C1222.23 855.428 1227.9 856.108 1234.02 856.108C1245.58 856.108 1255.84 853.728 1264.79 848.967C1273.75 844.207 1281.29 837.633 1287.41 829.245C1293.41 820.971 1297.95 811.11 1301.01 799.663C1304.18 788.215 1305.77 775.804 1305.77 762.429V758.859C1305.77 744.918 1304.18 732.223 1301.01 720.775C1297.95 709.214 1293.36 699.297 1287.24 691.023C1281.12 682.862 1273.58 676.571 1264.62 672.151C1255.67 667.617 1245.36 665.35 1233.68 665.35C1228.01 665.35 1222.69 665.974 1217.7 667.22C1212.83 668.354 1208.35 669.997 1204.27 672.151C1200.87 673.964 1197.7 676.118 1194.75 678.611C1191.8 680.992 1189.08 683.712 1186.59 686.772L1184.89 668.751H1141.19V923.434ZM1258.5 758.859V762.429C1258.5 770.023 1257.82 777.221 1256.46 784.021C1255.1 790.708 1252.95 796.602 1250 801.703C1247.06 806.803 1243.2 810.827 1238.44 813.774C1233.8 816.721 1228.13 818.194 1221.44 818.194C1217.25 818.194 1213.45 817.798 1210.05 817.004C1206.65 816.097 1203.65 814.851 1201.04 813.264C1198.32 811.564 1195.88 809.524 1193.73 807.143C1191.69 804.763 1189.93 802.1 1188.46 799.153V722.305C1190.04 719.132 1191.91 716.355 1194.07 713.975C1196.34 711.594 1198.94 709.611 1201.89 708.024C1204.5 706.664 1207.39 705.644 1210.56 704.964C1213.73 704.17 1217.25 703.774 1221.1 703.774C1227.79 703.774 1233.46 705.191 1238.1 708.024C1242.86 710.858 1246.77 714.711 1249.83 719.585C1252.78 724.572 1254.93 730.466 1256.29 737.267C1257.77 743.954 1258.5 751.151 1258.5 758.859ZM1499.38 852.708H1547.33V849.817C1544.95 845.17 1543.13 839.616 1541.89 833.156C1540.64 826.695 1540.02 818.534 1540.02 808.673V729.786C1540.02 719.132 1538.03 709.781 1534.07 701.734C1530.1 693.573 1524.6 686.829 1517.57 681.502C1510.55 676.175 1502.22 672.151 1492.58 669.431C1483.06 666.71 1472.75 665.35 1461.64 665.35C1449.28 665.35 1438.29 666.937 1428.66 670.111C1419.14 673.171 1411.09 677.365 1404.51 682.692C1397.83 688.019 1392.73 694.196 1389.21 701.224C1385.81 708.251 1384.11 715.675 1384.11 723.496H1431.38C1431.38 720.209 1431.83 717.205 1432.74 714.485C1433.76 711.764 1435.29 709.441 1437.33 707.514C1439.59 705.361 1442.54 703.717 1446.17 702.584C1449.79 701.337 1454.1 700.713 1459.09 700.713C1464.76 700.713 1469.69 701.45 1473.88 702.924C1478.19 704.284 1481.76 706.267 1484.59 708.874C1487.31 711.368 1489.35 714.371 1490.71 717.885C1492.07 721.285 1492.75 725.139 1492.75 729.446V740.327H1466.4C1452.8 740.327 1440.73 741.574 1430.19 744.067C1419.76 746.448 1410.97 749.961 1403.83 754.608C1395.9 759.709 1389.95 766.226 1385.98 774.16C1382.02 781.981 1380.03 790.992 1380.03 801.193C1380.03 809.127 1381.62 816.494 1384.79 823.295C1387.97 829.982 1392.39 835.763 1398.05 840.636C1403.72 845.51 1410.46 849.307 1418.29 852.027C1426.22 854.748 1434.89 856.108 1444.3 856.108C1450.08 856.108 1455.46 855.541 1460.45 854.408C1465.44 853.388 1470.03 851.914 1474.22 849.987C1478.3 848.174 1482.04 846.02 1485.44 843.527C1488.84 841.033 1491.85 838.37 1494.45 835.536C1495.02 838.823 1495.7 841.94 1496.49 844.887C1497.29 847.834 1498.25 850.441 1499.38 852.708ZM1454.33 819.554C1449.91 819.554 1446 819.044 1442.6 818.024C1439.31 816.891 1436.53 815.417 1434.27 813.604C1432 811.677 1430.24 809.354 1429 806.633C1427.86 803.8 1427.3 800.739 1427.3 797.452C1427.3 793.259 1428.09 789.405 1429.68 785.891C1431.26 782.264 1433.7 779.147 1436.99 776.54C1440.27 774.047 1444.52 772.12 1449.74 770.76C1454.95 769.286 1461.24 768.55 1468.61 768.55H1492.75V800.173C1491.39 802.553 1489.52 804.933 1487.14 807.313C1484.76 809.58 1481.93 811.62 1478.64 813.434C1475.35 815.247 1471.67 816.721 1467.59 817.854C1463.51 818.988 1459.09 819.554 1454.33 819.554Z" fill="white"/>
<path d="M161.849 504.39V472.404L187.912 467.157V295.378L161.849 290.132V257.976H361.215V327.872H320.089L318.397 299.609H242.069V362.397H327.028V403.861H242.069V467.157L267.963 472.404V504.39H161.849ZM383.378 504.39V472.404L409.442 467.157V295.378L383.378 290.132V257.807H502.355C521.535 257.807 538.065 260.853 551.942 266.946C565.933 272.925 576.651 281.557 584.098 292.839C591.657 304.009 595.437 317.323 595.437 332.78C595.437 347.222 591.657 360.423 584.098 372.383C576.651 384.229 566.271 393.651 552.958 400.646C539.757 407.641 524.582 411.139 507.432 411.139L463.599 410.8V467.157L489.492 472.404V504.39H383.378ZM540.772 504.39L503.201 402.846L551.265 388.799L584.267 467.157L606.438 472.404V504.39H540.772ZM463.599 369.167H502.186C515.161 369.167 524.977 366.346 531.633 360.705C538.29 354.951 541.619 346.658 541.619 335.827C541.619 324.77 538.234 315.969 531.464 309.425C524.807 302.768 515.104 299.44 502.355 299.44H463.599V369.167ZM746.562 507.944C729.751 507.944 714.35 504.842 700.36 498.636C686.482 492.431 674.466 483.687 664.311 472.404C654.157 461.121 646.315 447.92 640.787 432.802C635.371 417.57 632.663 400.984 632.663 383.045V379.152C632.663 361.326 635.371 344.853 640.787 329.734C646.315 314.615 654.101 301.414 664.142 290.132C674.297 278.849 686.313 270.105 700.19 263.899C714.181 257.581 729.582 254.422 746.393 254.422C763.092 254.422 778.436 257.581 792.427 263.899C806.417 270.105 818.603 278.849 828.983 290.132C839.363 301.414 847.373 314.615 853.015 329.734C858.656 344.853 861.477 361.326 861.477 379.152V383.045C861.477 400.984 858.656 417.57 853.015 432.802C847.373 447.92 839.363 461.121 828.983 472.404C818.715 483.687 806.586 492.431 792.596 498.636C778.605 504.842 763.261 507.944 746.562 507.944ZM746.562 466.48C759.763 466.48 770.877 462.983 779.903 455.988C789.042 448.992 795.924 439.289 800.55 426.878C805.176 414.354 807.489 399.743 807.489 383.045V378.814C807.489 362.454 805.12 348.068 800.381 335.657C795.755 323.246 788.873 313.543 779.734 306.548C770.707 299.553 759.594 296.055 746.393 296.055C732.854 296.055 721.684 299.553 712.883 306.548C704.083 313.43 697.539 323.077 693.252 335.488C688.964 347.786 686.82 362.228 686.82 378.814V383.045C686.82 399.743 688.964 414.354 693.252 426.878C697.652 439.402 704.252 449.161 713.053 456.157C721.966 463.039 733.136 466.48 746.562 466.48ZM886.348 504.39V472.404L912.073 467.157V295.378L886.348 290.132V257.976H912.073H967.246L1070.48 422.647L1071.5 422.478V295.378L1039.51 290.132V257.976H1119.73H1145.63V290.132L1119.73 295.378V504.39H1066.76L961.322 342.258H960.307V467.157L992.462 472.404V504.39H886.348ZM1221.1 504.39V472.404L1247.16 467.157V299.778H1205.53L1203.33 327.872H1162.54V257.976H1386.62V327.872H1345.32L1343.29 299.778H1301.32V467.157L1327.38 472.404V504.39H1221.1ZM1406.58 504.39V472.404L1432.64 467.157V295.378L1406.58 290.132V257.976H1512.53V290.132L1486.63 295.378V467.157L1512.53 472.404V504.39H1406.58ZM1536.04 504.39V472.404L1561.77 467.157V295.378L1536.04 290.132V257.976H1561.77H1616.94L1720.18 422.647L1721.19 422.478V295.378L1689.21 290.132V257.976H1769.43H1795.32V290.132L1769.43 295.378V504.39H1716.45L1611.02 342.258H1610V467.157L1642.16 472.404V504.39H1536.04Z" fill="white"/>
<path d="M162.924 199.404V194.249L170.171 193.365V164.319H162.836V159.4L178.743 156.513V193.365L185.99 194.249V199.404H162.924ZM192.983 199.404V193.777L206.887 178.842C208.301 177.251 209.411 175.867 210.216 174.689C211.021 173.51 211.591 172.44 211.924 171.478C212.278 170.496 212.455 169.524 212.455 168.561C212.455 166.892 211.974 165.478 211.011 164.319C210.069 163.161 208.674 162.581 206.828 162.581C204.845 162.581 203.342 163.229 202.321 164.526C201.3 165.802 200.789 167.57 200.789 169.828H192.423L192.364 169.651C192.305 167.059 192.855 164.732 194.014 162.67C195.192 160.588 196.881 158.938 199.081 157.721C201.3 156.503 203.912 155.894 206.917 155.894C209.862 155.894 212.386 156.425 214.487 157.485C216.608 158.526 218.238 159.989 219.377 161.874C220.516 163.76 221.086 165.94 221.086 168.414C221.086 170.123 220.782 171.733 220.173 173.245C219.564 174.738 218.611 176.319 217.315 177.988C216.019 179.657 214.35 181.572 212.307 183.732L203.971 192.687L204.03 192.835H215.135L215.577 188.74H222.235V199.404H192.983ZM230.996 199.404V191.863H239.568V199.404H230.996ZM247.239 199.404V194.249L251.805 193.365V162.581L247.239 161.698V156.513H280.526V168.09H273.928L273.545 163.141H260.406V173.923H274.929V180.551H260.406V192.805H274.252L274.635 187.68H281.174V199.404H247.239ZM288.786 199.404V194.249L293.411 193.277V162.699L288.786 161.698V156.513H293.411H307.61C311.44 156.513 314.817 157.416 317.744 159.223C320.67 161.01 322.948 163.494 324.578 166.676C326.227 169.838 327.052 173.471 327.052 177.575V178.371C327.052 182.436 326.237 186.059 324.607 189.241C322.997 192.403 320.738 194.887 317.832 196.694C314.925 198.5 311.557 199.404 307.728 199.404H288.786ZM302.013 192.835H307.286C309.662 192.835 311.675 192.216 313.325 190.979C314.975 189.722 316.231 188.004 317.095 185.824C317.979 183.644 318.421 181.159 318.421 178.371V177.546C318.421 174.718 317.979 172.224 317.095 170.064C316.231 167.884 314.975 166.185 313.325 164.967C311.675 163.73 309.662 163.112 307.286 163.112H302.013V192.835ZM333.81 199.404V194.249L338.376 193.365V162.581L333.81 161.698V156.513H351.544V161.698L346.978 162.581V193.365L351.544 194.249V199.404H333.81ZM378.274 200.022C374.11 200.022 370.487 199.158 367.404 197.43C364.321 195.682 361.934 193.218 360.246 190.036C358.576 186.835 357.742 183.055 357.742 178.695V177.251C357.742 173.088 358.547 169.406 360.157 166.205C361.787 162.984 364.105 160.46 367.109 158.634C370.114 156.808 373.688 155.894 377.832 155.894C380.739 155.894 383.458 156.307 385.992 157.132C388.545 157.956 390.823 159.213 392.826 160.902V171.271H386.434L385.55 164.761C384.902 164.29 384.195 163.887 383.429 163.553C382.663 163.22 381.828 162.964 380.925 162.788C380.041 162.611 379.079 162.522 378.038 162.522C375.603 162.522 373.511 163.121 371.764 164.319C370.016 165.517 368.671 167.216 367.728 169.416C366.805 171.595 366.343 174.188 366.343 177.192V178.695C366.343 181.7 366.834 184.302 367.816 186.501C368.798 188.701 370.193 190.409 371.999 191.627C373.806 192.825 375.947 193.424 378.421 193.424C379.658 193.424 380.896 193.286 382.133 193.011C383.39 192.717 384.529 192.344 385.55 191.892L386.434 185.853H392.826V196.105C391.157 197.204 389.075 198.137 386.581 198.903C384.087 199.649 381.318 200.022 378.274 200.022ZM373.885 212.925L373.678 208.212C374.857 208.212 375.79 208.015 376.477 207.623C377.184 207.249 377.537 206.67 377.537 205.885C377.537 205.04 377.194 204.451 376.506 204.117C375.819 203.803 374.729 203.606 373.237 203.528L374.238 198.874H380.572L380.189 201.053C381.504 201.269 382.604 201.76 383.488 202.526C384.372 203.312 384.814 204.471 384.814 206.002C384.814 208.104 383.861 209.783 381.956 211.04C380.051 212.297 377.361 212.925 373.885 212.925ZM399.378 199.404V194.249L402.441 193.807L416.08 156.513H424.888L438.439 193.807L441.503 194.249V199.404H426.891V194.249L429.867 193.718L427.981 187.827H412.899L411.014 193.718L413.989 194.249V199.404H399.378ZM414.931 181.493H425.949L420.941 166.794L420.528 165.498H420.352L419.91 166.882L414.931 181.493ZM413.9 153.302L409.452 152.124C409.452 150.808 409.757 149.59 410.365 148.471C410.994 147.352 411.819 146.448 412.84 145.761C413.861 145.073 414.971 144.73 416.169 144.73C417.111 144.73 418.093 144.965 419.114 145.437C420.136 145.908 421.108 146.389 422.031 146.88C422.973 147.352 423.769 147.587 424.417 147.587C425.222 147.568 425.86 147.263 426.332 146.674C426.823 146.065 427.068 145.299 427.068 144.376L431.516 145.613C431.516 146.969 431.202 148.206 430.574 149.325C429.965 150.425 429.15 151.309 428.129 151.976C427.107 152.624 425.988 152.949 424.77 152.949C423.749 152.949 422.728 152.713 421.707 152.242C420.686 151.77 419.733 151.299 418.849 150.828C417.966 150.337 417.19 150.091 416.522 150.091C415.717 150.091 415.079 150.405 414.607 151.034C414.136 151.662 413.9 152.418 413.9 153.302ZM465.257 200.022C462.371 200.022 459.739 199.482 457.363 198.402C454.986 197.322 452.934 195.81 451.206 193.866C449.497 191.902 448.182 189.604 447.259 186.973C446.336 184.321 445.874 181.425 445.874 178.282V177.634C445.874 174.512 446.336 171.635 447.259 169.003C448.182 166.352 449.497 164.044 451.206 162.081C452.915 160.117 454.957 158.595 457.333 157.515C459.71 156.434 462.341 155.894 465.228 155.894C468.135 155.894 470.786 156.434 473.182 157.515C475.578 158.595 477.64 160.117 479.368 162.081C481.096 164.044 482.422 166.352 483.345 169.003C484.287 171.635 484.759 174.512 484.759 177.634V178.282C484.759 181.425 484.287 184.321 483.345 186.973C482.422 189.604 481.096 191.902 479.368 193.866C477.64 195.81 475.578 197.322 473.182 198.402C470.805 199.482 468.164 200.022 465.257 200.022ZM465.257 193.335C467.693 193.335 469.715 192.707 471.326 191.45C472.936 190.193 474.144 188.436 474.949 186.177C475.774 183.919 476.186 181.287 476.186 178.282V177.575C476.186 174.61 475.774 172.008 474.949 169.769C474.124 167.511 472.897 165.753 471.267 164.496C469.657 163.239 467.644 162.611 465.228 162.611C462.832 162.611 460.839 163.239 459.248 164.496C457.657 165.733 456.459 167.471 455.654 169.71C454.869 171.949 454.476 174.571 454.476 177.575V178.282C454.476 181.287 454.869 183.919 455.654 186.177C456.459 188.436 457.657 190.193 459.248 191.45C460.858 192.707 462.862 193.335 465.257 193.335Z" fill="white"/>
<path d="M1383.29 199.404V193.777L1397.19 178.842C1398.6 177.251 1399.71 175.867 1400.52 174.689C1401.32 173.51 1401.89 172.44 1402.23 171.478C1402.58 170.496 1402.76 169.524 1402.76 168.561C1402.76 166.892 1402.28 165.478 1401.31 164.319C1400.37 163.161 1398.98 162.581 1397.13 162.581C1395.15 162.581 1393.65 163.229 1392.62 164.526C1391.6 165.802 1391.09 167.57 1391.09 169.828H1382.73L1382.67 169.651C1382.61 167.059 1383.16 164.732 1384.32 162.67C1385.5 160.588 1387.18 158.938 1389.38 157.721C1391.6 156.503 1394.21 155.894 1397.22 155.894C1400.17 155.894 1402.69 156.425 1404.79 157.485C1406.91 158.526 1408.54 159.989 1409.68 161.874C1410.82 163.76 1411.39 165.94 1411.39 168.414C1411.39 170.123 1411.08 171.733 1410.48 173.245C1409.87 174.738 1408.91 176.319 1407.62 177.988C1406.32 179.657 1404.65 181.572 1402.61 183.732L1394.27 192.687L1394.33 192.835H1405.44L1405.88 188.74H1412.54V199.404H1383.29ZM1432.26 200.022C1430.76 200.022 1429.22 199.865 1427.63 199.551C1426.06 199.257 1424.61 198.815 1423.27 198.225L1424.24 192.01C1425.48 192.462 1426.75 192.815 1428.04 193.07C1429.36 193.306 1430.65 193.424 1431.9 193.424C1434.4 193.424 1436.36 192.57 1437.79 190.861C1439.23 189.152 1439.97 186.491 1440 182.878L1439.95 182.23C1438.98 183.467 1437.82 184.41 1436.47 185.058C1435.13 185.686 1433.66 186 1432.05 186C1429.52 186 1427.29 185.411 1425.36 184.233C1423.46 183.035 1421.98 181.336 1420.92 179.137C1419.87 176.937 1419.35 174.296 1419.35 171.212C1419.35 168.326 1419.97 165.723 1421.21 163.406C1422.47 161.089 1424.18 159.262 1426.34 157.927C1428.52 156.572 1430.99 155.894 1433.76 155.894C1436.69 155.894 1439.26 156.572 1441.48 157.927C1443.7 159.282 1445.42 161.246 1446.66 163.819C1447.9 166.391 1448.52 169.494 1448.52 173.127V182.436C1448.52 186.128 1447.82 189.29 1446.43 191.921C1445.05 194.553 1443.14 196.566 1440.68 197.96C1438.25 199.335 1435.44 200.022 1432.26 200.022ZM1433.91 179.696C1435.22 179.696 1436.4 179.431 1437.44 178.901C1438.48 178.351 1439.32 177.625 1439.95 176.721V172.126C1439.95 168.964 1439.4 166.578 1438.3 164.967C1437.2 163.337 1435.7 162.522 1433.82 162.522C1432.66 162.522 1431.64 162.915 1430.75 163.701C1429.89 164.467 1429.2 165.517 1428.69 166.853C1428.2 168.169 1427.96 169.622 1427.96 171.212C1427.96 172.941 1428.17 174.443 1428.6 175.72C1429.06 176.996 1429.72 177.978 1430.61 178.665C1431.49 179.353 1432.59 179.696 1433.91 179.696ZM1473.61 199.404V194.249L1478.23 193.277V162.699L1473.61 161.698V156.513H1478.23H1492.43C1496.26 156.513 1499.64 157.416 1502.57 159.223C1505.49 161.01 1507.77 163.494 1509.4 166.676C1511.05 169.838 1511.88 173.471 1511.88 177.575V178.371C1511.88 182.436 1511.06 186.059 1509.43 189.241C1507.82 192.403 1505.56 194.887 1502.66 196.694C1499.75 198.5 1496.38 199.404 1492.55 199.404H1473.61ZM1486.84 192.835H1492.11C1494.49 192.835 1496.5 192.216 1498.15 190.979C1499.8 189.722 1501.06 188.004 1501.92 185.824C1502.8 183.644 1503.24 181.159 1503.24 178.371V177.546C1503.24 174.718 1502.8 172.224 1501.92 170.064C1501.06 167.884 1499.8 166.185 1498.15 164.967C1496.5 163.73 1494.49 163.112 1492.11 163.112H1486.84V192.835ZM1518.63 199.404V194.249L1523.2 193.365V162.581L1518.63 161.698V156.513H1551.92V168.09H1545.32L1544.94 163.141H1531.8V173.923H1546.32V180.551H1531.8V192.805H1545.65L1546.03 187.68H1552.57V199.404H1518.63ZM1592.63 200.022C1589.64 200.022 1587.02 199.522 1584.76 198.52C1582.52 197.499 1580.75 195.947 1579.46 193.866C1578.18 191.784 1577.48 189.143 1577.37 185.941L1577.43 185.765H1585.5C1585.65 188.573 1586.28 190.537 1587.38 191.656C1588.48 192.756 1589.95 193.306 1591.77 193.306C1592.95 193.306 1593.98 193.051 1594.87 192.54C1595.77 192.029 1596.48 191.273 1596.99 190.272C1597.52 189.251 1597.78 188.004 1597.78 186.531V162.581L1592.01 161.698V156.513H1610.95V161.698L1606.35 162.581V186.531C1606.35 189.28 1605.82 191.666 1604.76 193.689C1603.7 195.712 1602.15 197.273 1600.11 198.373C1598.07 199.473 1595.57 200.022 1592.63 200.022ZM1637.62 200.022C1634.22 200.022 1631.23 199.433 1628.64 198.255C1626.06 197.077 1624.06 195.368 1622.63 193.129C1621.19 190.89 1620.48 188.17 1620.48 184.969V162.581L1615.91 161.698V156.513H1633.67V161.698L1629.08 162.581V184.969C1629.08 186.855 1629.42 188.426 1630.11 189.683C1630.8 190.94 1631.78 191.882 1633.05 192.511C1634.33 193.119 1635.85 193.424 1637.62 193.424C1639.43 193.424 1640.97 193.119 1642.25 192.511C1643.54 191.882 1644.53 190.94 1645.22 189.683C1645.91 188.426 1646.25 186.855 1646.25 184.969V162.581L1641.69 161.698V156.513H1659.45V161.698L1654.85 162.581V184.969C1654.85 188.17 1654.13 190.9 1652.67 193.159C1651.24 195.398 1649.23 197.106 1646.63 198.284C1644.06 199.443 1641.06 200.022 1637.62 200.022ZM1665.26 199.404V194.249L1669.83 193.365V162.581L1665.26 161.698V156.513H1669.83H1678.43H1683.62V161.698L1678.43 162.581V192.805H1690.54L1690.95 186.531H1697.52V199.404H1665.26ZM1703.63 199.404V194.249L1708.2 193.365V162.581L1703.63 161.698V156.513H1721.39V161.698L1716.8 162.581V174.954H1734.3V162.581L1729.7 161.698V156.513H1734.3H1742.87H1747.46V161.698L1742.87 162.581V193.365L1747.46 194.249V199.404H1729.7V194.249L1734.3 193.365V181.582H1716.8V193.365L1721.39 194.249V199.404H1703.63ZM1773.43 200.022C1770.54 200.022 1767.91 199.482 1765.53 198.402C1763.16 197.322 1761.1 195.81 1759.38 193.866C1757.67 191.902 1756.35 189.604 1755.43 186.973C1754.51 184.321 1754.04 181.425 1754.04 178.282V177.634C1754.04 174.512 1754.51 171.635 1755.43 169.003C1756.35 166.352 1757.67 164.044 1759.38 162.081C1761.08 160.117 1763.13 158.595 1765.5 157.515C1767.88 156.434 1770.51 155.894 1773.4 155.894C1776.3 155.894 1778.96 156.434 1781.35 157.515C1783.75 158.595 1785.81 160.117 1787.54 162.081C1789.27 164.044 1790.59 166.352 1791.51 169.003C1792.46 171.635 1792.93 174.512 1792.93 177.634V178.282C1792.93 181.425 1792.46 184.321 1791.51 186.973C1790.59 189.604 1789.27 191.902 1787.54 193.866C1785.81 195.81 1783.75 197.322 1781.35 198.402C1778.98 199.482 1776.33 200.022 1773.43 200.022ZM1773.43 193.335C1775.86 193.335 1777.89 192.707 1779.5 191.45C1781.11 190.193 1782.31 188.436 1783.12 186.177C1783.94 183.919 1784.36 181.287 1784.36 178.282V177.575C1784.36 174.61 1783.94 172.008 1783.12 169.769C1782.29 167.511 1781.07 165.753 1779.44 164.496C1777.83 163.239 1775.81 162.611 1773.4 162.611C1771 162.611 1769.01 163.239 1767.42 164.496C1765.83 165.733 1764.63 167.471 1763.82 169.71C1763.04 171.949 1762.65 174.571 1762.65 177.575V178.282C1762.65 181.287 1763.04 183.919 1763.82 186.177C1764.63 188.436 1765.83 190.193 1767.42 191.45C1769.03 192.707 1771.03 193.335 1773.43 193.335Z" fill="white"/>
</svg>
