<svg width="1955" height="1083" viewBox="0 0 1955 1083" fill="none" xmlns="http://www.w3.org/2000/svg">
<path fill-rule="evenodd" clip-rule="evenodd" d="M359.78 477.53H251.068L138.011 593.735H253.919L354.427 694.243H462.517L563.024 593.735H661.069L761.576 694.243H869.667L970.174 593.735H1068.14L1168.65 694.243H1276.74L1377.24 593.735H1475.21L1575.72 694.243H1632.35V681.345H1581.06L1480.55 580.837H1390.14H1389.84L1477.8 490.428H1575.71L1678.45 593.735H1766.07L1680.72 679.092L1693.68 684.365L1797.21 580.837H1683.82L1581.07 477.53H1472.36L1371.85 580.837H1276.75L1174 477.53H1065.29L964.779 580.837H869.677L766.929 477.53H658.217L557.71 580.837H462.527L359.78 477.53ZM575.922 580.837H575.705L663.664 490.428H761.566L864.314 593.735H951.933L864.324 681.345H766.919L666.412 580.837H575.922Z" fill="#FF685C"/>
<path fill-rule="evenodd" clip-rule="evenodd" d="M327.737 863.647L138.011 784.97V725.939L327.737 647.262V726.072L240.812 755.576L327.737 784.603V863.647ZM213.368 760.169L200.796 755.732L213.368 751.11L314.687 716.72V666.801L151.061 734.654V776.254L314.687 844.108V794.004L213.368 760.169Z" fill="#FF685C"/>
<path fill-rule="evenodd" clip-rule="evenodd" d="M1626.71 863.647L1816.44 784.97V725.939L1626.71 647.261V726.072L1713.64 755.575L1626.71 784.603V863.647ZM1741.08 760.169L1753.65 755.732L1741.08 751.109L1639.76 716.72V666.8L1803.39 734.654V776.254L1639.76 844.108V794.003L1741.08 760.169Z" fill="#FF685C"/>
<path d="M527.369 802.035C527.369 804.869 526.632 807.476 525.159 809.856C523.798 812.236 521.702 814.333 518.868 816.146C515.921 817.96 512.124 819.433 507.477 820.567C502.943 821.587 497.616 822.097 491.495 822.097C486.395 822.097 481.408 821.587 476.534 820.567C471.774 819.547 467.523 817.903 463.783 815.636C460.043 813.483 456.982 810.649 454.602 807.136C452.222 803.509 450.862 799.202 450.522 794.214H405.468C405.468 801.695 407.281 809.176 410.908 816.656C414.648 824.024 420.089 830.598 427.23 836.378C434.37 842.272 443.211 847.033 453.752 850.66C464.406 854.287 476.647 856.1 490.475 856.1C503.057 856.1 514.448 854.74 524.649 852.02C534.849 849.186 543.577 845.276 550.831 840.289C557.972 835.302 563.469 829.408 567.322 822.607C571.29 815.693 573.273 808.156 573.273 799.995C573.273 791.154 571.29 783.56 567.322 777.213C563.469 770.752 558.085 765.255 551.171 760.721C544.257 756.301 536.04 752.674 526.519 749.84C516.998 747.007 506.684 744.683 495.576 742.87C487.868 741.736 481.521 740.433 476.534 738.959C471.547 737.372 467.637 735.616 464.803 733.689C461.856 731.875 459.816 729.835 458.682 727.568C457.549 725.188 456.982 722.638 456.982 719.918C456.982 717.197 457.606 714.647 458.852 712.267C460.213 709.773 462.139 707.62 464.633 705.806C467.353 703.766 470.867 702.179 475.174 701.046C479.481 699.912 484.525 699.346 490.305 699.346C497.106 699.346 502.887 700.196 507.647 701.896C512.521 703.596 516.374 705.863 519.208 708.696C521.248 710.85 522.778 713.287 523.798 716.007C524.819 718.614 525.329 721.448 525.329 724.508H572.593C572.593 716.007 570.723 708.13 566.982 700.876C563.242 693.622 557.858 687.331 550.831 682.004C543.69 676.79 535.019 672.71 524.819 669.763C514.618 666.703 503.113 665.172 490.305 665.172C478.064 665.172 467.07 666.703 457.322 669.763C447.575 672.823 439.301 676.96 432.5 682.174C425.699 687.388 420.486 693.452 416.859 700.366C413.232 707.28 411.418 714.534 411.418 722.128C411.418 729.948 413.175 736.862 416.689 742.87C420.316 748.877 425.303 754.147 431.65 758.681C437.997 763.328 445.591 767.295 454.432 770.582C463.386 773.756 473.247 776.419 484.015 778.573C492.516 780.16 499.543 781.747 505.097 783.333C510.651 784.92 515.128 786.62 518.528 788.434C521.815 790.361 524.082 792.401 525.329 794.554C526.689 796.708 527.369 799.202 527.369 802.035ZM767.567 852.53H815.511V849.64C813.131 844.992 811.318 839.439 810.071 832.978C808.824 826.517 808.201 818.357 808.201 808.496V729.608C808.201 718.954 806.217 709.603 802.25 701.556C798.283 693.395 792.786 686.651 785.759 681.324C778.731 675.997 770.401 671.973 760.766 669.253C751.245 666.533 740.931 665.172 729.824 665.172C717.469 665.172 706.475 666.759 696.84 669.933C687.32 672.993 679.272 677.187 672.698 682.514C666.011 687.841 660.91 694.018 657.397 701.046C653.996 708.073 652.296 715.497 652.296 723.318H699.561C699.561 720.031 700.014 717.027 700.921 714.307C701.941 711.587 703.471 709.263 705.511 707.336C707.778 705.183 710.725 703.539 714.352 702.406C717.979 701.159 722.286 700.536 727.273 700.536C732.94 700.536 737.871 701.272 742.065 702.746C746.372 704.106 749.942 706.09 752.776 708.696C755.496 711.19 757.536 714.194 758.896 717.707C760.256 721.108 760.936 724.961 760.936 729.268V740.149H734.584C720.983 740.149 708.912 741.396 698.371 743.89C687.943 746.27 679.159 749.784 672.018 754.431C664.084 759.531 658.134 766.048 654.167 773.983C650.199 781.803 648.216 790.814 648.216 801.015C648.216 808.949 649.803 816.316 652.976 823.117C656.15 829.804 660.57 835.585 666.238 840.459C671.905 845.332 678.649 849.129 686.469 851.85C694.404 854.57 703.074 855.93 712.482 855.93C718.262 855.93 723.646 855.363 728.633 854.23C733.621 853.21 738.211 851.736 742.405 849.81C746.485 847.996 750.225 845.843 753.626 843.349C757.026 840.855 760.03 838.192 762.637 835.358C763.203 838.645 763.883 841.762 764.677 844.709C765.47 847.656 766.434 850.263 767.567 852.53ZM722.513 819.377C718.092 819.377 714.182 818.867 710.782 817.847C707.495 816.713 704.718 815.24 702.451 813.426C700.184 811.499 698.427 809.176 697.18 806.456C696.047 803.622 695.48 800.562 695.48 797.275C695.48 793.081 696.274 789.227 697.861 785.714C699.447 782.087 701.884 778.97 705.171 776.363C708.458 773.869 712.709 771.942 717.922 770.582C723.136 769.109 729.427 768.372 736.794 768.372H760.936V799.995C759.576 802.375 757.706 804.755 755.326 807.136C752.946 809.402 750.112 811.443 746.825 813.256C743.538 815.07 739.854 816.543 735.774 817.677C731.694 818.81 727.273 819.377 722.513 819.377ZM925.988 668.573H885.354V852.53H928.368V714.817C928.935 713.344 929.558 711.983 930.238 710.737C930.918 709.49 931.712 708.413 932.618 707.506C933.865 706.26 935.282 705.296 936.869 704.616C938.455 703.936 940.269 703.596 942.309 703.596C944.123 703.596 945.823 703.879 947.41 704.446C948.996 704.899 950.413 705.75 951.66 706.996C952.793 708.243 953.7 710 954.38 712.267C955.06 714.534 955.4 717.424 955.4 720.938V852.53H997.054V716.857C997.054 715.497 997.054 714.42 997.054 713.627C997.054 712.834 997.054 712.323 997.054 712.097C997.621 710.85 998.301 709.773 999.094 708.866C999.888 707.846 1000.79 706.94 1001.81 706.146C1003.06 705.353 1004.36 704.729 1005.73 704.276C1007.2 703.823 1008.84 703.596 1010.66 703.596C1012.36 703.596 1014 703.879 1015.59 704.446C1017.29 704.899 1018.76 705.75 1020.01 706.996C1021.25 708.356 1022.22 710.17 1022.9 712.437C1023.69 714.704 1024.09 717.594 1024.09 721.108V852.53H1067.1V721.278C1067.1 711.077 1066.08 702.463 1064.04 695.435C1062.11 688.295 1059.39 682.457 1055.88 677.924C1052.25 673.503 1048 670.273 1043.13 668.233C1038.37 666.193 1033.21 665.172 1027.66 665.172C1023.24 665.172 1019.16 665.739 1015.42 666.873C1011.68 668.006 1008.33 669.593 1005.39 671.633C1003 673.22 1000.79 675.147 998.754 677.414C996.828 679.567 995.071 682.004 993.484 684.724C992.464 681.891 991.217 679.397 989.744 677.244C988.383 674.977 986.74 673.05 984.813 671.463C982.32 669.31 979.373 667.723 975.972 666.703C972.572 665.683 968.718 665.172 964.411 665.172C955.57 665.172 948.033 667.496 941.799 672.143C935.679 676.677 930.861 682.911 927.348 690.845L925.988 668.573ZM1141.19 923.256H1188.46V836.548C1190.61 838.929 1192.88 841.082 1195.26 843.009C1197.64 844.936 1200.13 846.693 1202.74 848.279C1207.16 850.773 1211.92 852.643 1217.02 853.89C1222.23 855.25 1227.9 855.93 1234.02 855.93C1245.58 855.93 1255.84 853.55 1264.79 848.789C1273.75 844.029 1281.29 837.455 1287.41 829.068C1293.41 820.794 1297.95 810.933 1301.01 799.485C1304.18 788.037 1305.77 775.626 1305.77 762.251V758.681C1305.77 744.74 1304.18 732.045 1301.01 720.598C1297.95 709.037 1293.36 699.119 1287.24 690.845C1281.12 682.684 1273.58 676.393 1264.62 671.973C1255.67 667.439 1245.36 665.172 1233.68 665.172C1228.01 665.172 1222.69 665.796 1217.7 667.043C1212.83 668.176 1208.35 669.82 1204.27 671.973C1200.87 673.787 1197.7 675.94 1194.75 678.434C1191.8 680.814 1189.08 683.534 1186.59 686.594L1184.89 668.573H1141.19V923.256ZM1258.5 758.681V762.251C1258.5 769.845 1257.82 777.043 1256.46 783.843C1255.1 790.531 1252.95 796.425 1250 801.525C1247.06 806.626 1243.2 810.649 1238.44 813.596C1233.8 816.543 1228.13 818.017 1221.44 818.017C1217.25 818.017 1213.45 817.62 1210.05 816.826C1206.65 815.92 1203.65 814.673 1201.04 813.086C1198.32 811.386 1195.88 809.346 1193.73 806.966C1191.69 804.585 1189.93 801.922 1188.46 798.975V722.128C1190.04 718.954 1191.91 716.177 1194.07 713.797C1196.34 711.417 1198.94 709.433 1201.89 707.846C1204.5 706.486 1207.39 705.466 1210.56 704.786C1213.73 703.993 1217.25 703.596 1221.1 703.596C1227.79 703.596 1233.46 705.013 1238.1 707.846C1242.86 710.68 1246.77 714.534 1249.83 719.407C1252.78 724.395 1254.93 730.288 1256.29 737.089C1257.77 743.776 1258.5 750.974 1258.5 758.681ZM1499.38 852.53H1547.33V849.64C1544.95 844.992 1543.13 839.439 1541.89 832.978C1540.64 826.517 1540.02 818.357 1540.02 808.496V729.608C1540.02 718.954 1538.03 709.603 1534.07 701.556C1530.1 693.395 1524.6 686.651 1517.57 681.324C1510.55 675.997 1502.22 671.973 1492.58 669.253C1483.06 666.533 1472.75 665.172 1461.64 665.172C1449.28 665.172 1438.29 666.759 1428.66 669.933C1419.14 672.993 1411.09 677.187 1404.51 682.514C1397.83 687.841 1392.73 694.018 1389.21 701.046C1385.81 708.073 1384.11 715.497 1384.11 723.318H1431.38C1431.38 720.031 1431.83 717.027 1432.74 714.307C1433.76 711.587 1435.29 709.263 1437.33 707.336C1439.59 705.183 1442.54 703.539 1446.17 702.406C1449.79 701.159 1454.1 700.536 1459.09 700.536C1464.76 700.536 1469.69 701.272 1473.88 702.746C1478.19 704.106 1481.76 706.09 1484.59 708.696C1487.31 711.19 1489.35 714.194 1490.71 717.707C1492.07 721.108 1492.75 724.961 1492.75 729.268V740.149H1466.4C1452.8 740.149 1440.73 741.396 1430.19 743.89C1419.76 746.27 1410.97 749.784 1403.83 754.431C1395.9 759.531 1389.95 766.048 1385.98 773.983C1382.02 781.803 1380.03 790.814 1380.03 801.015C1380.03 808.949 1381.62 816.316 1384.79 823.117C1387.97 829.804 1392.39 835.585 1398.05 840.459C1403.72 845.332 1410.46 849.129 1418.29 851.85C1426.22 854.57 1434.89 855.93 1444.3 855.93C1450.08 855.93 1455.46 855.363 1460.45 854.23C1465.44 853.21 1470.03 851.736 1474.22 849.81C1478.3 847.996 1482.04 845.843 1485.44 843.349C1488.84 840.855 1491.85 838.192 1494.45 835.358C1495.02 838.645 1495.7 841.762 1496.49 844.709C1497.29 847.656 1498.25 850.263 1499.38 852.53ZM1454.33 819.377C1449.91 819.377 1446 818.867 1442.6 817.847C1439.31 816.713 1436.53 815.24 1434.27 813.426C1432 811.499 1430.24 809.176 1429 806.456C1427.86 803.622 1427.3 800.562 1427.3 797.275C1427.3 793.081 1428.09 789.227 1429.68 785.714C1431.26 782.087 1433.7 778.97 1436.99 776.363C1440.27 773.869 1444.52 771.942 1449.74 770.582C1454.95 769.109 1461.24 768.372 1468.61 768.372H1492.75V799.995C1491.39 802.375 1489.52 804.755 1487.14 807.136C1484.76 809.402 1481.93 811.443 1478.64 813.256C1475.35 815.07 1471.67 816.543 1467.59 817.677C1463.51 818.81 1459.09 819.377 1454.33 819.377Z" fill="#404040"/>
<path d="M161.849 504.213V472.226L187.912 466.98V295.2L161.849 289.954V257.798H361.215V327.695H320.089L318.397 299.431H242.069V362.22H327.028V403.684H242.069V466.98L267.963 472.226V504.213H161.849ZM383.378 504.213V472.226L409.442 466.98V295.2L383.378 289.954V257.629H502.355C521.535 257.629 538.065 260.675 551.942 266.768C565.933 272.748 576.651 281.379 584.098 292.662C591.657 303.832 595.437 317.145 595.437 332.603C595.437 347.044 591.657 360.245 584.098 372.205C576.651 384.052 566.271 393.473 552.958 400.468C539.757 407.463 524.582 410.961 507.432 410.961L463.599 410.623V466.98L489.492 472.226V504.213H383.378ZM540.772 504.213L503.201 402.668L551.265 388.621L584.267 466.98L606.438 472.226V504.213H540.772ZM463.599 368.989H502.186C515.161 368.989 524.977 366.169 531.633 360.527C538.29 354.773 541.619 346.48 541.619 335.649C541.619 324.592 538.234 315.791 531.464 309.247C524.807 302.591 515.104 299.262 502.355 299.262H463.599V368.989ZM746.562 507.767C729.751 507.767 714.35 504.664 700.36 498.458C686.482 492.253 674.466 483.509 664.311 472.226C654.157 460.943 646.315 447.743 640.787 432.624C635.371 417.392 632.663 400.807 632.663 382.867V378.974C632.663 361.148 635.371 344.675 640.787 329.556C646.315 314.437 654.101 301.237 664.142 289.954C674.297 278.671 686.313 269.927 700.19 263.722C714.181 257.403 729.582 254.244 746.393 254.244C763.092 254.244 778.436 257.403 792.427 263.722C806.417 269.927 818.603 278.671 828.983 289.954C839.363 301.237 847.373 314.437 853.015 329.556C858.656 344.675 861.477 361.148 861.477 378.974V382.867C861.477 400.807 858.656 417.392 853.015 432.624C847.373 447.743 839.363 460.943 828.983 472.226C818.715 483.509 806.586 492.253 792.596 498.458C778.605 504.664 763.261 507.767 746.562 507.767ZM746.562 466.303C759.763 466.303 770.877 462.805 779.903 455.81C789.042 448.815 795.924 439.111 800.55 426.7C805.176 414.177 807.489 399.565 807.489 382.867V378.636C807.489 362.276 805.12 347.891 800.381 335.48C795.755 323.069 788.873 313.366 779.734 306.37C770.707 299.375 759.594 295.877 746.393 295.877C732.854 295.877 721.684 299.375 712.883 306.37C704.083 313.253 697.539 322.899 693.252 335.31C688.964 347.609 686.82 362.05 686.82 378.636V382.867C686.82 399.565 688.964 414.177 693.252 426.7C697.652 439.224 704.252 448.984 713.053 455.979C721.966 462.861 733.136 466.303 746.562 466.303ZM886.348 504.213V472.226L912.073 466.98V295.2L886.348 289.954V257.798H912.073H967.246L1070.48 422.469L1071.5 422.3V295.2L1039.51 289.954V257.798H1119.73H1145.63V289.954L1119.73 295.2V504.213H1066.76L961.322 342.08H960.307V466.98L992.462 472.226V504.213H886.348ZM1221.1 504.213V472.226L1247.16 466.98V299.601H1205.53L1203.33 327.695H1162.54V257.798H1386.62V327.695H1345.32L1343.29 299.601H1301.32V466.98L1327.38 472.226V504.213H1221.1ZM1406.58 504.213V472.226L1432.64 466.98V295.2L1406.58 289.954V257.798H1512.53V289.954L1486.63 295.2V466.98L1512.53 472.226V504.213H1406.58ZM1536.04 504.213V472.226L1561.77 466.98V295.2L1536.04 289.954V257.798H1561.77H1616.94L1720.18 422.469L1721.19 422.3V295.2L1689.21 289.954V257.798H1769.43H1795.32V289.954L1769.43 295.2V504.213H1716.45L1611.02 342.08H1610V466.98L1642.16 472.226V504.213H1536.04Z" fill="#404040"/>
<path d="M162.924 199.226V194.071L170.171 193.187V164.142H162.836V159.222L178.743 156.335V193.187L185.99 194.071V199.226H162.924ZM192.983 199.226V193.6L206.887 178.664C208.301 177.074 209.411 175.689 210.216 174.511C211.021 173.332 211.591 172.262 211.924 171.3C212.278 170.318 212.455 169.346 212.455 168.384C212.455 166.714 211.974 165.3 211.011 164.142C210.069 162.983 208.674 162.404 206.828 162.404C204.845 162.404 203.342 163.052 202.321 164.348C201.3 165.624 200.789 167.392 200.789 169.65H192.423L192.364 169.473C192.305 166.881 192.855 164.554 194.014 162.492C195.192 160.41 196.881 158.761 199.081 157.543C201.3 156.325 203.912 155.717 206.917 155.717C209.862 155.717 212.386 156.247 214.487 157.307C216.608 158.348 218.238 159.811 219.377 161.697C220.516 163.582 221.086 165.762 221.086 168.236C221.086 169.945 220.782 171.555 220.173 173.067C219.564 174.56 218.611 176.141 217.315 177.81C216.019 179.479 214.35 181.394 212.307 183.554L203.971 192.51L204.03 192.657H215.135L215.577 188.562H222.235V199.226H192.983ZM230.996 199.226V191.685H239.568V199.226H230.996ZM247.239 199.226V194.071L251.805 193.187V162.404L247.239 161.52V156.335H280.526V167.912H273.928L273.545 162.963H260.406V173.745H274.929V180.373H260.406V192.627H274.252L274.635 187.502H281.174V199.226H247.239ZM288.786 199.226V194.071L293.411 193.099V162.521L288.786 161.52V156.335H293.411H307.61C311.44 156.335 314.817 157.239 317.744 159.045C320.67 160.832 322.948 163.317 324.578 166.498C326.227 169.66 327.052 173.293 327.052 177.398V178.193C327.052 182.258 326.237 185.882 324.607 189.063C322.997 192.225 320.738 194.709 317.832 196.516C314.925 198.323 311.557 199.226 307.728 199.226H288.786ZM302.013 192.657H307.286C309.662 192.657 311.675 192.038 313.325 190.801C314.975 189.544 316.231 187.826 317.095 185.646C317.979 183.466 318.421 180.982 318.421 178.193V177.368C318.421 174.54 317.979 172.046 317.095 169.886C316.231 167.706 314.975 166.007 313.325 164.79C311.675 163.552 309.662 162.934 307.286 162.934H302.013V192.657ZM333.81 199.226V194.071L338.376 193.187V162.404L333.81 161.52V156.335H351.544V161.52L346.978 162.404V193.187L351.544 194.071V199.226H333.81ZM378.274 199.845C374.11 199.845 370.487 198.981 367.404 197.252C364.321 195.505 361.934 193.04 360.246 189.858C358.576 186.657 357.742 182.877 357.742 178.517V177.074C357.742 172.91 358.547 169.228 360.157 166.027C361.787 162.806 364.105 160.283 367.109 158.456C370.114 156.63 373.688 155.717 377.832 155.717C380.739 155.717 383.458 156.129 385.992 156.954C388.545 157.779 390.823 159.036 392.826 160.724V171.094H386.434L385.55 164.583C384.902 164.112 384.195 163.71 383.429 163.376C382.663 163.042 381.828 162.787 380.925 162.61C380.041 162.433 379.079 162.345 378.038 162.345C375.603 162.345 373.511 162.944 371.764 164.142C370.016 165.34 368.671 167.038 367.728 169.238C366.805 171.418 366.343 174.01 366.343 177.015V178.517C366.343 181.522 366.834 184.124 367.816 186.323C368.798 188.523 370.193 190.232 371.999 191.449C373.806 192.647 375.947 193.246 378.421 193.246C379.658 193.246 380.896 193.109 382.133 192.834C383.39 192.539 384.529 192.166 385.55 191.714L386.434 185.675H392.826V195.927C391.157 197.027 389.075 197.959 386.581 198.725C384.087 199.472 381.318 199.845 378.274 199.845ZM373.885 212.747L373.678 208.034C374.857 208.034 375.79 207.838 376.477 207.445C377.184 207.072 377.537 206.492 377.537 205.707C377.537 204.862 377.194 204.273 376.506 203.939C375.819 203.625 374.729 203.429 373.237 203.35L374.238 198.696H380.572L380.189 200.876C381.504 201.092 382.604 201.583 383.488 202.349C384.372 203.134 384.814 204.293 384.814 205.825C384.814 207.926 383.861 209.605 381.956 210.862C380.051 212.119 377.361 212.747 373.885 212.747ZM399.378 199.226V194.071L402.441 193.629L416.08 156.335H424.888L438.439 193.629L441.503 194.071V199.226H426.891V194.071L429.867 193.541L427.981 187.649H412.899L411.014 193.541L413.989 194.071V199.226H399.378ZM414.931 181.316H425.949L420.941 166.616L420.528 165.32H420.352L419.91 166.704L414.931 181.316ZM413.9 153.124L409.452 151.946C409.452 150.63 409.757 149.413 410.365 148.293C410.994 147.174 411.819 146.27 412.84 145.583C413.861 144.896 414.971 144.552 416.169 144.552C417.111 144.552 418.093 144.788 419.114 145.259C420.136 145.73 421.108 146.211 422.031 146.702C422.973 147.174 423.769 147.409 424.417 147.409C425.222 147.39 425.86 147.085 426.332 146.496C426.823 145.887 427.068 145.122 427.068 144.199L431.516 145.436C431.516 146.791 431.202 148.028 430.574 149.147C429.965 150.247 429.15 151.131 428.129 151.799C427.107 152.447 425.988 152.771 424.77 152.771C423.749 152.771 422.728 152.535 421.707 152.064C420.686 151.592 419.733 151.121 418.849 150.65C417.966 150.159 417.19 149.913 416.522 149.913C415.717 149.913 415.079 150.228 414.607 150.856C414.136 151.484 413.9 152.241 413.9 153.124ZM465.257 199.845C462.371 199.845 459.739 199.305 457.363 198.225C454.986 197.144 452.934 195.632 451.206 193.688C449.497 191.724 448.182 189.426 447.259 186.795C446.336 184.144 445.874 181.247 445.874 178.105V177.457C445.874 174.334 446.336 171.457 447.259 168.825C448.182 166.174 449.497 163.867 451.206 161.903C452.915 159.939 454.957 158.417 457.333 157.337C459.71 156.257 462.341 155.717 465.228 155.717C468.135 155.717 470.786 156.257 473.182 157.337C475.578 158.417 477.64 159.939 479.368 161.903C481.096 163.867 482.422 166.174 483.345 168.825C484.287 171.457 484.759 174.334 484.759 177.457V178.105C484.759 181.247 484.287 184.144 483.345 186.795C482.422 189.426 481.096 191.724 479.368 193.688C477.64 195.632 475.578 197.144 473.182 198.225C470.805 199.305 468.164 199.845 465.257 199.845ZM465.257 193.158C467.693 193.158 469.715 192.529 471.326 191.272C472.936 190.016 474.144 188.258 474.949 185.999C475.774 183.741 476.186 181.109 476.186 178.105V177.398C476.186 174.432 475.774 171.83 474.949 169.591C474.124 167.333 472.897 165.575 471.267 164.318C469.657 163.061 467.644 162.433 465.228 162.433C462.832 162.433 460.839 163.061 459.248 164.318C457.657 165.556 456.459 167.294 455.654 169.532C454.869 171.771 454.476 174.393 454.476 177.398V178.105C454.476 181.109 454.869 183.741 455.654 185.999C456.459 188.258 457.657 190.016 459.248 191.272C460.858 192.529 462.862 193.158 465.257 193.158Z" fill="#404040"/>
<path d="M1383.29 199.226V193.6L1397.19 178.664C1398.6 177.074 1399.71 175.689 1400.52 174.511C1401.32 173.332 1401.89 172.262 1402.23 171.3C1402.58 170.318 1402.76 169.346 1402.76 168.384C1402.76 166.714 1402.28 165.3 1401.31 164.142C1400.37 162.983 1398.98 162.404 1397.13 162.404C1395.15 162.404 1393.65 163.052 1392.62 164.348C1391.6 165.624 1391.09 167.392 1391.09 169.65H1382.73L1382.67 169.473C1382.61 166.881 1383.16 164.554 1384.32 162.492C1385.5 160.41 1387.18 158.761 1389.38 157.543C1391.6 156.325 1394.21 155.717 1397.22 155.717C1400.17 155.717 1402.69 156.247 1404.79 157.307C1406.91 158.348 1408.54 159.811 1409.68 161.697C1410.82 163.582 1411.39 165.762 1411.39 168.236C1411.39 169.945 1411.08 171.555 1410.48 173.067C1409.87 174.56 1408.91 176.141 1407.62 177.81C1406.32 179.479 1404.65 181.394 1402.61 183.554L1394.27 192.51L1394.33 192.657H1405.44L1405.88 188.562H1412.54V199.226H1383.29ZM1432.26 199.845C1430.76 199.845 1429.22 199.688 1427.63 199.373C1426.06 199.079 1424.61 198.637 1423.27 198.048L1424.24 191.832C1425.48 192.284 1426.75 192.637 1428.04 192.893C1429.36 193.128 1430.65 193.246 1431.9 193.246C1434.4 193.246 1436.36 192.392 1437.79 190.683C1439.23 188.975 1439.97 186.314 1440 182.7L1439.95 182.052C1438.98 183.289 1437.82 184.232 1436.47 184.88C1435.13 185.508 1433.66 185.823 1432.05 185.823C1429.52 185.823 1427.29 185.234 1425.36 184.055C1423.46 182.857 1421.98 181.158 1420.92 178.959C1419.87 176.759 1419.35 174.118 1419.35 171.035C1419.35 168.148 1419.97 165.546 1421.21 163.228C1422.47 160.911 1424.18 159.085 1426.34 157.749C1428.52 156.394 1430.99 155.717 1433.76 155.717C1436.69 155.717 1439.26 156.394 1441.48 157.749C1443.7 159.104 1445.42 161.068 1446.66 163.641C1447.9 166.213 1448.52 169.316 1448.52 172.95V182.258C1448.52 185.95 1447.82 189.112 1446.43 191.744C1445.05 194.375 1443.14 196.388 1440.68 197.783C1438.25 199.157 1435.44 199.845 1432.26 199.845ZM1433.91 179.519C1435.22 179.519 1436.4 179.254 1437.44 178.723C1438.48 178.173 1439.32 177.447 1439.95 176.543V171.948C1439.95 168.786 1439.4 166.4 1438.3 164.79C1437.2 163.16 1435.7 162.345 1433.82 162.345C1432.66 162.345 1431.64 162.737 1430.75 163.523C1429.89 164.289 1429.2 165.34 1428.69 166.675C1428.2 167.991 1427.96 169.444 1427.96 171.035C1427.96 172.763 1428.17 174.265 1428.6 175.542C1429.06 176.818 1429.72 177.8 1430.61 178.488C1431.49 179.175 1432.59 179.519 1433.91 179.519ZM1473.61 199.226V194.071L1478.23 193.099V162.521L1473.61 161.52V156.335H1478.23H1492.43C1496.26 156.335 1499.64 157.239 1502.57 159.045C1505.49 160.832 1507.77 163.317 1509.4 166.498C1511.05 169.66 1511.88 173.293 1511.88 177.398V178.193C1511.88 182.258 1511.06 185.882 1509.43 189.063C1507.82 192.225 1505.56 194.709 1502.66 196.516C1499.75 198.323 1496.38 199.226 1492.55 199.226H1473.61ZM1486.84 192.657H1492.11C1494.49 192.657 1496.5 192.038 1498.15 190.801C1499.8 189.544 1501.06 187.826 1501.92 185.646C1502.8 183.466 1503.24 180.982 1503.24 178.193V177.368C1503.24 174.54 1502.8 172.046 1501.92 169.886C1501.06 167.706 1499.8 166.007 1498.15 164.79C1496.5 163.552 1494.49 162.934 1492.11 162.934H1486.84V192.657ZM1518.63 199.226V194.071L1523.2 193.187V162.404L1518.63 161.52V156.335H1551.92V167.912H1545.32L1544.94 162.963H1531.8V173.745H1546.32V180.373H1531.8V192.627H1545.65L1546.03 187.502H1552.57V199.226H1518.63ZM1592.63 199.845C1589.64 199.845 1587.02 199.344 1584.76 198.342C1582.52 197.321 1580.75 195.77 1579.46 193.688C1578.18 191.606 1577.48 188.965 1577.37 185.764L1577.43 185.587H1585.5C1585.65 188.395 1586.28 190.359 1587.38 191.479C1588.48 192.578 1589.95 193.128 1591.77 193.128C1592.95 193.128 1593.98 192.873 1594.87 192.362C1595.77 191.852 1596.48 191.096 1596.99 190.094C1597.52 189.073 1597.78 187.826 1597.78 186.353V162.404L1592.01 161.52V156.335H1610.95V161.52L1606.35 162.404V186.353C1606.35 189.102 1605.82 191.488 1604.76 193.511C1603.7 195.534 1602.15 197.095 1600.11 198.195C1598.07 199.295 1595.57 199.845 1592.63 199.845ZM1637.62 199.845C1634.22 199.845 1631.23 199.256 1628.64 198.077C1626.06 196.899 1624.06 195.19 1622.63 192.952C1621.19 190.713 1620.48 187.993 1620.48 184.792V162.404L1615.91 161.52V156.335H1633.67V161.52L1629.08 162.404V184.792C1629.08 186.677 1629.42 188.248 1630.11 189.505C1630.8 190.762 1631.78 191.704 1633.05 192.333C1634.33 192.942 1635.85 193.246 1637.62 193.246C1639.43 193.246 1640.97 192.942 1642.25 192.333C1643.54 191.704 1644.53 190.762 1645.22 189.505C1645.91 188.248 1646.25 186.677 1646.25 184.792V162.404L1641.69 161.52V156.335H1659.45V161.52L1654.85 162.404V184.792C1654.85 187.993 1654.13 190.723 1652.67 192.981C1651.24 195.22 1649.23 196.928 1646.63 198.107C1644.06 199.265 1641.06 199.845 1637.62 199.845ZM1665.26 199.226V194.071L1669.83 193.187V162.404L1665.26 161.52V156.335H1669.83H1678.43H1683.62V161.52L1678.43 162.404V192.627H1690.54L1690.95 186.353H1697.52V199.226H1665.26ZM1703.63 199.226V194.071L1708.2 193.187V162.404L1703.63 161.52V156.335H1721.39V161.52L1716.8 162.404V174.776H1734.3V162.404L1729.7 161.52V156.335H1734.3H1742.87H1747.46V161.52L1742.87 162.404V193.187L1747.46 194.071V199.226H1729.7V194.071L1734.3 193.187V181.404H1716.8V193.187L1721.39 194.071V199.226H1703.63ZM1773.43 199.845C1770.54 199.845 1767.91 199.305 1765.53 198.225C1763.16 197.144 1761.1 195.632 1759.38 193.688C1757.67 191.724 1756.35 189.426 1755.43 186.795C1754.51 184.144 1754.04 181.247 1754.04 178.105V177.457C1754.04 174.334 1754.51 171.457 1755.43 168.825C1756.35 166.174 1757.67 163.867 1759.38 161.903C1761.08 159.939 1763.13 158.417 1765.5 157.337C1767.88 156.257 1770.51 155.717 1773.4 155.717C1776.3 155.717 1778.96 156.257 1781.35 157.337C1783.75 158.417 1785.81 159.939 1787.54 161.903C1789.27 163.867 1790.59 166.174 1791.51 168.825C1792.46 171.457 1792.93 174.334 1792.93 177.457V178.105C1792.93 181.247 1792.46 184.144 1791.51 186.795C1790.59 189.426 1789.27 191.724 1787.54 193.688C1785.81 195.632 1783.75 197.144 1781.35 198.225C1778.98 199.305 1776.33 199.845 1773.43 199.845ZM1773.43 193.158C1775.86 193.158 1777.89 192.529 1779.5 191.272C1781.11 190.016 1782.31 188.258 1783.12 185.999C1783.94 183.741 1784.36 181.109 1784.36 178.105V177.398C1784.36 174.432 1783.94 171.83 1783.12 169.591C1782.29 167.333 1781.07 165.575 1779.44 164.318C1777.83 163.061 1775.81 162.433 1773.4 162.433C1771 162.433 1769.01 163.061 1767.42 164.318C1765.83 165.556 1764.63 167.294 1763.82 169.532C1763.04 171.771 1762.65 174.393 1762.65 177.398V178.105C1762.65 181.109 1763.04 183.741 1763.82 185.999C1764.63 188.258 1765.83 190.016 1767.42 191.272C1769.03 192.529 1771.03 193.158 1773.43 193.158Z" fill="#404040"/>
</svg>
