<svg width="1955" height="1082" viewBox="0 0 1955 1082" fill="none" xmlns="http://www.w3.org/2000/svg">
<g opacity="0.5">
<path fill-rule="evenodd" clip-rule="evenodd" d="M359.78 477.174H251.068L138.011 593.38H253.919L354.427 693.887H462.517L563.024 593.38H661.069L761.576 693.887H869.667L970.174 593.38H1068.14L1168.65 693.887H1276.74L1377.24 593.38H1475.21L1575.72 693.887H1632.35V680.989H1581.06L1480.55 580.482H1390.14H1389.84L1477.8 490.073H1575.71L1678.45 593.38H1766.07L1680.72 678.737L1693.68 684.01L1797.21 580.482H1683.82L1581.07 477.174H1472.36L1371.85 580.482H1276.75L1174 477.174H1065.29L964.779 580.482H869.677L766.929 477.174H658.217L557.71 580.482H462.527L359.78 477.174ZM575.922 580.482H575.705L663.664 490.073H761.566L864.314 593.38H951.933L864.324 680.989H766.919L666.412 580.482H575.922Z" fill="#404040"/>
<path fill-rule="evenodd" clip-rule="evenodd" d="M327.737 863.292L138.011 784.615V725.584L327.737 646.906V725.717L240.812 755.22L327.737 784.248V863.292ZM213.368 759.814L200.796 755.377L213.368 750.754L314.687 716.365V666.445L151.061 734.299V775.899L314.687 843.753V793.648L213.368 759.814Z" fill="#404040"/>
<path fill-rule="evenodd" clip-rule="evenodd" d="M1626.71 863.292L1816.44 784.615V725.583L1626.71 646.906V725.717L1713.64 755.22L1626.71 784.248V863.292ZM1741.08 759.814L1753.65 755.376L1741.08 750.754L1639.76 716.365V666.445L1803.39 734.299V775.899L1639.76 843.753V793.648L1741.08 759.814Z" fill="#404040"/>
</g>
<path d="M527.369 801.68C527.369 804.513 526.632 807.12 525.159 809.5C523.798 811.881 521.702 813.977 518.868 815.791C515.921 817.604 512.124 819.078 507.477 820.211C502.943 821.231 497.616 821.742 491.495 821.742C486.395 821.742 481.408 821.231 476.534 820.211C471.774 819.191 467.523 817.548 463.783 815.281C460.043 813.127 456.982 810.294 454.602 806.78C452.222 803.153 450.862 798.846 450.522 793.859H405.468C405.468 801.34 407.281 808.82 410.908 816.301C414.648 823.668 420.089 830.242 427.23 836.023C434.37 841.917 443.211 846.677 453.752 850.304C464.406 853.931 476.647 855.745 490.475 855.745C503.057 855.745 514.448 854.385 524.649 851.664C534.849 848.831 543.577 844.92 550.831 839.933C557.972 834.946 563.469 829.052 567.322 822.252C571.29 815.338 573.273 807.8 573.273 799.639C573.273 790.799 571.29 783.205 567.322 776.857C563.469 770.397 558.085 764.9 551.171 760.366C544.257 755.945 536.04 752.318 526.519 749.485C516.998 746.651 506.684 744.328 495.576 742.514C487.868 741.381 481.521 740.077 476.534 738.604C471.547 737.017 467.637 735.26 464.803 733.333C461.856 731.52 459.816 729.48 458.682 727.213C457.549 724.833 456.982 722.282 456.982 719.562C456.982 716.842 457.606 714.292 458.852 711.911C460.213 709.418 462.139 707.264 464.633 705.451C467.353 703.411 470.867 701.824 475.174 700.69C479.481 699.557 484.525 698.99 490.305 698.99C497.106 698.99 502.887 699.84 507.647 701.54C512.521 703.241 516.374 705.507 519.208 708.341C521.248 710.495 522.778 712.931 523.798 715.652C524.819 718.259 525.329 721.092 525.329 724.152H572.593C572.593 715.652 570.723 707.774 566.982 700.52C563.242 693.266 557.858 686.976 550.831 681.649C543.69 676.435 535.019 672.354 524.819 669.407C514.618 666.347 503.113 664.817 490.305 664.817C478.064 664.817 467.07 666.347 457.322 669.407C447.575 672.468 439.301 676.605 432.5 681.819C425.699 687.032 420.486 693.096 416.859 700.01C413.232 706.924 411.418 714.178 411.418 721.772C411.418 729.593 413.175 736.507 416.689 742.514C420.316 748.521 425.303 753.792 431.65 758.326C437.997 762.973 445.591 766.94 454.432 770.227C463.386 773.4 473.247 776.064 484.015 778.217C492.516 779.804 499.543 781.391 505.097 782.978C510.651 784.565 515.128 786.265 518.528 788.078C521.815 790.005 524.082 792.045 525.329 794.199C526.689 796.352 527.369 798.846 527.369 801.68ZM767.567 852.174H815.511V849.284C813.131 844.637 811.318 839.083 810.071 832.623C808.824 826.162 808.201 818.001 808.201 808.14V729.253C808.201 718.599 806.217 709.248 802.25 701.2C798.283 693.04 792.786 686.296 785.759 680.968C778.731 675.641 770.401 671.618 760.766 668.897C751.245 666.177 740.931 664.817 729.824 664.817C717.469 664.817 706.475 666.404 696.84 669.577C687.32 672.638 679.272 676.831 672.698 682.159C666.011 687.486 660.91 693.663 657.397 700.69C653.996 707.718 652.296 715.142 652.296 722.962H699.561C699.561 719.675 700.014 716.672 700.921 713.952C701.941 711.231 703.471 708.908 705.511 706.981C707.778 704.827 710.725 703.184 714.352 702.05C717.979 700.804 722.286 700.18 727.273 700.18C732.94 700.18 737.871 700.917 742.065 702.39C746.372 703.751 749.942 705.734 752.776 708.341C755.496 710.835 757.536 713.838 758.896 717.352C760.256 720.752 760.936 724.606 760.936 728.913V739.794H734.584C720.983 739.794 708.912 741.041 698.371 743.534C687.943 745.914 679.159 749.428 672.018 754.075C664.084 759.176 658.134 765.693 654.167 773.627C650.199 781.448 648.216 790.459 648.216 800.66C648.216 808.594 649.803 815.961 652.976 822.762C656.15 829.449 660.57 835.229 666.238 840.103C671.905 844.977 678.649 848.774 686.469 851.494C694.404 854.215 703.074 855.575 712.482 855.575C718.262 855.575 723.646 855.008 728.633 853.874C733.621 852.854 738.211 851.381 742.405 849.454C746.485 847.641 750.225 845.487 753.626 842.993C757.026 840.5 760.03 837.836 762.637 835.003C763.203 838.29 763.883 841.407 764.677 844.354C765.47 847.301 766.434 849.907 767.567 852.174ZM722.513 819.021C718.092 819.021 714.182 818.511 710.782 817.491C707.495 816.358 704.718 814.884 702.451 813.071C700.184 811.144 698.427 808.82 697.18 806.1C696.047 803.266 695.48 800.206 695.48 796.919C695.48 792.725 696.274 788.872 697.861 785.358C699.447 781.731 701.884 778.614 705.171 776.007C708.458 773.514 712.709 771.587 717.922 770.227C723.136 768.753 729.427 768.017 736.794 768.017H760.936V799.639C759.576 802.02 757.706 804.4 755.326 806.78C752.946 809.047 750.112 811.087 746.825 812.901C743.538 814.714 739.854 816.188 735.774 817.321C731.694 818.455 727.273 819.021 722.513 819.021ZM925.988 668.217H885.354V852.174H928.368V714.462C928.935 712.988 929.558 711.628 930.238 710.381C930.918 709.134 931.712 708.058 932.618 707.151C933.865 705.904 935.282 704.941 936.869 704.261C938.455 703.581 940.269 703.241 942.309 703.241C944.123 703.241 945.823 703.524 947.41 704.091C948.996 704.544 950.413 705.394 951.66 706.641C952.793 707.888 953.7 709.644 954.38 711.911C955.06 714.178 955.4 717.068 955.4 720.582V852.174H997.054V716.502C997.054 715.142 997.054 714.065 997.054 713.271C997.054 712.478 997.054 711.968 997.054 711.741C997.621 710.495 998.301 709.418 999.094 708.511C999.888 707.491 1000.79 706.584 1001.81 705.791C1003.06 704.997 1004.36 704.374 1005.73 703.921C1007.2 703.467 1008.84 703.241 1010.66 703.241C1012.36 703.241 1014 703.524 1015.59 704.091C1017.29 704.544 1018.76 705.394 1020.01 706.641C1021.25 708.001 1022.22 709.814 1022.9 712.081C1023.69 714.348 1024.09 717.239 1024.09 720.752V852.174H1067.1V720.922C1067.1 710.721 1066.08 702.107 1064.04 695.08C1062.11 687.939 1059.39 682.102 1055.88 677.568C1052.25 673.148 1048 669.917 1043.13 667.877C1038.37 665.837 1033.21 664.817 1027.66 664.817C1023.24 664.817 1019.16 665.384 1015.42 666.517C1011.68 667.651 1008.33 669.237 1005.39 671.278C1003 672.864 1000.79 674.791 998.754 677.058C996.828 679.212 995.071 681.649 993.484 684.369C992.464 681.535 991.217 679.042 989.744 676.888C988.383 674.621 986.74 672.694 984.813 671.108C982.32 668.954 979.373 667.367 975.972 666.347C972.572 665.327 968.718 664.817 964.411 664.817C955.57 664.817 948.033 667.141 941.799 671.788C935.679 676.321 930.861 682.555 927.348 690.489L925.988 668.217ZM1141.19 922.901H1188.46V836.193C1190.61 838.573 1192.88 840.727 1195.26 842.653C1197.64 844.58 1200.13 846.337 1202.74 847.924C1207.16 850.417 1211.92 852.288 1217.02 853.534C1222.23 854.895 1227.9 855.575 1234.02 855.575C1245.58 855.575 1255.84 853.194 1264.79 848.434C1273.75 843.674 1281.29 837.1 1287.41 828.712C1293.41 820.438 1297.95 810.577 1301.01 799.129C1304.18 787.682 1305.77 775.271 1305.77 761.896V758.326C1305.77 744.384 1304.18 731.69 1301.01 720.242C1297.95 708.681 1293.36 698.763 1287.24 690.489C1281.12 682.329 1273.58 676.038 1264.62 671.618C1255.67 667.084 1245.36 664.817 1233.68 664.817C1228.01 664.817 1222.69 665.44 1217.7 666.687C1212.83 667.821 1208.35 669.464 1204.27 671.618C1200.87 673.431 1197.7 675.585 1194.75 678.078C1191.8 680.458 1189.08 683.179 1186.59 686.239L1184.89 668.217H1141.19V922.901ZM1258.5 758.326V761.896C1258.5 769.49 1257.82 776.687 1256.46 783.488C1255.1 790.175 1252.95 796.069 1250 801.17C1247.06 806.27 1243.2 810.294 1238.44 813.241C1233.8 816.188 1228.13 817.661 1221.44 817.661C1217.25 817.661 1213.45 817.264 1210.05 816.471C1206.65 815.564 1203.65 814.317 1201.04 812.731C1198.32 811.031 1195.88 808.99 1193.73 806.61C1191.69 804.23 1189.93 801.566 1188.46 798.619V721.772C1190.04 718.599 1191.91 715.822 1194.07 713.441C1196.34 711.061 1198.94 709.078 1201.89 707.491C1204.5 706.131 1207.39 705.111 1210.56 704.431C1213.73 703.637 1217.25 703.241 1221.1 703.241C1227.79 703.241 1233.46 704.657 1238.1 707.491C1242.86 710.325 1246.77 714.178 1249.83 719.052C1252.78 724.039 1254.93 729.933 1256.29 736.734C1257.77 743.421 1258.5 750.618 1258.5 758.326ZM1499.38 852.174H1547.33V849.284C1544.95 844.637 1543.13 839.083 1541.89 832.623C1540.64 826.162 1540.02 818.001 1540.02 808.14V729.253C1540.02 718.599 1538.03 709.248 1534.07 701.2C1530.1 693.04 1524.6 686.296 1517.57 680.968C1510.55 675.641 1502.22 671.618 1492.58 668.897C1483.06 666.177 1472.75 664.817 1461.64 664.817C1449.28 664.817 1438.29 666.404 1428.66 669.577C1419.14 672.638 1411.09 676.831 1404.51 682.159C1397.83 687.486 1392.73 693.663 1389.21 700.69C1385.81 707.718 1384.11 715.142 1384.11 722.962H1431.38C1431.38 719.675 1431.83 716.672 1432.74 713.952C1433.76 711.231 1435.29 708.908 1437.33 706.981C1439.59 704.827 1442.54 703.184 1446.17 702.05C1449.79 700.804 1454.1 700.18 1459.09 700.18C1464.76 700.18 1469.69 700.917 1473.88 702.39C1478.19 703.751 1481.76 705.734 1484.59 708.341C1487.31 710.835 1489.35 713.838 1490.71 717.352C1492.07 720.752 1492.75 724.606 1492.75 728.913V739.794H1466.4C1452.8 739.794 1440.73 741.041 1430.19 743.534C1419.76 745.914 1410.97 749.428 1403.83 754.075C1395.9 759.176 1389.95 765.693 1385.98 773.627C1382.02 781.448 1380.03 790.459 1380.03 800.66C1380.03 808.594 1381.62 815.961 1384.79 822.762C1387.97 829.449 1392.39 835.229 1398.05 840.103C1403.72 844.977 1410.46 848.774 1418.29 851.494C1426.22 854.215 1434.89 855.575 1444.3 855.575C1450.08 855.575 1455.46 855.008 1460.45 853.874C1465.44 852.854 1470.03 851.381 1474.22 849.454C1478.3 847.641 1482.04 845.487 1485.44 842.993C1488.84 840.5 1491.85 837.836 1494.45 835.003C1495.02 838.29 1495.7 841.407 1496.49 844.354C1497.29 847.301 1498.25 849.907 1499.38 852.174ZM1454.33 819.021C1449.91 819.021 1446 818.511 1442.6 817.491C1439.31 816.358 1436.53 814.884 1434.27 813.071C1432 811.144 1430.24 808.82 1429 806.1C1427.86 803.266 1427.3 800.206 1427.3 796.919C1427.3 792.725 1428.09 788.872 1429.68 785.358C1431.26 781.731 1433.7 778.614 1436.99 776.007C1440.27 773.514 1444.52 771.587 1449.74 770.227C1454.95 768.753 1461.24 768.017 1468.61 768.017H1492.75V799.639C1491.39 802.02 1489.52 804.4 1487.14 806.78C1484.76 809.047 1481.93 811.087 1478.64 812.901C1475.35 814.714 1471.67 816.188 1467.59 817.321C1463.51 818.455 1459.09 819.021 1454.33 819.021Z" fill="#404040"/>
<path d="M161.849 503.857V471.871L187.912 466.624V294.845L161.849 289.598V257.443H361.215V327.339H320.089L318.397 299.076H242.069V361.864H327.028V403.328H242.069V466.624L267.963 471.871V503.857H161.849ZM383.378 503.857V471.871L409.442 466.624V294.845L383.378 289.598V257.273H502.355C521.535 257.273 538.065 260.32 551.942 266.412C565.933 272.392 576.651 281.024 584.098 292.306C591.657 303.476 595.437 316.79 595.437 332.247C595.437 346.689 591.657 359.89 584.098 371.849C576.651 383.696 566.271 393.117 552.958 400.113C539.757 407.108 524.582 410.606 507.432 410.606L463.599 410.267V466.624L489.492 471.871V503.857H383.378ZM540.772 503.857L503.201 402.313L551.265 388.266L584.267 466.624L606.438 471.871V503.857H540.772ZM463.599 368.634H502.186C515.161 368.634 524.977 365.813 531.633 360.172C538.29 354.418 541.619 346.125 541.619 335.293C541.619 324.236 538.234 315.436 531.464 308.892C524.807 302.235 515.104 298.907 502.355 298.907H463.599V368.634ZM746.562 507.411C729.751 507.411 714.35 504.308 700.36 498.103C686.482 491.897 674.466 483.153 664.311 471.871C654.157 460.588 646.315 447.387 640.787 432.268C635.371 417.037 632.663 400.451 632.663 382.512V378.619C632.663 360.792 635.371 344.32 640.787 329.201C646.315 314.082 654.101 300.881 664.142 289.598C674.297 278.316 686.313 269.572 700.19 263.366C714.181 257.048 729.582 253.889 746.393 253.889C763.092 253.889 778.436 257.048 792.427 263.366C806.417 269.572 818.603 278.316 828.983 289.598C839.363 300.881 847.373 314.082 853.015 329.201C858.656 344.32 861.477 360.792 861.477 378.619V382.512C861.477 400.451 858.656 417.037 853.015 432.268C847.373 447.387 839.363 460.588 828.983 471.871C818.715 483.153 806.586 491.897 792.596 498.103C778.605 504.308 763.261 507.411 746.562 507.411ZM746.562 465.947C759.763 465.947 770.877 462.45 779.903 455.454C789.042 448.459 795.924 438.756 800.55 426.345C805.176 413.821 807.489 399.21 807.489 382.512V378.281C807.489 361.921 805.12 347.535 800.381 335.124C795.755 322.713 788.873 313.01 779.734 306.015C770.707 299.019 759.594 295.522 746.393 295.522C732.854 295.522 721.684 299.019 712.883 306.015C704.083 312.897 697.539 322.544 693.252 334.955C688.964 347.253 686.82 361.695 686.82 378.281V382.512C686.82 399.21 688.964 413.821 693.252 426.345C697.652 438.869 704.252 448.628 713.053 455.624C721.966 462.506 733.136 465.947 746.562 465.947ZM886.348 503.857V471.871L912.073 466.624V294.845L886.348 289.598V257.443H912.073H967.246L1070.48 422.114L1071.5 421.945V294.845L1039.51 289.598V257.443H1119.73H1145.63V289.598L1119.73 294.845V503.857H1066.76L961.322 341.725H960.307V466.624L992.462 471.871V503.857H886.348ZM1221.1 503.857V471.871L1247.16 466.624V299.245H1205.53L1203.33 327.339H1162.54V257.443H1386.62V327.339H1345.32L1343.29 299.245H1301.32V466.624L1327.38 471.871V503.857H1221.1ZM1406.58 503.857V471.871L1432.64 466.624V294.845L1406.58 289.598V257.443H1512.53V289.598L1486.63 294.845V466.624L1512.53 471.871V503.857H1406.58ZM1536.04 503.857V471.871L1561.77 466.624V294.845L1536.04 289.598V257.443H1561.77H1616.94L1720.18 422.114L1721.19 421.945V294.845L1689.21 289.598V257.443H1769.43H1795.32V289.598L1769.43 294.845V503.857H1716.45L1611.02 341.725H1610V466.624L1642.16 471.871V503.857H1536.04Z" fill="#404040"/>
<path d="M162.924 198.871V193.715L170.171 192.832V163.786H162.836V158.867L178.743 155.98V192.832L185.99 193.715V198.871H162.924ZM192.983 198.871V193.244L206.887 178.309C208.301 176.718 209.411 175.334 210.216 174.155C211.021 172.977 211.591 171.907 211.924 170.944C212.278 169.962 212.455 168.99 212.455 168.028C212.455 166.359 211.974 164.945 211.011 163.786C210.069 162.627 208.674 162.048 206.828 162.048C204.845 162.048 203.342 162.696 202.321 163.992C201.3 165.269 200.789 167.036 200.789 169.295H192.423L192.364 169.118C192.305 166.526 192.855 164.199 194.014 162.136C195.192 160.055 196.881 158.405 199.081 157.188C201.3 155.97 203.912 155.361 206.917 155.361C209.862 155.361 212.386 155.891 214.487 156.952C216.608 157.993 218.238 159.456 219.377 161.341C220.516 163.226 221.086 165.406 221.086 167.881C221.086 169.589 220.782 171.2 220.173 172.712C219.564 174.204 218.611 175.785 217.315 177.455C216.019 179.124 214.35 181.039 212.307 183.199L203.971 192.154L204.03 192.301H215.135L215.577 188.207H222.235V198.871H192.983ZM248.8 198.871V191.329H257.372V198.871H248.8ZM265.043 198.871V193.715L269.609 192.832V162.048L265.043 161.164V155.98H298.331V167.557H291.732L291.349 162.608H278.211V173.389H292.734V180.017H278.211V192.272H292.056L292.439 187.146H298.979V198.871H265.043ZM306.591 198.871V193.715L311.216 192.743V162.166L306.591 161.164V155.98H311.216H325.414C329.244 155.98 332.622 156.883 335.548 158.69C338.474 160.477 340.752 162.961 342.382 166.143C344.032 169.305 344.857 172.938 344.857 177.042V177.838C344.857 181.903 344.042 185.526 342.412 188.708C340.801 191.869 338.543 194.354 335.636 196.16C332.73 197.967 329.362 198.871 325.532 198.871H306.591ZM319.817 192.301H325.09C327.467 192.301 329.48 191.683 331.129 190.446C332.779 189.189 334.036 187.47 334.9 185.29C335.784 183.111 336.226 180.626 336.226 177.838V177.013C336.226 174.185 335.784 171.691 334.9 169.53C334.036 167.351 332.779 165.652 331.129 164.434C329.48 163.197 327.467 162.578 325.09 162.578H319.817V192.301ZM351.614 198.871V193.715L356.18 192.832V162.048L351.614 161.164V155.98H369.348V161.164L364.782 162.048V192.832L369.348 193.715V198.871H351.614ZM396.078 199.489C391.915 199.489 388.292 198.625 385.208 196.897C382.125 195.149 379.739 192.684 378.05 189.503C376.381 186.302 375.546 182.521 375.546 178.162V176.718C375.546 172.555 376.351 168.873 377.962 165.671C379.592 162.451 381.909 159.927 384.914 158.101C387.918 156.274 391.493 155.361 395.636 155.361C398.543 155.361 401.263 155.774 403.796 156.598C406.349 157.423 408.627 158.68 410.631 160.369V170.738H404.238L403.354 164.228C402.706 163.757 401.999 163.354 401.233 163.02C400.468 162.686 399.633 162.431 398.73 162.254C397.846 162.078 396.883 161.989 395.843 161.989C393.407 161.989 391.316 162.588 389.568 163.786C387.82 164.984 386.475 166.683 385.532 168.882C384.609 171.062 384.148 173.655 384.148 176.659V178.162C384.148 181.166 384.639 183.768 385.621 185.968C386.603 188.168 387.997 189.876 389.804 191.094C391.611 192.292 393.751 192.891 396.226 192.891C397.463 192.891 398.7 192.753 399.937 192.478C401.194 192.184 402.333 191.811 403.354 191.359L404.238 185.32H410.631V195.571C408.961 196.671 406.88 197.604 404.385 198.37C401.891 199.116 399.122 199.489 396.078 199.489ZM391.689 212.392L391.483 207.679C392.661 207.679 393.594 207.482 394.281 207.089C394.988 206.716 395.342 206.137 395.342 205.351C395.342 204.507 394.998 203.918 394.311 203.584C393.623 203.27 392.534 203.073 391.041 202.995L392.043 198.34H398.376L397.993 200.52C399.309 200.736 400.409 201.227 401.292 201.993C402.176 202.779 402.618 203.937 402.618 205.469C402.618 207.571 401.666 209.25 399.761 210.507C397.856 211.763 395.165 212.392 391.689 212.392ZM417.182 198.871V193.715L420.246 193.274L433.885 155.98H442.693L456.243 193.274L459.307 193.715V198.871H444.696V193.715L447.671 193.185L445.786 187.294H430.703L428.818 193.185L431.793 193.715V198.871H417.182ZM432.736 180.96H443.753L438.745 166.261L438.333 164.964H438.156L437.714 166.349L432.736 180.96ZM431.705 152.769L427.257 151.591C427.257 150.275 427.561 149.057 428.17 147.938C428.798 146.818 429.623 145.915 430.644 145.228C431.666 144.54 432.775 144.197 433.973 144.197C434.916 144.197 435.898 144.432 436.919 144.904C437.94 145.375 438.912 145.856 439.835 146.347C440.778 146.818 441.573 147.054 442.221 147.054C443.027 147.034 443.665 146.73 444.136 146.141C444.627 145.532 444.873 144.766 444.873 143.843L449.321 145.08C449.321 146.435 449.006 147.673 448.378 148.792C447.769 149.892 446.954 150.775 445.933 151.443C444.912 152.091 443.792 152.415 442.575 152.415C441.554 152.415 440.532 152.18 439.511 151.708C438.49 151.237 437.538 150.766 436.654 150.294C435.77 149.803 434.994 149.558 434.327 149.558C433.521 149.558 432.883 149.872 432.412 150.501C431.94 151.129 431.705 151.885 431.705 152.769ZM483.062 199.489C480.175 199.489 477.543 198.949 475.167 197.869C472.791 196.789 470.739 195.277 469.01 193.332C467.302 191.369 465.986 189.071 465.063 186.439C464.14 183.788 463.679 180.891 463.679 177.749V177.101C463.679 173.979 464.14 171.102 465.063 168.47C465.986 165.819 467.302 163.511 469.01 161.547C470.719 159.583 472.761 158.061 475.138 156.981C477.514 155.901 480.146 155.361 483.032 155.361C485.939 155.361 488.59 155.901 490.986 156.981C493.382 158.061 495.444 159.583 497.172 161.547C498.9 163.511 500.226 165.819 501.149 168.47C502.092 171.102 502.563 173.979 502.563 177.101V177.749C502.563 180.891 502.092 183.788 501.149 186.439C500.226 189.071 498.9 191.369 497.172 193.332C495.444 195.277 493.382 196.789 490.986 197.869C488.61 198.949 485.968 199.489 483.062 199.489ZM483.062 192.802C485.497 192.802 487.52 192.174 489.13 190.917C490.741 189.66 491.948 187.902 492.754 185.644C493.578 183.386 493.991 180.754 493.991 177.749V177.042C493.991 174.077 493.578 171.475 492.754 169.236C491.929 166.977 490.701 165.22 489.071 163.963C487.461 162.706 485.448 162.078 483.032 162.078C480.637 162.078 478.643 162.706 477.052 163.963C475.462 165.2 474.264 166.938 473.459 169.177C472.673 171.416 472.28 174.038 472.28 177.042V177.749C472.28 180.754 472.673 183.386 473.459 185.644C474.264 187.902 475.462 189.66 477.052 190.917C478.663 192.174 480.666 192.802 483.062 192.802Z" fill="#404040"/>
<path d="M1383.29 198.871V193.244L1397.19 178.309C1398.6 176.718 1399.71 175.334 1400.52 174.155C1401.32 172.977 1401.89 171.907 1402.23 170.944C1402.58 169.962 1402.76 168.99 1402.76 168.028C1402.76 166.359 1402.28 164.945 1401.31 163.786C1400.37 162.627 1398.98 162.048 1397.13 162.048C1395.15 162.048 1393.65 162.696 1392.62 163.992C1391.6 165.269 1391.09 167.036 1391.09 169.295H1382.73L1382.67 169.118C1382.61 166.526 1383.16 164.199 1384.32 162.136C1385.5 160.055 1387.18 158.405 1389.38 157.188C1391.6 155.97 1394.21 155.361 1397.22 155.361C1400.17 155.361 1402.69 155.891 1404.79 156.952C1406.91 157.993 1408.54 159.456 1409.68 161.341C1410.82 163.226 1411.39 165.406 1411.39 167.881C1411.39 169.589 1411.08 171.2 1410.48 172.712C1409.87 174.204 1408.91 175.785 1407.62 177.455C1406.32 179.124 1404.65 181.039 1402.61 183.199L1394.27 192.154L1394.33 192.301H1405.44L1405.88 188.207H1412.54V198.871H1383.29ZM1432.26 199.489C1430.76 199.489 1429.22 199.332 1427.63 199.018C1426.06 198.723 1424.61 198.281 1423.27 197.692L1424.24 191.477C1425.48 191.928 1426.75 192.282 1428.04 192.537C1429.36 192.773 1430.65 192.891 1431.9 192.891C1434.4 192.891 1436.36 192.036 1437.79 190.328C1439.23 188.619 1439.97 185.958 1440 182.345L1439.95 181.697C1438.98 182.934 1437.82 183.876 1436.47 184.525C1435.13 185.153 1433.66 185.467 1432.05 185.467C1429.52 185.467 1427.29 184.878 1425.36 183.7C1423.46 182.502 1421.98 180.803 1420.92 178.603C1419.87 176.404 1419.35 173.763 1419.35 170.679C1419.35 167.792 1419.97 165.19 1421.21 162.873C1422.47 160.556 1424.18 158.729 1426.34 157.394C1428.52 156.039 1430.99 155.361 1433.76 155.361C1436.69 155.361 1439.26 156.039 1441.48 157.394C1443.7 158.749 1445.42 160.713 1446.66 163.285C1447.9 165.858 1448.52 168.961 1448.52 172.594V181.903C1448.52 185.595 1447.82 188.757 1446.43 191.388C1445.05 194.02 1443.14 196.033 1440.68 197.427C1438.25 198.802 1435.44 199.489 1432.26 199.489ZM1433.91 179.163C1435.22 179.163 1436.4 178.898 1437.44 178.368C1438.48 177.818 1439.32 177.091 1439.95 176.188V171.592C1439.95 168.431 1439.4 166.045 1438.3 164.434C1437.2 162.804 1435.7 161.989 1433.82 161.989C1432.66 161.989 1431.64 162.382 1430.75 163.167C1429.89 163.933 1429.2 164.984 1428.69 166.32C1428.2 167.635 1427.96 169.089 1427.96 170.679C1427.96 172.407 1428.17 173.91 1428.6 175.186C1429.06 176.463 1429.72 177.445 1430.61 178.132C1431.49 178.82 1432.59 179.163 1433.91 179.163ZM1473.61 198.871V193.715L1478.23 192.743V162.166L1473.61 161.164V155.98H1478.23H1492.43C1496.26 155.98 1499.64 156.883 1502.57 158.69C1505.49 160.477 1507.77 162.961 1509.4 166.143C1511.05 169.305 1511.88 172.938 1511.88 177.042V177.838C1511.88 181.903 1511.06 185.526 1509.43 188.708C1507.82 191.869 1505.56 194.354 1502.66 196.16C1499.75 197.967 1496.38 198.871 1492.55 198.871H1473.61ZM1486.84 192.301H1492.11C1494.49 192.301 1496.5 191.683 1498.15 190.446C1499.8 189.189 1501.06 187.47 1501.92 185.29C1502.8 183.111 1503.24 180.626 1503.24 177.838V177.013C1503.24 174.185 1502.8 171.691 1501.92 169.53C1501.06 167.351 1499.8 165.652 1498.15 164.434C1496.5 163.197 1494.49 162.578 1492.11 162.578H1486.84V192.301ZM1518.63 198.871V193.715L1523.2 192.832V162.048L1518.63 161.164V155.98H1551.92V167.557H1545.32L1544.94 162.608H1531.8V173.389H1546.32V180.017H1531.8V192.272H1545.65L1546.03 187.146H1552.57V198.871H1518.63ZM1592.63 199.489C1589.64 199.489 1587.02 198.988 1584.76 197.987C1582.52 196.966 1580.75 195.414 1579.46 193.332C1578.18 191.251 1577.48 188.609 1577.37 185.408L1577.43 185.232H1585.5C1585.65 188.04 1586.28 190.004 1587.38 191.123C1588.48 192.223 1589.95 192.773 1591.77 192.773C1592.95 192.773 1593.98 192.517 1594.87 192.007C1595.77 191.496 1596.48 190.74 1596.99 189.739C1597.52 188.717 1597.78 187.47 1597.78 185.997V162.048L1592.01 161.164V155.98H1610.95V161.164L1606.35 162.048V185.997C1606.35 188.747 1605.82 191.133 1604.76 193.156C1603.7 195.179 1602.15 196.74 1600.11 197.84C1598.07 198.939 1595.57 199.489 1592.63 199.489ZM1637.62 199.489C1634.22 199.489 1631.23 198.9 1628.64 197.722C1626.06 196.543 1624.06 194.835 1622.63 192.596C1621.19 190.357 1620.48 187.637 1620.48 184.436V162.048L1615.91 161.164V155.98H1633.67V161.164L1629.08 162.048V184.436C1629.08 186.321 1629.42 187.893 1630.11 189.149C1630.8 190.406 1631.78 191.349 1633.05 191.977C1634.33 192.586 1635.85 192.891 1637.62 192.891C1639.43 192.891 1640.97 192.586 1642.25 191.977C1643.54 191.349 1644.53 190.406 1645.22 189.149C1645.91 187.893 1646.25 186.321 1646.25 184.436V162.048L1641.69 161.164V155.98H1659.45V161.164L1654.85 162.048V184.436C1654.85 187.637 1654.13 190.367 1652.67 192.626C1651.24 194.864 1649.23 196.573 1646.63 197.751C1644.06 198.91 1641.06 199.489 1637.62 199.489ZM1665.26 198.871V193.715L1669.83 192.832V162.048L1665.26 161.164V155.98H1669.83H1678.43H1683.62V161.164L1678.43 162.048V192.272H1690.54L1690.95 185.997H1697.52V198.871H1665.26ZM1703.63 198.871V193.715L1708.2 192.832V162.048L1703.63 161.164V155.98H1721.39V161.164L1716.8 162.048V174.42H1734.3V162.048L1729.7 161.164V155.98H1734.3H1742.87H1747.46V161.164L1742.87 162.048V192.832L1747.46 193.715V198.871H1729.7V193.715L1734.3 192.832V181.049H1716.8V192.832L1721.39 193.715V198.871H1703.63ZM1773.43 199.489C1770.54 199.489 1767.91 198.949 1765.53 197.869C1763.16 196.789 1761.1 195.277 1759.38 193.332C1757.67 191.369 1756.35 189.071 1755.43 186.439C1754.51 183.788 1754.04 180.891 1754.04 177.749V177.101C1754.04 173.979 1754.51 171.102 1755.43 168.47C1756.35 165.819 1757.67 163.511 1759.38 161.547C1761.08 159.583 1763.13 158.061 1765.5 156.981C1767.88 155.901 1770.51 155.361 1773.4 155.361C1776.3 155.361 1778.96 155.901 1781.35 156.981C1783.75 158.061 1785.81 159.583 1787.54 161.547C1789.27 163.511 1790.59 165.819 1791.51 168.47C1792.46 171.102 1792.93 173.979 1792.93 177.101V177.749C1792.93 180.891 1792.46 183.788 1791.51 186.439C1790.59 189.071 1789.27 191.369 1787.54 193.332C1785.81 195.277 1783.75 196.789 1781.35 197.869C1778.98 198.949 1776.33 199.489 1773.43 199.489ZM1773.43 192.802C1775.86 192.802 1777.89 192.174 1779.5 190.917C1781.11 189.66 1782.31 187.902 1783.12 185.644C1783.94 183.386 1784.36 180.754 1784.36 177.749V177.042C1784.36 174.077 1783.94 171.475 1783.12 169.236C1782.29 166.977 1781.07 165.22 1779.44 163.963C1777.83 162.706 1775.81 162.078 1773.4 162.078C1771 162.078 1769.01 162.706 1767.42 163.963C1765.83 165.2 1764.63 166.938 1763.82 169.177C1763.04 171.416 1762.65 174.038 1762.65 177.042V177.749C1762.65 180.754 1763.04 183.386 1763.82 185.644C1764.63 187.902 1765.83 189.66 1767.42 190.917C1769.03 192.174 1771.03 192.802 1773.43 192.802Z" fill="#404040"/>
</svg>
