<svg width="77" height="103" viewBox="0 0 77 103" fill="none" xmlns="http://www.w3.org/2000/svg">
<path d="M38.6666 0.578637C29.2187 0.568219 20.0986 4.04744 13.0679 10.3546C6.03671 16.662 1.58351 25.3493 0.573112 34.74C-0.442515 44.1358 2.05751 53.568 7.58351 61.2293L8.58873 62.6408L36.1154 101.479C36.7144 102.282 37.6623 102.755 38.6675 102.755C39.6727 102.755 40.6206 102.282 41.2197 101.479L68.4023 63.1048L69.7461 61.2454C75.2773 53.584 77.7773 44.1468 76.7669 34.7508C75.7564 25.3549 71.3033 16.6681 64.2669 10.3601C57.2357 4.04757 48.1162 0.56837 38.6682 0.578904L38.6666 0.578637ZM38.6666 51.6666C33.4999 51.6666 28.8437 48.5521 26.8697 43.7812C24.8904 39.0104 25.9842 33.5156 29.6352 29.8638C33.2863 26.2076 38.7811 25.1138 43.5526 27.093C48.3286 29.067 51.4381 33.7233 51.4381 38.89C51.4328 45.9421 45.7192 51.6556 38.6672 51.666L38.6666 51.6666Z" fill="black"/>
</svg>
