<svg width="146" height="146" viewBox="0 0 146 146" fill="none" xmlns="http://www.w3.org/2000/svg">
<path d="M72.961 51.9647C67.3537 51.9647 62.0804 54.1481 58.1151 58.1134C49.9295 66.3006 49.9295 79.6196 58.1151 87.8051C62.0804 91.7704 67.352 93.9537 72.961 93.9537C78.5683 93.9537 83.84 91.7704 87.8053 87.8051C91.7722 83.8382 93.9555 78.5682 93.9555 72.9609C93.9555 67.3519 91.7722 62.0786 87.8069 58.1134C83.84 54.1481 78.5683 51.9647 72.961 51.9647ZM72.961 98.0671C66.253 98.0671 59.948 95.4543 55.2061 90.7124C45.418 80.926 45.418 64.9974 55.2061 55.206C59.9496 50.4625 66.2546 47.8514 72.961 47.8514C79.6674 47.8514 85.9724 50.4625 90.7143 55.206C95.4578 59.9479 98.0689 66.2528 98.0689 72.9609C98.0689 79.6673 95.4578 85.9706 90.7143 90.7124C85.9724 95.4543 79.6674 98.0671 72.961 98.0671Z" fill="#0E0E10"/>
<path d="M96.1503 52.6804L93.2413 49.7731L114.94 28.0711L117.849 30.9801L96.1503 52.6804Z" fill="#0E0E10"/>
<path d="M86.6238 45.3521L82.8231 43.7775L100.955 0.00161743L104.755 1.5762L86.6238 45.3521Z" fill="#0E0E10"/>
<path d="M70.9126 42.2276L70.9027 27.074L75.0161 27.0707L75.0259 42.2243L70.9126 42.2276Z" fill="#0E0E10"/>
<path d="M59.2998 45.3521L41.1648 1.57459L44.9655 0L63.1005 43.7775L59.2998 45.3521Z" fill="#0E0E10"/>
<path d="M49.77 52.6804L28.0696 30.9801L30.9769 28.0711L52.6772 49.7731L49.77 52.6804Z" fill="#0E0E10"/>
<path d="M43.7792 63.0987L0 44.9638L1.57464 41.1647L45.3537 59.2979L43.7792 63.0987Z" fill="#0E0E10"/>
<path d="M42.2293 75.0208L27.0775 75.0093L27.0807 70.896L42.2327 70.9075L42.2293 75.0208Z" fill="#0E0E10"/>
<path d="M1.57464 104.755L0 100.955L43.7775 82.8214L45.3521 86.6204L1.57464 104.755Z" fill="#0E0E10"/>
<path d="M30.9785 117.851L28.0696 114.943L49.7782 93.2347L52.6872 96.1437L30.9785 117.851Z" fill="#0E0E10"/>
<path d="M44.9655 145.918L41.1648 144.344L59.2998 100.568L63.0989 102.143L44.9655 145.918Z" fill="#0E0E10"/>
<path d="M75.0161 103.689H70.9027V118.831H75.0161V103.689Z" fill="#0E0E10"/>
<path d="M100.953 145.92L82.8215 102.143L86.6223 100.568L104.754 144.345L100.953 145.92Z" fill="#0E0E10"/>
<path d="M114.94 117.852L93.2413 96.1519L96.1503 93.2429L117.849 114.945L114.94 117.852Z" fill="#0E0E10"/>
<path d="M144.346 104.757L100.57 86.6221L102.143 82.823L145.92 100.956L144.346 104.757Z" fill="#0E0E10"/>
<path d="M118.84 70.896H103.696V75.0093H118.84V70.896Z" fill="#0E0E10"/>
<path d="M102.144 63.0987L100.57 59.298L144.346 41.1664L145.92 44.9654L102.144 63.0987Z" fill="#0E0E10"/>
</svg>
