<svg width="1834" height="1426" viewBox="0 0 1834 1426" fill="none" xmlns="http://www.w3.org/2000/svg">
<path fill-rule="evenodd" clip-rule="evenodd" d="M1090.07 1.2627C1092.98 -0.420849 1096.58 -0.420903 1099.49 1.26256L1165.4 39.3081L1222.65 6.25812C1225.56 4.57464 1229.16 4.57476 1232.07 6.25845L1451.41 132.895L1508.63 99.8552C1511.55 98.1713 1515.14 98.1713 1518.06 99.8553L1632.88 166.155C1635.8 167.839 1637.59 170.951 1637.59 174.318L1637.59 240.388L1793.03 330.123C1795.95 331.807 1797.74 334.919 1797.74 338.286L1797.74 404.393L1803.66 407.809C1806.58 409.493 1808.38 412.605 1808.38 415.973L1808.38 488.267C1808.38 491.635 1806.58 494.746 1803.66 496.43L1705.65 553.022C1702.73 554.706 1699.14 554.705 1696.22 553.021L1623.63 511.106C1620.72 509.422 1618.92 506.31 1618.92 502.943L1618.92 430.648C1618.92 427.281 1620.72 424.169 1623.63 422.485L1644.9 410.208L1499.56 326.307C1496.65 324.623 1494.85 321.511 1494.85 318.144L1494.85 252.039L1451.41 226.957L1394.17 260.007C1391.25 261.69 1387.66 261.69 1384.74 260.007L1167.38 134.512L1164.34 136.265L1154.91 119.943L1157.95 118.187L1157.95 67.6587L1074.08 116.086C1071.16 117.77 1067.57 117.77 1064.66 116.086L992.059 74.1705L994.911 69.2314H987.346V66.0078C987.346 62.6403 989.143 59.5286 992.059 57.8449L1090.07 1.2627ZM1015.62 66.0082L1069.37 97.0396L1148.52 51.3341L1094.78 20.3092L1015.62 66.0082ZM1176.8 67.6579L1176.8 118.185L1380.03 235.518V184.991L1176.8 67.6579ZM1398.88 184.991V235.518L1441.98 210.632V160.105L1398.88 184.991ZM1460.83 160.105V210.632L1503.63 235.339L1547.39 210.078L1460.83 160.105ZM1585.09 210.078L1618.74 229.505L1618.74 190.645L1585.09 210.078ZM1609.32 174.318L1513.34 118.902L1470.26 143.779L1566.24 199.195L1609.32 174.318ZM1566.24 220.962L1523.13 245.85L1726.35 363.182L1769.47 338.287L1566.24 220.962ZM1778.89 354.613L1745.21 374.065L1778.89 393.511L1778.89 354.613ZM1780.1 415.973L1726.35 384.95L1647.2 430.649L1700.93 461.68L1780.1 415.973ZM1691.51 478.006L1637.77 446.976L1637.77 497.502L1691.51 528.532L1691.51 478.006ZM1710.36 528.533L1789.53 482.825L1789.53 432.298L1710.36 478.006L1710.36 528.533ZM1513.7 262.922L1513.7 312.702L1663.75 399.324L1706.86 374.439L1513.7 262.922ZM1432.56 143.779L1227.36 25.3049L1184.25 50.191L1389.45 168.665L1432.56 143.779ZM121.685 559.195C124.601 557.511 128.195 557.511 131.111 559.196L203.698 601.111C206.614 602.795 208.41 605.907 208.41 609.274V682.351C208.41 685.718 206.614 688.83 203.698 690.514L183.112 702.399L327.767 785.91C330.684 787.594 332.48 790.706 332.48 794.073V860.181L375.923 885.26L433.165 852.21C436.081 850.526 439.674 850.526 442.591 852.21L659.955 977.706L753.25 923.836C756.166 922.152 759.76 922.152 762.676 923.836L835.273 965.752C838.189 967.435 839.985 970.547 839.985 973.914V1046.99C839.985 1050.36 838.189 1053.47 835.272 1055.15L737.264 1111.74C734.348 1113.42 730.755 1113.42 727.839 1111.74L661.935 1073.69L604.683 1106.74C601.767 1108.42 598.174 1108.42 595.258 1106.74L375.923 980.104L318.7 1013.14C315.784 1014.83 312.19 1014.83 309.274 1013.14L194.451 946.844C191.534 945.16 189.738 942.049 189.738 938.681V872.611L34.3001 782.876C31.3836 781.192 29.587 778.08 29.587 774.713V708.606L23.6683 705.19C20.7516 703.506 18.9548 700.394 18.9548 697.027V623.95C18.9548 620.582 20.7513 617.471 23.6676 615.787L121.685 559.195ZM48.4383 717.961V769.271L197.809 855.503L242.239 829.853L48.4383 717.961ZM261.09 818.969L57.8648 701.636L100.977 676.749L304.204 794.074L261.09 818.969ZM313.629 810.4L279.942 829.852L313.629 849.299V810.4ZM119.828 665.865L164.26 691.516L189.559 676.909V625.601L119.828 665.865ZM180.136 609.274L100.977 654.981L47.2313 623.95L126.397 578.242L180.136 609.274ZM37.8061 640.276V691.449L82.125 665.865L37.8061 640.276ZM261.09 840.736L218.015 865.605L313.987 921.02L357.071 896.144L261.09 840.736ZM366.497 912.47L323.413 937.346V988.655L366.497 963.779V912.47ZM385.349 963.779L590.545 1082.25V1030.94L385.349 912.469V963.779ZM394.774 896.143L599.971 1014.62L643.081 989.731L437.878 871.257L394.774 896.143ZM651.265 1006.77L609.396 1030.94V1082.25L651.265 1058.08V1006.77ZM670.116 1056.65L723.126 1087.25V1035.94L670.116 1005.34V1056.65ZM741.977 1035.94V1087.25L821.134 1041.55V990.24L741.977 1035.94ZM811.708 973.914L732.551 1019.61L678.809 988.588L757.963 942.883L811.708 973.914ZM304.561 988.655L208.589 933.24V881.931L304.561 937.346V988.655Z" fill="black"/>
<path d="M649.201 474.666L248.469 242.06V539.835L649.201 772.441V474.666Z" fill="#F9703E"/>
<path d="M576.284 149.34L576.293 315.08L667.477 367.11L811.124 284.277L576.284 149.34Z" fill="#F9703E"/>
<path d="M1174.8 494.243V791.01L1423.64 647.485V351.143L1174.8 494.243Z" fill="black"/>
<path d="M649.201 475.703V772.469L898.038 628.945L893.702 335.1L649.201 475.703Z" fill="black"/>
<path d="M984.999 383.388V682.69L1079.79 628.21L1079.78 439.386L1234.27 350.2V241.24L984.999 383.388Z" fill="black"/>
<path d="M910.8 226.734L1159.63 83.0681V174.619L990.079 272.505L910.8 226.734Z" fill="black"/>
<path d="M432.712 231.569L576.284 149.34L576.293 315.08L432.712 231.569Z" fill="black"/>
<path d="M1328.62 295.72L1428.29 238.177V353.839L1328.62 295.72Z" fill="black"/>
<path d="M732.551 1030.5V1102L832.2 1046L830.559 973.914L732.551 1030.5Z" fill="black"/>
<path d="M599.97 1025.5V1098.58L660.69 1063.52V990.447L599.97 1025.5Z" fill="black"/>
<path d="M313.987 931.904L375.923 896.143V969.22L313.987 1004.98V931.904Z" fill="black"/>
<path d="M262.636 828.957L323.054 794.073V864.021L262.636 828.957Z" fill="black"/>
<path d="M103.069 665.865L198.984 609.274V682.351L164.892 702.767L103.069 665.865Z" fill="black"/>
<path d="M1700.93 472.564V544.859L1798.95 488.267L1796.9 417.16L1700.93 472.564Z" fill="black"/>
<path d="M1728.01 373.105L1788.32 338.286V410.581L1728.01 373.105Z" fill="black"/>
<path d="M1391.94 179.549L1449.59 144.825L1451.41 216.073L1421.68 233.238L1390 216.073L1391.94 179.549Z" fill="black"/>
<path d="M1566.24 210.079L1626.64 175.204L1628.17 246.613L1566.24 210.079Z" fill="black"/>
<path d="M1137.86 69.2313L1165.24 52.5762L1166.56 86.6499L1137.86 69.2313Z" fill="black"/>
<path d="M1079.78 439.386L1328.62 295.72L1423.64 350.578L1174.8 494.243L1079.78 439.386Z" fill="#F9703E"/>
<path d="M984.999 383.388L1234.27 241.24L1328.62 295.72L1428.29 238.177L1238.92 128.839L990.079 272.505L910.8 226.734L811.124 284.277L984.999 383.388Z" fill="#F9703E"/>
<path d="M1159.63 83.0682L1064.62 28.2109L818.231 172.536L910.8 226.734L1159.63 83.0682Z" fill="#F9703E"/>
<path fill-rule="evenodd" clip-rule="evenodd" d="M1059.85 20.0778C1062.78 18.365 1066.4 18.3536 1069.33 20.0481L1164.34 74.9053C1167.26 76.5891 1169.05 79.7007 1169.05 83.0681V158.603L1234.17 120.693C1237.09 118.993 1240.7 118.986 1243.63 120.676L1433 230.014C1435.92 231.697 1437.71 234.809 1437.71 238.177V534.698C1437.71 538.039 1435.94 541.13 1433.07 542.822V647.485C1433.07 650.854 1431.27 653.967 1428.35 655.65L1179.51 799.174C1176.59 800.86 1172.99 800.855 1170.07 799.163L1075.05 744.051C1072.15 742.365 1070.36 739.258 1070.36 735.897L1070.36 644.537L990.145 690.853C987.244 692.528 983.672 692.537 980.763 690.878L893.727 641.243L653.907 779.476C650.991 781.157 647.4 781.155 644.486 779.472L243.754 547.997C240.839 546.313 239.043 543.202 239.043 539.835V242.116C239.043 238.75 240.839 235.638 243.755 233.954L488.529 92.5791C491.446 90.8945 495.04 90.8943 497.957 92.5785L576.283 137.805L672.867 82.0314C675.801 80.3371 679.419 80.3479 682.343 82.0597L818.229 161.613L1059.85 20.0778ZM1064.65 39.1145L822.994 180.669C820.053 182.392 816.41 182.393 813.468 180.67L677.548 101.097L580.997 156.852C578.08 158.536 574.487 158.536 571.57 156.852L493.244 111.626L257.894 247.557V534.394L649.205 760.428L888.994 622.211C891.894 620.54 895.463 620.532 898.371 622.19L985.403 671.823L1075.08 620.047C1078 618.363 1081.59 618.363 1084.51 620.047C1087.42 621.731 1089.22 624.843 1089.22 628.211L1089.21 730.469L1174.82 780.121L1414.21 642.041V537.403C1414.21 534.062 1415.98 530.972 1418.86 529.279V243.618L1238.94 139.734L1164.37 183.142C1161.45 184.84 1157.85 184.849 1154.93 183.168C1152 181.486 1150.2 178.37 1150.2 174.996V88.5098L1064.65 39.1145Z" fill="black"/>
<path fill-rule="evenodd" clip-rule="evenodd" d="M1436.45 233.463C1439.05 237.972 1437.51 243.736 1433 246.339L1333.33 303.883C1330.42 305.566 1326.82 305.566 1323.91 303.882L1234.27 252.124L990.145 393.068C987.244 394.743 983.673 394.752 980.763 393.093L893.727 343.467L653.907 481.701C650.991 483.382 647.4 483.38 644.486 481.697L243.754 250.221C239.247 247.618 237.703 241.853 240.307 237.345C242.911 232.837 248.676 231.294 253.183 233.898L649.205 462.652L888.994 324.436C891.894 322.765 895.463 322.756 898.37 324.414L985.403 374.038L1229.56 233.077C1232.47 231.393 1236.07 231.393 1238.98 233.077L1328.62 284.836L1423.57 230.013C1428.08 227.411 1433.85 228.955 1436.45 233.463Z" fill="black"/>
<path fill-rule="evenodd" clip-rule="evenodd" d="M1323.91 287.557C1326.82 285.873 1330.42 285.873 1333.33 287.557L1428.35 342.414C1431.27 344.098 1433.07 347.209 1433.07 350.577C1433.07 353.944 1431.27 357.056 1428.35 358.74L1179.52 502.405C1176.6 504.089 1173.01 504.089 1170.09 502.406L1075.07 447.548C1072.15 445.865 1070.36 442.753 1070.36 439.385C1070.36 436.018 1072.15 432.906 1075.07 431.222L1323.91 287.557ZM1328.62 306.603L1098.63 439.385L1174.8 483.359L1404.79 350.577L1328.62 306.603Z" fill="black"/>
<path fill-rule="evenodd" clip-rule="evenodd" d="M1167.79 78.3563C1170.39 82.8649 1168.85 88.6293 1164.34 91.2314L829.475 284.496L898.427 324.447C902.931 327.057 904.467 332.824 901.857 337.328C899.247 341.832 893.48 343.368 888.976 340.758L810.637 295.368L672.188 375.273C669.272 376.956 665.68 376.956 662.764 375.273L427.999 239.732C425.083 238.048 423.286 234.936 423.286 231.569C423.286 228.201 425.083 225.089 428 223.406L571.571 140.526C574.492 138.84 578.091 138.843 581.009 140.534L810.656 273.592L1154.92 74.9043C1159.42 72.3021 1165.19 73.8477 1167.79 78.3563ZM791.818 284.464L576.275 159.578L451.564 231.569L667.477 356.226L791.818 284.464Z" fill="black"/>
<path fill-rule="evenodd" clip-rule="evenodd" d="M810.083 167.797C812.7 163.297 818.47 161.772 822.97 164.389L990.106 261.616L1154.93 166.826C1159.44 164.231 1165.2 165.785 1167.8 170.298C1170.39 174.81 1168.84 180.572 1164.33 183.167L994.778 280.676C991.854 282.357 988.255 282.348 985.339 280.652L813.491 180.684C808.991 178.066 807.465 172.297 810.083 167.797Z" fill="black"/>
<path fill-rule="evenodd" clip-rule="evenodd" d="M893.702 323.177C898.907 323.177 903.127 327.397 903.127 332.602V630.377C903.127 635.583 898.907 639.803 893.702 639.803C888.496 639.803 884.276 635.583 884.276 630.377V332.602C884.276 327.397 888.496 323.177 893.702 323.177Z" fill="black"/>
<path fill-rule="evenodd" clip-rule="evenodd" d="M985.432 375.479C990.637 375.479 994.857 379.699 994.857 384.905V682.69C994.857 687.895 990.637 692.115 985.432 692.115C980.226 692.115 976.006 687.895 976.006 682.69V384.905C976.006 379.699 980.226 375.479 985.432 375.479Z" fill="black"/>
<path fill-rule="evenodd" clip-rule="evenodd" d="M649.2 464.109C654.406 464.109 658.626 468.329 658.626 473.535V771.31C658.626 776.516 654.406 780.736 649.2 780.736C643.994 780.736 639.774 776.516 639.774 771.31V473.535C639.774 468.329 643.994 464.109 649.2 464.109Z" fill="black"/>
<path fill-rule="evenodd" clip-rule="evenodd" d="M576.283 139.914C581.489 139.914 585.709 144.134 585.709 149.34V314.138C585.709 319.343 581.489 323.563 576.283 323.563C571.078 323.563 566.858 319.343 566.858 314.138V149.34C566.858 144.134 571.078 139.914 576.283 139.914Z" fill="black"/>
<path fill-rule="evenodd" clip-rule="evenodd" d="M1079.78 429.96C1084.99 429.96 1089.21 434.18 1089.21 439.386V628.21C1089.21 633.415 1084.99 637.635 1079.78 637.635C1074.58 637.635 1070.36 633.415 1070.36 628.21V439.386C1070.36 434.18 1074.58 429.96 1079.78 429.96Z" fill="black"/>
<path fill-rule="evenodd" clip-rule="evenodd" d="M1174.8 484.817C1180.01 484.817 1184.23 489.037 1184.23 494.243V791.01C1184.23 796.215 1180.01 800.435 1174.8 800.435C1169.6 800.435 1165.38 796.215 1165.38 791.01V494.243C1165.38 489.037 1169.6 484.817 1174.8 484.817Z" fill="black"/>
<path fill-rule="evenodd" clip-rule="evenodd" d="M1234.27 231.814C1239.47 231.814 1243.69 236.034 1243.69 241.24V350.201C1243.69 355.406 1239.47 359.626 1234.27 359.626C1229.06 359.626 1224.84 355.406 1224.84 350.201V241.24C1224.84 236.034 1229.06 231.814 1234.27 231.814Z" fill="black"/>
<path fill-rule="evenodd" clip-rule="evenodd" d="M1423.64 345.864C1426.24 345.864 1428.35 347.974 1428.35 350.577V540.183C1428.35 542.786 1426.24 544.896 1423.64 544.896C1421.04 544.896 1418.93 542.786 1418.93 540.183V350.577C1418.93 347.974 1421.04 345.864 1423.64 345.864Z" fill="black"/>
<path d="M46.9303 1380.44V1265.8H106.774V1225.25H4.71283V1420.99H106.774V1380.44H46.9303Z" fill="#F9703E"/>
<path d="M106.774 1265.8V1380.44H149.001V1265.8H106.774Z" fill="#F9703E"/>
<path d="M219.466 1343.81V1380.44H317.898V1420.99H219.466V1380.73H177.239V1225.25H279.3V1265.8H219.457V1302.99H279.3V1265.8H321.527V1343.81H219.466Z" fill="#F9703E"/>
<path d="M495.459 1225.25V1380.44H453.232V1420.99H390.033V1380.44H347.806V1225.25H390.033V1380.44H453.232V1225.25H495.459Z" fill="#F9703E"/>
<path fill-rule="evenodd" clip-rule="evenodd" d="M0 1225.25C0 1222.65 2.11 1220.54 4.71282 1220.54H106.774C109.377 1220.54 111.487 1222.65 111.487 1225.25V1261.09H149.001C151.603 1261.09 153.713 1263.2 153.713 1265.8V1380.44C153.713 1383.05 151.603 1385.16 149.001 1385.16H111.487V1420.99C111.487 1423.59 109.377 1425.7 106.774 1425.7H4.71282C2.11 1425.7 0 1423.59 0 1420.99V1225.25ZM111.487 1375.73H144.288V1270.51H111.487V1375.73ZM102.061 1270.51V1375.73H51.6431V1270.51H102.061ZM102.061 1261.09H46.9303C44.3275 1261.09 42.2174 1263.2 42.2174 1265.8V1380.44C42.2174 1383.05 44.3275 1385.16 46.9303 1385.16H102.061V1416.28H9.42565V1229.96H102.061V1261.09ZM172.527 1225.25C172.527 1222.65 174.637 1220.54 177.239 1220.54H279.3C281.903 1220.54 284.013 1222.65 284.013 1225.25V1261.09H321.527C324.13 1261.09 326.24 1263.2 326.24 1265.8V1343.81C326.24 1346.42 324.13 1348.53 321.527 1348.53H224.179V1375.73H317.898C320.501 1375.73 322.611 1377.84 322.611 1380.44V1420.99C322.611 1423.59 320.501 1425.7 317.898 1425.7H219.466C216.864 1425.7 214.754 1423.59 214.754 1420.99V1385.44H177.239C174.637 1385.44 172.527 1383.33 172.527 1380.73V1225.25ZM214.754 1376.01H181.952V1229.96H274.588V1261.09H219.457C216.854 1261.09 214.744 1263.2 214.744 1265.8V1302.99C214.744 1305.59 216.854 1307.7 219.457 1307.7H279.3C281.903 1307.7 284.013 1305.59 284.013 1302.99V1270.51H316.814V1339.1H219.466C216.864 1339.1 214.754 1341.21 214.754 1343.81V1376.01ZM274.588 1270.51H224.17V1298.28H274.588V1270.51ZM224.179 1385.16V1416.28H313.186V1385.16H224.179ZM343.093 1225.25C343.093 1222.65 345.203 1220.54 347.806 1220.54H390.033C392.636 1220.54 394.746 1222.65 394.746 1225.25V1375.73H448.519V1225.25C448.519 1222.65 450.629 1220.54 453.232 1220.54H495.459C498.061 1220.54 500.172 1222.65 500.172 1225.25V1380.44C500.172 1383.05 498.061 1385.16 495.459 1385.16H457.945V1420.99C457.945 1423.59 455.835 1425.7 453.232 1425.7H390.033C387.43 1425.7 385.32 1423.59 385.32 1420.99V1385.16H347.806C345.203 1385.16 343.093 1383.05 343.093 1380.44V1225.25ZM385.32 1375.73V1229.96H352.519V1375.73H385.32ZM394.746 1385.16V1416.28H448.519V1385.16H394.746ZM457.945 1375.73H490.746V1229.96H457.945V1375.73Z" fill="#F9703E"/>
<path d="M739.866 1299.63V1380.44H697.639V1420.99H592.222V1380.44H697.639V1340.18H592.222V1265.8H634.449V1225.25H739.866V1265.8H634.449V1299.64H739.866V1299.63Z" fill="black"/>
<path d="M914.636 1265.8V1420.99H809.22V1380.44H766.993V1225.25H872.409V1265.8H809.21V1380.44H872.409V1265.8H914.636Z" fill="black"/>
<path d="M1090.8 1225.25V1420.99H985.385V1380.44H943.158V1225.25H985.385V1380.44H1048.58V1225.25H1090.81H1090.8Z" fill="black"/>
<path d="M1235.65 1380.44V1420.99H1173.85V1381.01H1131.62V1324.25H1115.4V1283.7H1131.62V1225.81H1173.85V1283.7H1211.88V1324.25H1173.85V1380.45H1235.65V1380.44Z" fill="black"/>
<path d="M1255.51 1266.91V1226.09H1297.73V1266.91H1255.51ZM1255.51 1420.98V1284.24H1297.73V1420.98H1255.51Z" fill="black"/>
<path d="M1437.83 1265.8H1371.84V1420.99H1329.61V1225.25H1437.83V1265.8ZM1437.83 1420.99V1265.8H1480.05V1420.99H1437.83Z" fill="black"/>
<path d="M1553.59 1284.25H1616.79V1325.08H1553.59V1420.99H1511.36V1225.25H1553.59V1284.25ZM1616.79 1420.99V1325.08H1659.02V1420.99H1616.79Z" fill="black"/>
<path d="M1829.03 1265.8V1420.99H1723.61V1380.44H1681.38V1225.25H1786.8V1265.8H1723.6V1380.44H1786.8V1265.8H1829.03Z" fill="black"/>
<path fill-rule="evenodd" clip-rule="evenodd" d="M629.736 1225.25C629.736 1222.65 631.846 1220.54 634.449 1220.54H739.866C742.469 1220.54 744.579 1222.65 744.579 1225.25V1265.8C744.579 1268.4 742.469 1270.51 739.866 1270.51H639.162V1294.92H739.565C739.664 1294.92 739.765 1294.91 739.866 1294.91C742.469 1294.91 744.579 1297.02 744.579 1299.63V1380.44C744.579 1383.05 742.469 1385.16 739.866 1385.16H702.352V1420.99C702.352 1423.59 700.242 1425.7 697.639 1425.7H592.222C589.62 1425.7 587.51 1423.59 587.51 1420.99V1380.44C587.51 1377.84 589.62 1375.73 592.222 1375.73H692.926V1344.89H592.222C589.62 1344.89 587.51 1342.78 587.51 1340.18V1265.8C587.51 1263.2 589.62 1261.09 592.222 1261.09H629.736V1225.25ZM639.162 1261.09H735.153V1229.96H639.162V1261.09ZM629.736 1270.51H596.935V1335.46H697.639C700.242 1335.46 702.352 1337.57 702.352 1340.18V1375.73H735.153V1304.35H634.449C631.846 1304.35 629.736 1302.24 629.736 1299.64V1270.51ZM692.926 1385.16H596.935V1416.28H692.926V1385.16ZM762.28 1225.25C762.28 1222.65 764.39 1220.54 766.993 1220.54H872.409C875.012 1220.54 877.122 1222.65 877.122 1225.25V1261.09H914.636C917.239 1261.09 919.349 1263.2 919.349 1265.8V1420.99C919.349 1423.59 917.239 1425.7 914.636 1425.7H809.22C806.617 1425.7 804.507 1423.59 804.507 1420.99V1385.16H766.993C764.39 1385.16 762.28 1383.05 762.28 1380.44V1225.25ZM813.933 1385.16V1416.28H909.923V1270.51H877.122V1380.44C877.122 1383.05 875.012 1385.16 872.409 1385.16H813.933ZM867.696 1261.09V1229.96H771.706V1375.73H804.497V1265.8C804.497 1263.2 806.607 1261.09 809.21 1261.09H867.696ZM867.696 1270.51V1375.73H813.923V1270.51H867.696ZM938.445 1225.25C938.445 1222.65 940.555 1220.54 943.158 1220.54H985.385C987.988 1220.54 990.098 1222.65 990.098 1225.25V1375.73H1043.87V1225.25C1043.87 1222.65 1045.98 1220.54 1048.58 1220.54H1090.81C1093.41 1220.54 1095.52 1222.65 1095.52 1225.25C1095.52 1225.35 1095.52 1225.45 1095.51 1225.55V1420.99C1095.51 1423.59 1093.4 1425.7 1090.8 1425.7H985.385C982.782 1425.7 980.672 1423.59 980.672 1420.99V1385.16H943.158C940.555 1385.16 938.445 1383.05 938.445 1380.44V1225.25ZM980.672 1375.73V1229.96H947.871V1375.73H980.672ZM990.098 1385.16V1416.28H1086.09V1229.96H1053.3V1380.44C1053.3 1383.05 1051.19 1385.16 1048.58 1385.16H990.098ZM1324.9 1225.25C1324.9 1222.65 1327.01 1220.54 1329.61 1220.54H1437.83C1440.43 1220.54 1442.54 1222.65 1442.54 1225.25V1261.09H1480.05C1482.66 1261.09 1484.77 1263.2 1484.77 1265.8V1420.99C1484.77 1423.59 1482.66 1425.7 1480.05 1425.7H1437.83C1435.22 1425.7 1433.11 1423.59 1433.11 1420.99V1270.51H1376.55V1420.99C1376.55 1423.59 1374.44 1425.7 1371.84 1425.7H1329.61C1327.01 1425.7 1324.9 1423.59 1324.9 1420.99V1225.25ZM1433.11 1261.09V1229.96H1334.32V1416.28H1367.12V1265.8C1367.12 1263.2 1369.23 1261.09 1371.84 1261.09H1433.11ZM1442.54 1270.51V1416.28H1475.34V1270.51H1442.54ZM1506.65 1225.25C1506.65 1222.65 1508.76 1220.54 1511.36 1220.54H1553.59C1556.19 1220.54 1558.3 1222.65 1558.3 1225.25V1279.54H1616.79C1619.39 1279.54 1621.5 1281.65 1621.5 1284.25V1320.36H1659.02C1661.62 1320.36 1663.73 1322.47 1663.73 1325.08V1420.99C1663.73 1423.59 1661.62 1425.7 1659.02 1425.7H1616.79C1614.19 1425.7 1612.08 1423.59 1612.08 1420.99V1329.79H1558.3V1420.99C1558.3 1423.59 1556.19 1425.7 1553.59 1425.7H1511.36C1508.76 1425.7 1506.65 1423.59 1506.65 1420.99V1225.25ZM1612.08 1320.36V1288.97H1553.59C1550.99 1288.97 1548.88 1286.86 1548.88 1284.25V1229.96H1516.08V1416.28H1548.88V1325.08C1548.88 1322.47 1550.99 1320.36 1553.59 1320.36H1612.08ZM1621.5 1329.79V1416.28H1654.3V1329.79H1621.5ZM1676.67 1225.25C1676.67 1222.65 1678.78 1220.54 1681.38 1220.54H1786.8C1789.4 1220.54 1791.51 1222.65 1791.51 1225.25V1261.09H1829.03C1831.63 1261.09 1833.74 1263.2 1833.74 1265.8V1420.99C1833.74 1423.59 1831.63 1425.7 1829.03 1425.7H1723.61C1721.01 1425.7 1718.9 1423.59 1718.9 1420.99V1385.16H1681.38C1678.78 1385.16 1676.67 1383.05 1676.67 1380.44V1225.25ZM1728.32 1385.16V1416.28H1824.31V1270.51H1791.51V1380.44C1791.51 1383.05 1789.4 1385.16 1786.8 1385.16H1728.32ZM1782.09 1261.09V1229.96H1686.1V1375.73H1718.89V1265.8C1718.89 1263.2 1721 1261.09 1723.6 1261.09H1782.09ZM1782.09 1270.51V1375.73H1728.31V1270.51H1782.09ZM1126.91 1225.81C1126.91 1223.21 1129.02 1221.1 1131.62 1221.1H1173.85C1176.45 1221.1 1178.56 1223.21 1178.56 1225.81V1278.98H1211.88C1214.49 1278.98 1216.6 1281.09 1216.6 1283.7V1324.25C1216.6 1326.85 1214.49 1328.96 1211.88 1328.96H1178.56V1375.74H1235.34C1235.44 1375.73 1235.54 1375.73 1235.65 1375.73C1238.25 1375.73 1240.36 1377.84 1240.36 1380.44V1420.99C1240.36 1423.59 1238.25 1425.7 1235.65 1425.7H1173.85C1171.25 1425.7 1169.14 1423.59 1169.14 1420.99V1385.72H1131.62C1129.02 1385.72 1126.91 1383.61 1126.91 1381.01V1328.96H1115.4C1112.8 1328.96 1110.69 1326.85 1110.69 1324.25V1283.7C1110.69 1281.09 1112.8 1278.98 1115.4 1278.98H1126.91V1225.81ZM1169.14 1376.29H1136.34V1324.25C1136.34 1321.64 1134.23 1319.53 1131.62 1319.53H1120.12V1288.41H1131.62C1134.23 1288.41 1136.34 1286.3 1136.34 1283.7V1230.53H1169.14V1283.7C1169.14 1286.3 1171.25 1288.41 1173.85 1288.41H1207.17V1319.53H1173.85C1171.25 1319.53 1169.14 1321.64 1169.14 1324.25V1376.29ZM1178.56 1385.16V1416.28H1230.93V1385.16H1178.56ZM1250.79 1226.09C1250.79 1223.49 1252.9 1221.38 1255.51 1221.38H1297.73C1300.33 1221.38 1302.44 1223.49 1302.44 1226.09V1266.91C1302.44 1269.51 1300.33 1271.62 1297.73 1271.62H1255.51C1252.9 1271.62 1250.79 1269.51 1250.79 1266.91V1226.09ZM1260.22 1230.8V1262.2H1293.02V1230.8H1260.22ZM1250.79 1284.24C1250.79 1281.64 1252.9 1279.53 1255.51 1279.53H1297.73C1300.33 1279.53 1302.44 1281.64 1302.44 1284.24V1420.98C1302.44 1423.58 1300.33 1425.69 1297.73 1425.69H1255.51C1252.9 1425.69 1250.79 1423.58 1250.79 1420.98V1284.24ZM1260.22 1288.96V1416.27H1293.02V1288.96H1260.22Z" fill="black"/>
</svg>
