<svg width="254" height="106" viewBox="0 0 254 106" fill="none" xmlns="http://www.w3.org/2000/svg">
<path d="M72.9173 24C70.684 23.9961 68.472 24.434 66.4086 25.2885C64.3452 26.1429 62.4713 27.3971 60.8946 28.9788L40.8528 49.0166L36.8452 45.009C36.3033 44.4863 35.871 43.8608 35.5736 43.1691C35.2761 42.4774 35.1194 41.7333 35.1126 40.9804C35.1059 40.2275 35.2492 39.4808 35.5342 38.7839C35.8192 38.0869 36.2403 37.4538 36.7727 36.9214C37.3051 36.389 37.9382 35.9679 38.6352 35.6829C39.3321 35.3979 40.0788 35.2546 40.8317 35.2613C41.5846 35.2681 42.3287 35.4248 43.0204 35.7223C43.7121 36.0197 44.3376 36.452 44.8604 36.9939L52.8794 28.9788C49.6773 25.8553 45.3734 24.1194 40.9003 24.1471C36.4272 24.1747 32.1451 25.9637 28.9818 29.1265C25.8185 32.2893 24.0287 36.5711 24.0003 41.0442C23.972 45.5173 25.7072 49.8215 28.8301 53.0242L40.8528 65.0469L80.2467 25.653C77.9583 24.5596 75.4534 23.9947 72.9173 24Z" fill="#8D3FFF"/>
<path d="M88.2616 33.6721L72.9171 49.0206L68.9096 45.0091L60.8944 53.0242L64.902 57.0318L48.8717 73.062L56.8869 81.0811L84.9398 53.0282C87.4262 50.5408 89.0807 47.3441 89.6756 43.8778C90.2704 40.4116 89.7765 36.8461 88.2616 33.6721Z" fill="#8D3FFF"/>
<path d="M101.921 42.6698H107.552V49.7H115.381V42.6698H121.018V61.8868H115.381V54.37H107.552V61.8868H101.921V42.6698Z" fill="#8D3FFF"/>
<path d="M138.612 60.9095C138.298 61.0726 137.975 61.2208 137.644 61.3537C137.195 61.5391 136.731 61.694 136.257 61.8173C135.672 61.9753 135.079 62.1043 134.478 62.2035C133.783 62.3113 133.08 62.3642 132.375 62.3619C129.619 62.3619 127.508 61.7323 126.043 60.473C124.578 59.2138 123.846 57.4511 123.846 55.185C123.848 54.2793 124.01 53.3796 124.324 52.5197C124.635 51.6687 125.128 50.8813 125.774 50.2021C126.453 49.4999 127.287 48.9352 128.223 48.545C129.308 48.1047 130.487 47.8883 131.675 47.9115C132.659 47.9056 133.636 48.0668 134.555 48.3866C135.45 48.6991 136.256 49.1917 136.91 49.8274C137.615 50.5273 138.153 51.352 138.489 52.2493C138.892 53.3499 139.085 54.5046 139.06 55.664V56.5756H128.94C128.967 56.8245 129.036 57.0682 129.145 57.2979C129.284 57.5728 129.491 57.8147 129.751 58.0048C130.09 58.25 130.481 58.4312 130.899 58.5378C131.473 58.6843 132.068 58.752 132.665 58.7387C133.51 58.7479 134.351 58.6411 135.161 58.4219C135.776 58.2637 136.369 58.0407 136.927 57.7575L138.612 60.9095ZM134.286 53.6747C134.283 53.4284 134.229 53.1848 134.128 52.9562C134.015 52.6985 133.847 52.4635 133.633 52.2648C133.396 52.0427 133.115 51.862 132.806 51.7317C132.43 51.5792 132.022 51.5053 131.611 51.5154C131.206 51.5088 130.804 51.5827 130.433 51.7317C130.121 51.858 129.84 52.0392 129.606 52.2648C129.401 52.4662 129.241 52.7008 129.132 52.9562C129.03 53.1846 128.975 53.4282 128.97 53.6747H134.286Z" fill="#8D3FFF"/>
<path d="M140.682 55.2044L149.244 43.736H154.56V54.8297H156.566V58.7195H154.56V61.8869H149.624V58.7195H140.665L140.682 55.2044ZM149.641 54.8181V49.4103L145.571 54.8181H149.641Z" fill="#8D3FFF"/>
<path d="M159.395 48.348H164.583L164.775 50.0476C165.2 49.5051 165.734 49.04 166.349 48.6764C167.03 48.2887 167.823 48.0937 168.627 48.1163C168.994 48.1131 169.36 48.1325 169.724 48.1742C170 48.2063 170.272 48.2645 170.534 48.348L169.835 52.4966C169.325 52.3806 168.802 52.3222 168.277 52.3228C165.939 52.3228 164.772 53.4816 164.775 55.7992V61.8753H159.395V48.348Z" fill="#8D3FFF"/>
<path d="M173.687 52.0909H171.49V48.3479H173.687V44.5702H179.063V48.3479H182.758V52.0909H179.063V56.8768C179.063 57.9893 179.646 58.5455 180.812 58.5455C181.158 58.545 181.501 58.4765 181.815 58.3446C182.131 58.2148 182.435 58.0611 182.724 57.885L184.823 60.8786C184.143 61.3624 183.381 61.7421 182.566 62.0026C181.745 62.2726 180.879 62.4099 180.006 62.4082C178.969 62.4358 177.937 62.2783 176.968 61.9447C176.205 61.6759 175.531 61.2344 175.01 60.6623C174.504 60.0837 174.149 59.4089 173.973 58.6884C173.766 57.8661 173.666 57.0248 173.674 56.1815L173.687 52.0909Z" fill="#8D3FFF"/>
<path d="M196.287 60.755C196.215 60.8323 196.099 60.952 195.937 61.1104C195.745 61.2929 195.527 61.4513 195.289 61.5817C194.991 61.7413 194.675 61.8709 194.346 61.9679C193.933 62.0921 193.5 62.1509 193.066 62.1418C192.466 62.1468 191.873 62.0348 191.325 61.8134C190.792 61.6002 190.315 61.2868 189.926 60.8941C189.513 60.4717 189.199 59.9775 189.004 59.4417C188.776 58.8272 188.664 58.1819 188.676 57.5335C188.654 56.7822 188.82 56.0361 189.162 55.3511C189.457 54.7789 189.879 54.2686 190.404 53.8524C190.881 53.4733 191.436 53.1832 192.038 52.9987C192.572 52.8277 193.134 52.7364 193.702 52.7283C194.265 52.7065 194.827 52.7852 195.357 52.9601C195.754 53.1146 196.057 53.2305 196.27 53.3077V49.0587H198.177V60.9598C198.177 61.2495 198.177 61.5546 198.198 61.8714H196.334L196.287 60.755ZM196.287 54.9339C196.039 54.776 195.776 54.6377 195.502 54.5206C194.985 54.3262 194.427 54.2379 193.868 54.2618C193.428 54.2577 192.992 54.3366 192.588 54.4936C192.202 54.6455 191.855 54.8677 191.568 55.1464C191.266 55.4457 191.035 55.7981 190.89 56.1816C190.722 56.6278 190.639 57.0969 190.647 57.5683C190.643 57.9726 190.701 58.3754 190.817 58.7657C190.917 59.1232 191.094 59.4593 191.338 59.7546C191.57 60.039 191.877 60.2671 192.23 60.419C192.631 60.5862 193.068 60.6681 193.51 60.6585C193.952 60.6706 194.391 60.5858 194.79 60.4113C195.119 60.2594 195.41 60.0462 195.643 59.7855C195.861 59.5397 196.028 59.2594 196.133 58.9589C196.231 58.6894 196.285 58.4082 196.291 58.1245L196.287 54.9339Z" fill="#8D3FFF"/>
<path d="M209.863 60.5813C209.704 60.7385 209.534 60.8868 209.355 61.0255C209.086 61.229 208.791 61.4028 208.476 61.5431C208.066 61.725 207.637 61.8699 207.196 61.9757C206.653 62.1025 206.093 62.1636 205.532 62.1573C204.815 62.1643 204.102 62.0477 203.433 61.8135C202.818 61.5951 202.261 61.2606 201.799 60.8324C201.337 60.3974 200.98 59.8805 200.75 59.3143C200.494 58.6876 200.369 58.0238 200.378 57.3559C200.373 56.7296 200.494 56.1077 200.737 55.5211C200.963 54.9706 201.31 54.4673 201.756 54.0417C202.199 53.6225 202.728 53.2865 203.314 53.0528C203.939 52.8044 204.615 52.6793 205.298 52.6859C206.055 52.6678 206.806 52.8205 207.482 53.1301C208.073 53.4066 208.586 53.8032 208.98 54.2889C209.374 54.7948 209.663 55.3616 209.833 55.9615C210.018 56.6008 210.109 57.2591 210.106 57.9199H202.311C202.321 58.2984 202.418 58.6708 202.597 59.013C202.769 59.3411 203.011 59.6351 203.309 59.8783C203.608 60.1243 203.954 60.3194 204.329 60.4538C204.712 60.5964 205.122 60.6686 205.537 60.6663C206.246 60.6894 206.952 60.5569 207.593 60.28C208.026 60.0906 208.421 59.8374 208.762 59.5306L209.863 60.5813ZM208.156 56.6452C208.1 55.9852 207.8 55.3616 207.303 54.8761C207.042 54.6269 206.725 54.4324 206.373 54.3063C206.02 54.1802 205.642 54.1255 205.263 54.146C204.845 54.1415 204.43 54.2137 204.043 54.3584C203.701 54.4915 203.389 54.68 203.122 54.9147C202.868 55.1437 202.667 55.4153 202.529 55.7143C202.388 56.0089 202.308 56.3245 202.294 56.6452H208.156Z" fill="#8D3FFF"/>
<path d="M210.609 52.9562H212.794L215.87 59.9284L218.925 52.9562H220.981L216.762 61.8868H214.85L210.609 52.9562Z" fill="#8D3FFF"/>
<path d="M222.765 59.6426C223.133 59.9723 223.567 60.2346 224.045 60.4152C224.587 60.6121 225.167 60.7093 225.751 60.701C226.301 60.7241 226.85 60.6344 227.356 60.4384C227.548 60.3695 227.712 60.2488 227.825 60.0926C227.939 59.9364 227.997 59.7524 227.991 59.5654C227.998 59.3812 227.951 59.1986 227.855 59.0362C227.74 58.8726 227.58 58.7394 227.39 58.6499C227.119 58.5158 226.833 58.4095 226.536 58.3332C226.174 58.2366 225.726 58.1323 225.188 58.0164C224.802 57.9394 224.423 57.8361 224.053 57.7074C223.691 57.5863 223.352 57.4157 223.046 57.2014C222.75 56.9911 222.505 56.7282 222.325 56.4288C222.133 56.0942 222.037 55.7207 222.048 55.3434C222.035 54.9369 222.149 54.5352 222.377 54.1846C222.598 53.8536 222.899 53.5712 223.256 53.358C223.637 53.1297 224.056 52.9576 224.497 52.8481C224.964 52.7315 225.446 52.673 225.931 52.6743C226.656 52.6615 227.378 52.7635 228.064 52.9756C228.643 53.1613 229.179 53.4444 229.642 53.8099L228.606 54.9996C228.276 54.7389 227.899 54.5312 227.492 54.3855C226.995 54.2105 226.464 54.1252 225.931 54.1344C225.426 54.1153 224.923 54.2081 224.467 54.4048C224.29 54.4878 224.144 54.6157 224.046 54.7728C223.949 54.9299 223.904 55.1094 223.917 55.2894C223.922 55.4834 223.996 55.6709 224.127 55.8244C224.258 55.978 224.44 56.0896 224.646 56.143C225.269 56.3662 225.912 56.5432 226.566 56.6722C227.009 56.7661 227.445 56.8847 227.872 57.0276C228.253 57.1506 228.611 57.3251 228.934 57.5452C229.233 57.7531 229.479 58.0165 229.655 58.3177C229.841 58.6654 229.931 59.0482 229.92 59.434C229.929 59.849 229.811 60.2581 229.578 60.616C229.349 60.958 229.039 61.2495 228.67 61.4697C228.267 61.7067 227.822 61.8804 227.356 61.9834C226.85 62.1006 226.329 62.159 225.807 62.1573C223.942 62.1573 222.539 61.7015 221.609 60.7937L222.765 59.6426Z" fill="#8D3FFF"/>
</svg>
